<svg fill="none" viewBox="0 0 151 24" xmlns="http://www.w3.org/2000/svg"><g fill="#FDCF00"><path d="m17.263 7.47928 7.2289 1.05348c.1581.02312.3065.08985.4285.19264.122.1028.2128.23756.262.38907.0492.1515.0549.31371.0165.46829-.0384.15457-.1194.29536-.2339.40645l-5.2358 5.07879c-.0994.0966-.1738.2158-.2168.3474-.0431.1316-.0534.2716-.0302.408l1.2291 7.1791c.0269.1571.0091.3185-.0513.466s-.161.2752-.2904.3687c-.1294.0934-.2825.149-.4419.1602-.1594.0113-.3188-.0221-.4601-.0964l-6.4623-3.3947c-.1229-.0643-.2596-.098-.3984-.098s-.2756.0337-.3985.098l-6.46933 3.3832c-.14152.0747-.30122.1083-.46095.097-.15972-.0112-.31308-.067-.44263-.1608-.12956-.0938-.23011-.222-.29025-.3699-.06013-.148-.07743-.3098-.04993-.467l1.24287-7.1773c.02353-.1364.01352-.2764-.02919-.4081-.04271-.1316-.11683-.251-.21601-.3478l-5.227363-5.08765c-.114257-.11132-.1949974-.25229-.2330968-.40697-.03809937-.15467-.03203795-.31689.0174994-.46832.0495373-.15142.1405754-.28601.2628234-.38855.122249-.10255.270833-.16895.428958-.19172l7.230269-1.04241c.13735-.01984.26781-.07265.38016-.15387.11236-.08123.20323-.18844.26482-.31243l3.23865-6.528127c.0708-.142761.1802-.262948.3159-.346984.1356-.0840355.2922-.128569.4519-.128569.1598 0 .3163.0445335.452.128569.1357.084036.2451.204223.3158.346984l3.2276 6.533447c.061.12462.1515.23255.2638.31449.1122.08193.2427.1354.3803.15579z"/><path d="m49.224 7.47928 7.2298 1.05348c.1581.02305.3066.08973.4286.1925.1221.10277.2129.23753.2622.38904.0492.15152.055.31375.0166.46836s-.1194.29543-.2339.40655l-5.2371 5.07879c-.0996.0965-.1741.2157-.2171.3473-.0431.1316-.0533.2717-.0299.4081l1.2287 7.1791c.027.1571.0093.3186-.051.4662-.0604.1476-.161.2754-.2904.3689-.1295.0935-.2826.149-.4421.1602s-.3189-.0223-.4603-.0968l-6.4636-3.3947c-.1228-.0643-.2594-.098-.3982-.098-.1387 0-.2754.0337-.3982.098l-6.4694 3.3832c-.1415.0747-.3012.1083-.4609.097-.1597-.0112-.3131-.0669-.4427-.1608-.1295-.0938-.2301-.222-.2902-.3699-.0601-.148-.0774-.3098-.0499-.467l1.2411-7.1769c.0236-.1364.0135-.2765-.0293-.4082-.0428-.1316-.117-.251-.2164-.3477l-5.2238-5.08805c-.1142-.11129-.195-.25222-.2331-.40687-.0381-.15464-.0321-.31684.0174-.46825s.1405-.286.2626-.38857c.1222-.10258.2708-.16904.4289-.19187l7.2307-1.04241c.1373-.01984.2678-.07265.3801-.15387.1124-.08123.2033-.18844.2648-.31243l3.2387-6.528127c.0708-.142761.1802-.262948.3159-.346984.1356-.0840355.2922-.128569.4519-.128569.1598 0 .3163.0445335.452.128569.1357.084036.2451.204223.3158.346984l3.2276 6.533447c.0609.12466.1514.23264.2637.31458.1122.08195.2428.13539.3804.1557z"/><path d="m80.7006 7.47939 7.2285 1.05348c.158.02312.3064.08985.4284.19265.122.10279.2128.23756.262.38906.0492.15151.0549.31371.0165.46829s-.1194.29536-.2339.40645l-5.2358 5.07878c-.0994.0966-.1738.2158-.2168.3474-.0429.1316-.0531.2716-.0297.408l1.2273 7.1791c.0268.1571.0091.3185-.0513.466s-.161.2752-.2904.3687c-.1294.0934-.2825.149-.4419.1603-.1594.0112-.3188-.0222-.4601-.0965l-6.4632-3.3947c-.1229-.0643-.2596-.098-.3984-.098s-.2756.0337-.3985.098l-6.4658 3.3828c-.1415.0747-.3012.1083-.4609.097-.1598-.0113-.3131-.067-.4427-.1608-.1295-.0938-.2301-.222-.2902-.3699-.0601-.148-.0774-.3098-.0499-.467l1.2437-7.1769c.0235-.1364.0134-.2765-.0294-.4081-.0428-.1317-.117-.251-.2162-.3478l-5.2287-5.08763c-.1143-.1113-.195-.25223-.2331-.40688-.0382-.15464-.0321-.31683.0173-.46824.0495-.15142.1405-.28601.2627-.38858s.2707-.16903.4288-.19187l7.2303-1.04241c.1373-.01984.2678-.07265.3802-.15387.1123-.08123.2032-.18844.2648-.31243l3.2391-6.528127c.0707-.14278.18-.262996.3157-.347055.1356-.0840587.2922-.128608.4519-.128608s.3162.0445493.4519.128608c.1356.084059.245.204275.3157.347055l3.2275 6.533447c.0611.12463.1517.23256.264.31449s.2429.1354.3806.15579z"/><path d="m111.427 7.47928 7.229 1.05348c.158.02312.307.08985.429.19265.122.10279.212.23756.262.38906.049.1515.054.31371.016.46829s-.119.29536-.234.40645l-5.236 5.07879c-.099.0966-.173.2158-.216.3474s-.054.2716-.031.408l1.23 7.1791c.026.1571.009.3185-.052.466-.06.1475-.161.2752-.29.3687-.13.0934-.283.149-.442.1602-.16.0113-.319-.0221-.46-.0964l-6.463-3.3947c-.123-.0643-.26-.098-.399-.098s-.275.0337-.398.098l-6.4696 3.3832c-.1415.0741-.3009.1072-.4603.0956-.1593-.0115-.3123-.0674-.4415-.1611s-.2294-.2216-.2895-.3692-.0775-.309-.0503-.466l1.2411-7.1769c.0236-.1364.0135-.2764-.0292-.408-.0427-.1317-.1168-.2511-.216-.3479l-5.2265-5.08805c-.1144-.11122-.1953-.25216-.2335-.40685s-.0322-.31696.0173-.46844.1406-.28611.2629-.38866c.1223-.10256.2709-.16893.4291-.19161l7.23-1.04241c.138-.01984.268-.07265.38-.15387.113-.08123.204-.18844.265-.31243l3.239-6.528127c.071-.142761.18-.262948.316-.346984.135-.0840355.292-.128569.452-.128569.159 0 .316.0445335.452.128569.135.084036.245.204223.316.346984l3.227 6.533447c.061.12462.152.23255.264.31449s.243.1354.38.15579z"/><path d="m143.029 7.47939 7.228 1.05348c.158.02312.307.08985.429.19265.122.10279.212.23756.262.38906.049.15151.055.31371.016.46829-.038.15458-.119.29536-.234.40645l-5.236 5.07878c-.099.0966-.174.2158-.217.3474s-.053.2716-.03.408l1.229 7.1791c.027.1571.009.3185-.051.466-.061.1475-.161.2752-.291.3687-.129.0934-.282.149-.441.1603-.16.0112-.319-.0222-.461-.0965l-6.463-3.3947c-.123-.0643-.259-.098-.398-.098s-.276.0337-.399.098l-6.469 3.3832c-.141.074-.301.107-.46.0954-.159-.0117-.312-.0675-.441-.1612-.13-.0937-.23-.2216-.29-.3691-.06-.1476-.077-.3089-.05-.4658l1.241-7.1769c.023-.1364.013-.2764-.029-.4081-.043-.1317-.117-.251-.217-.3478l-5.226-5.08803c-.114-.1113-.195-.25223-.233-.40688-.038-.15464-.032-.31683.018-.46824.049-.15142.14-.28601.262-.38858s.271-.16903.429-.19187l7.23-1.04241c.138-.01984.268-.07265.38-.15387.113-.08123.204-.18844.265-.31243l3.239-6.528127c.071-.14278.18-.262996.316-.347055.136-.0840587.292-.128608.452-.128608s.316.0445493.452.128608c.136.084059.245.204275.316.347055l3.228 6.536107c.061.12407.152.23144.264.31289s.242.13454.38.15473z"/></g></svg>