<svg width="287" height="96" viewBox="0 0 287 96" fill="none" xmlns="http://www.w3.org/2000/svg">
<path d="M4 0L284 0L281.315 7.6595C277.959 17.2294 276.246 27.2976 276.246 37.4387L276.246 69.9995C276.247 83.2545 265.502 94 252.246 94H38.3411C25.0865 94 14.3413 83.2551 14.3411 70.0005L14.3405 42.1154C14.3402 28.9442 11.4489 15.9335 5.87086 4.00183L4 0Z" fill="#271E66"/>
<path d="M4 -1H2.42862L3.09411 0.423506L4.96496 4.42534C10.4811 16.2245 13.3402 29.0906 13.3405 42.1154L13.3411 70.0005C13.3414 83.8074 24.5342 95 38.3411 95H252.246C266.054 95 277.247 83.8068 277.246 69.9995L277.246 37.4386C277.246 27.4103 278.94 17.454 282.258 7.99035L284.944 0.330859L285.41 -1H284H4Z" stroke="white" stroke-opacity="0.2" stroke-width="2"/>
<path d="M71.1863 14.0015C77.0447 14.0015 81.1315 16.0066 81.6634 21.6987H74.3202C74.0026 20.1015 73.1378 19.3279 71.259 19.3279C69.4873 19.3279 68.5804 20.0977 68.5804 21.1984C68.5804 22.2991 69.6671 22.7917 72.5753 23.1573C79.1608 23.9771 82.3407 25.7128 82.3407 30.816C82.3598 36.4774 78.1812 39.0174 71.5957 39.0174C69.1046 39.0174 65.9745 38.6826 63.7551 36.9623C61.3444 35.0803 61 30.9354 61 30.9354H68.1901C68.458 32.6518 69.2194 33.6063 71.4809 33.6294H71.5498C73.5473 33.6294 74.458 32.8597 74.458 31.6704C74.458 30.4812 73.31 29.9809 70.0498 29.5268C63.6786 28.6839 61 26.8135 61 21.8449C61 16.5531 65.6914 14.0015 71.1863 14.0015ZM124.903 14.0015C130.387 14.0015 134.853 18.1118 134.937 26.113V26.7211C134.937 34.9302 130.44 39.0367 124.858 39.0367C121.31 39.0367 118.708 37.3856 117.507 35.0611L117.468 34.9764L117.438 46.2105L109.368 46.1836V14.6403H117.495V18.1965C118.246 16.8968 119.329 15.8226 120.632 15.085C121.934 14.3475 123.409 13.9734 124.903 14.0015ZM91.3484 14.6403V28.8802C91.3484 31.5742 92.3931 32.8905 94.7081 32.8905C97.1609 32.8905 98.7528 31.4318 98.7528 28.3799V14.6403H106.88V38.5017H98.7528V34.784C97.4785 37.2471 95.1635 39.0174 91.2145 39.0174C86.6226 39.0174 83.2208 36.1887 83.2208 30.1656V14.6403H91.3484ZM121.984 20.1592C119.06 20.1592 117.296 22.2606 117.262 26.1939V26.6788C117.262 30.7391 119.034 32.7904 121.984 32.7904C124.995 32.7904 126.629 30.689 126.66 26.8443V26.3555C126.66 22.1644 124.846 20.1592 121.984 20.1592ZM147.978 39.0174C155.152 39.0174 159.285 35.9616 160.012 30.5813H152.382C152.064 32.1785 150.928 33.41 148.249 33.41C145.345 33.41 143.527 31.5858 143.302 28.4376H160.012V26.317C160.012 17.7423 154.425 14.0015 147.932 14.0015C140.757 14.0015 135.082 18.8353 135.082 26.4941V26.8597C135.082 34.6531 140.531 39.0174 147.978 39.0174ZM152.11 23.8347H143.393C143.799 20.979 145.479 19.3895 147.932 19.3895C150.568 19.3895 151.976 20.979 152.11 23.8501V23.8347ZM176.945 14.3209H177.059V21.9335C172.112 21.7988 169.387 23.3497 169.387 27.1791V38.4863H161.256V14.6249H169.368V19.3895C170.864 15.8257 173.363 14.2747 177.04 14.3209H176.945Z" fill="#005DFF"/>
<path d="M91.383 44.571C95.1101 44.571 97.3257 46.1374 98.6879 48.5235L98.73 48.5966V45.2099H106.85V67.1123C106.85 74.2515 102.178 78 93.6943 78C85.7006 78 81.9774 74.6402 81.2886 69.2906L81.2656 69.1251H89.3397C89.7223 70.8647 90.7478 72.2386 93.6943 72.2386C97.2453 72.2386 98.7032 70.2181 98.73 67.2932V63.5446C98.0155 64.8771 96.9547 65.9894 95.6607 66.7628C94.3667 67.5362 92.8882 67.9417 91.383 67.9359C88.0118 67.9359 84.8779 66.4811 83.1827 63.5523C80.4774 58.934 80.9404 53.6345 82.9799 49.4279C84.5373 46.222 87.8664 44.571 91.383 44.571ZM137.145 44.571C143.623 44.571 147.786 47.2111 147.859 53.4228V69.0982H139.965V66.3118C138.817 68.0475 136.735 69.6447 132.92 69.6447C128.65 69.6447 124.885 67.5433 124.885 62.4747C124.885 56.9096 129.518 54.7044 137.283 54.662H139.789V54.1117C139.789 51.8295 139.246 50.3208 136.655 50.3208C134.459 50.3208 133.632 51.6101 133.437 53.0918V53.1534H125.788C126.151 47.4036 130.643 44.571 137.149 44.571H137.145ZM125.049 44.8943H125.164V52.5915C120.189 52.4529 117.476 54.0232 117.476 57.8949V69.3214H109.333L109.36 45.2176H117.43V50.0129C118.93 46.4183 121.479 44.8519 125.164 44.8981L125.049 44.8943ZM139.781 59.2804H137.646C134.374 59.2804 132.92 59.9192 132.92 61.882C132.92 63.2521 133.827 64.1219 135.737 64.1219C138.033 64.1219 139.739 62.8288 139.781 60.8121V59.2727V59.2804ZM94.2912 50.698C91.2797 50.698 89.6496 52.807 89.619 56.0437V56.5094C89.619 59.8038 91.3409 61.8974 94.2453 61.8974C97.1497 61.8974 98.9252 59.8384 98.9596 56.5094V56.0899C98.9558 52.8032 97.2798 50.698 94.2912 50.698Z" fill="#FFB700"/>
<path d="M184.617 52.1412C184.55 52.2463 184.517 52.3693 184.522 52.4938C184.527 52.6183 184.569 52.7384 184.644 52.838C184.718 52.9376 184.821 53.012 184.939 53.0511C185.056 53.0903 185.183 53.0924 185.302 53.0572C189.836 51.7179 201.075 48.4927 206.666 46.7147C210.603 45.4716 213.894 41.5768 214.345 37.3972C215.038 30.9662 210.695 25.3203 204.136 24.6968C200.918 24.3966 197.447 25.6936 195.465 27.6872C193.483 29.6807 188.08 35.2689 185.6 37.936C185.515 38.0269 185.46 38.1417 185.442 38.265C185.424 38.3883 185.444 38.5142 185.499 38.626C185.553 38.7377 185.641 38.8299 185.749 38.8903C185.858 38.9506 185.982 38.9762 186.105 38.9636L191.818 38.4556C191.918 38.4465 192.018 38.4654 192.108 38.5103C192.197 38.5551 192.273 38.6241 192.325 38.7096C192.378 38.795 192.406 38.8935 192.407 38.9941C192.407 39.0947 192.38 39.1934 192.327 39.2792L184.617 52.1412Z" fill="#FFB700"/>
<path d="M172.942 67.8166C172.344 67.8171 171.766 67.6011 171.314 67.2082C170.861 66.8152 170.565 66.2715 170.478 65.6766C170.392 65.0817 170.521 64.4755 170.843 63.9687C171.165 63.462 171.657 63.0888 172.23 62.9173L185.921 58.78C186.551 58.5949 187.229 58.6678 187.806 58.9828C188.382 59.2978 188.812 59.8293 189.001 60.4616C189.19 61.0938 189.122 61.7755 188.814 62.358C188.505 62.9406 187.98 63.3768 187.353 63.5715L173.661 67.7088C173.428 67.78 173.185 67.8163 172.942 67.8166Z" fill="#FFB700"/>
<path d="M160.49 69.8332C160.004 69.831 159.529 69.6852 159.124 69.414C158.719 69.1428 158.401 68.7581 158.212 68.3075C158.022 67.8569 157.968 67.3602 158.056 66.8789C158.144 66.3976 158.37 65.9529 158.707 65.5998L179.474 44.1053C179.701 43.868 179.972 43.678 180.272 43.5461C180.572 43.4142 180.894 43.343 181.222 43.3365C181.549 43.3301 181.874 43.3886 182.179 43.5086C182.484 43.6286 182.762 43.8078 182.998 44.036C183.234 44.2642 183.423 44.5369 183.554 44.8385C183.685 45.1401 183.756 45.4648 183.762 45.7939C183.769 46.1231 183.711 46.4503 183.591 46.7568C183.472 47.0634 183.294 47.3433 183.067 47.5806L162.289 69.0751C162.056 69.3173 161.776 69.5094 161.467 69.6397C161.158 69.7701 160.825 69.8359 160.49 69.8332Z" fill="#005DFF"/>
<path d="M194.987 61.1931C194.388 61.1922 193.81 60.9744 193.359 60.5795C192.907 60.1847 192.612 59.6393 192.528 59.0434C192.444 58.4476 192.576 57.8412 192.9 57.3354C193.225 56.8297 193.72 56.4585 194.294 56.29C200.918 54.3657 205.513 52.9764 208.341 52.0835C214.464 50.1592 219.216 44.3593 219.901 38.0091C220.166 35.7377 219.975 33.436 219.341 31.24C218.706 29.0441 217.639 26.9984 216.205 25.224C214.783 23.4821 213.027 22.0447 211.043 20.9969C209.059 19.9492 206.886 19.3123 204.652 19.124C204.174 19.0817 203.688 19.0586 203.202 19.0586C198.798 19.0586 194.428 20.8097 191.516 23.7385C189.515 25.7513 177.683 38.1323 177.56 38.2554C177.338 38.5055 177.067 38.708 176.765 38.8507C176.463 38.9933 176.135 39.0734 175.801 39.0859C175.468 39.0985 175.135 39.0434 174.823 38.9239C174.511 38.8044 174.226 38.6229 173.985 38.3903C173.744 38.1576 173.552 37.8786 173.421 37.5699C173.29 37.2611 173.222 36.9289 173.221 36.5931C173.22 36.2573 173.286 35.9247 173.416 35.6152C173.545 35.3057 173.735 35.0257 173.975 34.7917C174.465 34.2798 185.96 22.2491 187.999 20.2016C191.826 16.353 197.508 14.0438 203.202 14.0438C203.841 14.0438 204.48 14.0746 205.115 14.1323C208.007 14.3789 210.82 15.2062 213.388 16.5654C215.956 17.9245 218.226 19.7878 220.066 22.0451C221.92 24.3331 223.298 26.9717 224.121 29.805C224.943 32.6382 225.192 35.6085 224.853 38.5402C223.961 46.8032 217.789 54.3195 209.841 56.8442C206.979 57.7486 202.349 59.1534 195.683 61.0777C195.458 61.1497 195.223 61.1886 194.987 61.1931Z" fill="#005DFF"/>
</svg>
