<svg width="176" height="36" viewBox="0 0 176 36" fill="none" xmlns="http://www.w3.org/2000/svg">
<path d="M0 8.76667C0 4.20111 3.70111 0.5 8.26667 0.5H176V27.2333C176 31.7989 172.299 35.5 167.733 35.5H0V8.76667Z" fill="url(#paint0_linear_2028_2286)"/>
<path fill-rule="evenodd" clip-rule="evenodd" d="M162.844 10.6467C162.538 10.7112 162.112 10.8544 161.897 10.9648C161.682 11.0751 161.323 11.3737 161.098 11.628C160.845 11.915 160.629 12.3614 160.529 12.8047C160.436 13.2185 160.39 14.1061 160.42 14.9148C160.466 16.1566 160.511 16.3693 160.827 16.8438C161.041 17.1646 161.544 17.6003 162.091 17.9379C162.591 18.2464 163.48 18.7759 164.067 19.1145C164.849 19.5661 165.196 19.8539 165.367 20.1942C165.526 20.5121 165.6 20.9713 165.6 21.6526C165.6 22.3345 165.527 22.7921 165.367 23.109C165.238 23.3632 164.984 23.6457 164.8 23.7368C164.617 23.8279 164.239 23.9033 163.96 23.9044C163.682 23.9054 163.288 23.8214 163.086 23.7174C162.884 23.6135 162.639 23.36 162.541 23.154C162.443 22.948 162.334 22.168 162.298 21.4206L162.232 20.0617H161.316H160.4V21.4472C160.4 22.2093 160.466 23.1374 160.546 23.5098C160.649 23.9851 160.838 24.3386 161.18 24.6957C161.485 25.0147 161.891 25.2686 162.267 25.3762C162.597 25.4706 163.381 25.5487 164.009 25.5498C164.785 25.5512 165.35 25.4764 165.77 25.3171C166.11 25.188 166.567 24.8791 166.787 24.6305C167.006 24.382 167.249 23.9534 167.326 23.6779C167.402 23.4026 167.464 22.4314 167.463 21.52C167.461 20.1985 167.411 19.7542 167.216 19.3271C167.082 19.0323 166.778 18.6296 166.542 18.4322C166.306 18.2346 165.443 17.7029 164.623 17.2504C163.804 16.7979 162.978 16.275 162.788 16.0886C162.544 15.8491 162.416 15.5459 162.35 15.0552C162.299 14.6734 162.298 14.056 162.348 13.6833C162.401 13.2852 162.558 12.868 162.727 12.6719C162.943 12.423 163.183 12.3227 163.675 12.2773C164.037 12.2438 164.495 12.2787 164.693 12.3548C164.891 12.4307 165.152 12.6427 165.272 12.8258C165.422 13.0532 165.515 13.5802 165.565 14.489L165.639 15.8192H166.553H167.467V14.5176C167.467 13.7573 167.385 12.9425 167.27 12.5584C167.154 12.1693 166.896 11.7294 166.637 11.4804C166.397 11.2492 165.979 10.9682 165.709 10.856C165.438 10.744 164.808 10.6245 164.309 10.5907C163.809 10.5569 163.15 10.5821 162.844 10.6467ZM39.2002 18.073V25.4973H40.2002H41.2002V22.2492V19.0011H42.9335H44.6669V18.1393V17.2776H42.9335H41.2002V14.8249V12.3723H43.2669H45.3335V11.5105V10.6488H42.2669H39.2002V18.073ZM46.4865 17.9073C45.6954 21.8994 45.0233 25.243 44.9929 25.3374C44.9502 25.4692 45.1589 25.4998 45.8942 25.47L46.851 25.431L47.1526 23.7868C47.3185 22.8823 47.5071 22.0898 47.5718 22.0255C47.6365 21.9612 48.3717 21.9255 49.2057 21.9464L50.7221 21.984L50.8123 22.448C50.8621 22.7032 51.0051 23.4938 51.1305 24.2046L51.3582 25.4973H52.3557C53.1258 25.4973 53.3433 25.4564 53.3099 25.3182C53.2862 25.2196 52.6071 21.8787 51.8007 17.8939L50.3345 10.6488H49.1297H47.9249L46.4865 17.9073ZM54.5335 18.073V25.4973H55.5335H56.5335V18.073V10.6488H55.5335H54.5335V18.073ZM58.4002 18.0587V25.4973H59.4002H60.4002V22.4419V19.3867L61.2911 19.4258L62.1821 19.4651L63.209 22.448L64.2361 25.431L65.1847 25.47C65.715 25.4917 66.1335 25.4539 66.1335 25.3844C66.1335 25.3159 65.6427 23.8702 65.0429 22.1716C64.2355 19.8855 63.9979 19.0681 64.1285 19.0248C64.2253 18.9927 64.5358 18.7588 64.8183 18.505C65.1699 18.189 65.3954 17.8315 65.5327 17.3713C65.6619 16.939 65.7335 16.1425 65.7335 15.1389C65.7335 14.2807 65.6675 13.2726 65.5869 12.8986C65.4953 12.4736 65.2829 12.0406 65.0202 11.7431C64.7893 11.4815 64.3302 11.1455 64.0002 10.9965C63.4817 10.7625 63.0609 10.7186 60.9002 10.6729L58.4002 10.6201V18.0587ZM66.4002 10.6785C66.4002 10.701 67.0902 12.7757 67.9335 15.2889L69.4669 19.8584V22.6779V25.4973H70.4669H71.4669V22.6779V19.8584L73.0002 15.2889C73.8435 12.7757 74.5335 10.7035 74.5335 10.684C74.5335 10.6647 74.0875 10.6488 73.5425 10.6488C72.7145 10.6488 72.5399 10.687 72.481 10.8808C72.4422 11.0085 71.9914 12.5961 71.4793 14.4089C70.9671 16.2217 70.5251 17.7278 70.4971 17.7556C70.4691 17.7835 69.9986 16.2107 69.4517 14.2607L68.457 10.7151L67.4286 10.6764C66.863 10.655 66.4002 10.6561 66.4002 10.6785ZM78.1335 18.073V25.5263L80.5669 25.4616C82.0214 25.423 83.1993 25.3288 83.495 25.2276C83.7673 25.1344 84.2034 24.8832 84.4645 24.6692C84.7255 24.4552 85.0391 24.0917 85.1613 23.8613C85.3218 23.5586 85.3997 22.9861 85.4419 21.7985C85.4771 20.8086 85.4386 19.8804 85.3453 19.4652C85.2473 19.03 85.0569 18.6492 84.8285 18.432C84.6295 18.243 84.3238 18.0358 84.1489 17.9716C83.8334 17.856 83.8346 17.8531 84.3073 17.5756C84.5693 17.4219 84.8923 17.0982 85.0253 16.856C85.2259 16.4905 85.2669 16.1014 85.2669 14.5598C85.2669 12.8274 85.2446 12.6639 84.9335 12.1071C84.6713 11.6378 84.4295 11.4257 83.8002 11.1132C83.0138 10.7225 82.9586 10.7149 80.5669 10.6677L78.1335 10.6197V18.073ZM86.9335 18.0587V25.4973H87.9335H88.9335V22.4419V19.3867L89.8245 19.4258L90.7154 19.4651L91.7423 22.448L92.7694 25.431L93.7181 25.47C94.2483 25.4917 94.6669 25.4539 94.6669 25.3844C94.6669 25.3159 94.1761 23.8702 93.5762 22.1716C92.7689 19.8855 92.5313 19.0681 92.6618 19.0248C92.7586 18.9927 93.0691 18.7588 93.3517 18.505C93.7033 18.189 93.9287 17.8315 94.0661 17.3713C94.1953 16.939 94.2669 16.1425 94.2669 15.1389C94.2669 14.2807 94.2009 13.2726 94.1202 12.8986C94.0286 12.4736 93.8162 12.0406 93.5535 11.7431C93.3226 11.4815 92.8635 11.1455 92.5335 10.9965C92.015 10.7625 91.5942 10.7186 89.4335 10.6729L86.9335 10.6201V18.0587ZM96.0002 18.073V25.4973H99.1335H102.267V24.6355V23.7738H100.134H98.0002V21.3211V18.8685H99.8002H101.6V18.0067V17.145H99.8002H98.0002V14.7586V12.3723H100.134H102.267V11.5105V10.6488H99.1335H96.0002V18.073ZM104.486 17.9073C103.695 21.8994 103.023 25.243 102.993 25.3374C102.95 25.4692 103.159 25.4998 103.894 25.47L104.851 25.431L105.153 23.7868C105.318 22.8823 105.507 22.0898 105.572 22.0255C105.636 21.9612 106.372 21.9255 107.206 21.9464L108.722 21.984L108.812 22.448C108.862 22.7032 109.005 23.4938 109.13 24.2046L109.358 25.4973H110.356C111.126 25.4973 111.343 25.4564 111.31 25.3182C111.286 25.2196 110.607 21.8787 109.801 17.8939L108.334 10.6488H107.13H105.925L104.486 17.9073ZM112.4 18.073V25.5259L114.9 25.4731C117.061 25.4274 117.482 25.3835 118 25.1495C118.33 25.0005 118.789 24.6646 119.02 24.403C119.283 24.1055 119.495 23.6725 119.587 23.2475C119.677 22.8288 119.734 20.8407 119.734 18.073C119.734 15.3054 119.677 13.3173 119.587 12.8986C119.495 12.4736 119.283 12.0406 119.02 11.7431C118.789 11.4815 118.33 11.1455 118 10.9965C117.482 10.7625 117.061 10.7186 114.9 10.6729L112.4 10.6201V18.073ZM124.267 18.073V25.4973H125.267H126.267V22.2492V19.0011H128H129.734V18.1393V17.2776H128H126.267V14.8249V12.3723H128.334H130.4V11.5105V10.6488H127.334H124.267V18.073ZM131.553 17.9073C130.762 21.8994 130.09 25.243 130.06 25.3374C130.017 25.4692 130.226 25.4998 130.961 25.47L131.918 25.431L132.219 23.7868C132.385 22.8823 132.574 22.0898 132.638 22.0255C132.703 21.9612 133.438 21.9255 134.272 21.9464L135.789 21.984L135.879 22.448C135.929 22.7032 136.072 23.4938 136.197 24.2046L136.425 25.4973H137.422C138.192 25.4973 138.41 25.4564 138.377 25.3182C138.353 25.2196 137.674 21.8787 136.867 17.8939L135.401 10.6488H134.196H132.992L131.553 17.9073ZM139.467 18.0587V25.4973H140.467H141.467V22.4419V19.3867L142.358 19.4258L143.249 19.4651L144.276 22.448L145.303 25.431L146.251 25.47C146.782 25.4917 147.2 25.4539 147.2 25.3844C147.2 25.3159 146.709 23.8702 146.11 22.1716C145.302 19.8855 145.065 19.0681 145.195 19.0248C145.292 18.9927 145.602 18.7588 145.885 18.505C146.237 18.189 146.462 17.8315 146.599 17.3713C146.729 16.939 146.8 16.1425 146.8 15.1389C146.8 14.2807 146.734 13.2726 146.654 12.8986C146.562 12.4736 146.35 12.0406 146.087 11.7431C145.856 11.4815 145.397 11.1455 145.067 10.9965C144.548 10.7625 144.128 10.7186 141.967 10.6729L139.467 10.6201V18.0587ZM148.534 18.0672V25.4973H149.465H150.397L150.432 20.495L150.467 15.4927L151.749 19.2687L153.031 23.0446L153.616 23.0817L154.2 23.1189L155.452 19.4359C156.141 17.4103 156.756 15.6962 156.819 15.627C156.883 15.5565 156.934 17.7015 156.934 20.4992V25.4973H157.867H158.8V18.073V10.6488H157.828H156.855L155.264 15.2226C154.389 17.7383 153.642 19.7958 153.603 19.7952C153.565 19.7944 152.837 17.7511 151.986 15.2545L150.438 10.7151L149.486 10.6761L148.534 10.6371V18.0672ZM63.2974 12.8058C63.6561 13.1623 63.6682 13.2218 63.7113 14.8396C63.7409 15.948 63.7011 16.6376 63.5926 16.8981C63.5027 17.1137 63.2607 17.3767 63.0547 17.4827C62.8129 17.607 62.2762 17.6753 61.5402 17.6753H60.4002V15.0109V12.3467L61.6641 12.3925C62.8374 12.4352 62.9543 12.4648 63.2974 12.8058ZM82.9438 12.7598C83.3299 13.1437 83.3335 13.1615 83.3335 14.6923C83.3335 16.2232 83.3299 16.241 82.9438 16.6249C82.5703 16.9962 82.5037 17.0124 81.3438 17.0124H80.1335V14.6923V12.3723H81.3438C82.5037 12.3723 82.5703 12.3884 82.9438 12.7598ZM91.8307 12.8058C92.1894 13.1623 92.2015 13.2218 92.2446 14.8396C92.2742 15.948 92.2345 16.6376 92.1259 16.8981C92.0361 17.1137 91.7941 17.3767 91.5881 17.4827C91.3462 17.607 90.8095 17.6753 90.0735 17.6753H88.9335V15.0109V12.3467L90.1974 12.3925C91.3707 12.4352 91.4877 12.4648 91.8307 12.8058ZM117.297 12.8062L117.667 13.1737V18.073V22.9724L117.297 23.3399C116.954 23.6812 116.838 23.7108 115.664 23.7535L114.4 23.7994V18.073V12.3467L115.664 12.3925C116.838 12.4352 116.954 12.4648 117.297 12.8062ZM144.364 12.8058C144.723 13.1623 144.735 13.2218 144.778 14.8396C144.808 15.948 144.768 16.6376 144.659 16.8981C144.569 17.1137 144.327 17.3767 144.121 17.4827C143.88 17.607 143.343 17.6753 142.607 17.6753H141.467V15.0109V12.3467L142.731 12.3925C143.904 12.4352 144.021 12.4648 144.364 12.8058ZM49.7987 16.8714C50.1275 18.7252 50.3751 20.2633 50.349 20.2894C50.3227 20.3155 49.7366 20.3196 49.0466 20.2987L47.7921 20.2605L48.4223 16.8136C48.7691 14.9177 49.0607 13.3368 49.0703 13.3003C49.0801 13.2638 49.1133 13.2941 49.1443 13.3674C49.1754 13.4407 49.4698 15.0175 49.7987 16.8714ZM107.799 16.8714C108.128 18.7252 108.375 20.2633 108.349 20.2894C108.323 20.3155 107.737 20.3196 107.047 20.2987L105.792 20.2605L106.422 16.8136C106.769 14.9177 107.061 13.3368 107.07 13.3003C107.08 13.2638 107.113 13.2941 107.144 13.3674C107.175 13.4407 107.47 15.0175 107.799 16.8714ZM134.865 16.8714C135.194 18.7252 135.442 20.2633 135.416 20.2894C135.389 20.3155 134.803 20.3196 134.113 20.2987L132.859 20.2605L133.489 16.8136C133.836 14.9177 134.127 13.3368 134.137 13.3003C134.147 13.2638 134.18 13.2941 134.211 13.3674C134.242 13.4407 134.536 15.0175 134.865 16.8714ZM82.1817 18.6876C82.5521 18.7382 82.9341 18.8953 83.1337 19.079C83.4577 19.3776 83.4669 19.4362 83.4669 21.1924V22.9987L83.0771 23.3863C82.7006 23.7607 82.6441 23.7738 81.4105 23.7738H80.1335V21.1886V18.6033H80.8482C81.2414 18.6033 81.8414 18.6412 82.1817 18.6876Z" fill="black"/>
<path fill-rule="evenodd" clip-rule="evenodd" d="M13.4811 6.16986C13.1591 6.23774 12.5127 6.47133 12.0447 6.68916C11.5279 6.92952 10.9049 7.37232 10.4581 7.81658C10.0117 8.26031 9.56593 8.88037 9.32473 9.39277C9.10606 9.85745 8.861 10.6115 8.77993 11.0687C8.67126 11.6825 8.67273 12.1466 8.78593 12.8453C8.8702 13.3655 9.1238 14.1684 9.34953 14.6296C9.72686 15.4006 9.7482 15.515 9.6134 16.0473C9.51913 16.4196 9.46673 18.4896 9.46673 21.8446V27.0629L9.81126 27.7504C10.0007 28.1284 10.4177 28.667 10.7379 28.9473C11.0581 29.2274 11.6299 29.5562 12.0087 29.6779C12.6202 29.8743 13.5894 29.8991 20.6578 29.8991C27.3687 29.8991 28.7247 29.8676 29.2962 29.6989C29.7243 29.5725 30.2189 29.2799 30.6385 28.9049C31.0038 28.5783 31.4446 28.0271 31.6181 27.6799C31.9301 27.0554 31.9338 26.9962 31.9741 22.1293C32.0078 18.0493 31.9795 17.0586 31.8081 16.3234C31.6018 15.4396 31.6022 15.4352 31.9541 14.7467C32.1481 14.3669 32.3871 13.758 32.4853 13.3934C32.5833 13.0288 32.6643 12.4 32.6651 11.996C32.6661 11.5921 32.5737 10.906 32.4598 10.4714C32.3459 10.0368 32.0951 9.41372 31.9025 9.08666C31.7097 8.75959 31.2833 8.20622 30.9547 7.85702C30.5887 7.46804 29.9915 7.0434 29.4122 6.76062C28.8922 6.5066 28.1067 6.23323 27.6667 6.15302C27.1957 6.06698 26.4007 6.04351 25.7334 6.09562C25.1101 6.1444 24.0325 6.30601 23.3387 6.45463C22.5051 6.63321 21.6007 6.72323 20.6721 6.72018C19.7815 6.71726 18.7843 6.61518 17.9499 6.44137C17.2258 6.2905 16.0558 6.14003 15.3499 6.10688C14.6442 6.07374 13.8033 6.10211 13.4811 6.16986ZM18.0001 7.09258C18.7603 7.26825 19.6223 7.35548 20.6187 7.35774C21.6141 7.36012 22.5377 7.2713 23.4187 7.08874C24.1418 6.9388 25.2445 6.78169 25.869 6.73967C26.5209 6.69565 27.3005 6.72615 27.6994 6.81126C28.0817 6.89279 28.6706 7.08861 29.0082 7.24637C29.3458 7.40414 29.9467 7.82825 30.3437 8.18899C30.8267 8.62808 31.2054 9.13637 31.4894 9.727C31.8165 10.4072 31.9271 10.8396 31.9727 11.6149C32.0138 12.3155 31.9634 12.8583 31.8065 13.4046C31.6825 13.8359 31.427 14.4238 31.2387 14.7109L30.8965 15.233L31.1166 16.1693C31.2997 16.9473 31.3365 17.8976 31.3351 21.7966C31.3339 25.004 31.2838 26.6522 31.1766 27.008C31.0903 27.2942 30.7777 27.8018 30.4818 28.1362C30.1858 28.4704 29.7014 28.8534 29.4053 28.9872C28.9022 29.2143 28.3365 29.2306 20.8155 29.2333C15.0833 29.2354 12.6155 29.1919 12.2478 29.0823C11.9638 28.9977 11.4898 28.7229 11.1945 28.4715C10.8991 28.2201 10.5246 27.7674 10.3622 27.4654C10.0717 26.9253 10.0667 26.8301 10.0667 21.7457C10.0667 17.2219 10.0947 16.5024 10.2909 15.9935C10.5141 15.4138 10.5135 15.4092 10.1342 14.734C9.92486 14.3612 9.6514 13.7014 9.52633 13.2677C9.36273 12.6997 9.32073 12.2234 9.3762 11.5649C9.42766 10.9552 9.585 10.3709 9.8486 9.81065C10.0661 9.34876 10.489 8.70643 10.7883 8.38348C11.0878 8.06039 11.685 7.6095 12.1155 7.38133C12.5459 7.1533 13.131 6.90804 13.4158 6.83632C13.7005 6.76472 14.5934 6.73423 15.4001 6.76857C16.2067 6.80277 17.3767 6.94874 18.0001 7.09258ZM13.2007 7.70601C12.8711 7.8256 12.3431 8.10016 12.0274 8.31613C11.7117 8.53209 11.2499 8.98736 11.0014 9.32768C10.7529 9.668 10.4483 10.2657 10.3247 10.6558C10.1663 11.1562 10.1185 11.6448 10.1626 12.313C10.2061 12.9731 10.3283 13.4625 10.5653 13.925C10.7523 14.2903 11.0234 14.734 11.1675 14.911C11.4286 15.2315 11.4285 15.2354 11.1482 15.8377C10.8803 16.4136 10.8647 16.6814 10.8258 21.4085C10.7902 25.7343 10.8129 26.4471 11.0011 26.9375C11.1201 27.247 11.4246 27.6812 11.6778 27.9023C11.9311 28.1235 12.2799 28.3397 12.4531 28.3829C12.6262 28.4261 12.9401 28.4419 13.1506 28.4179C13.3675 28.3933 13.5334 28.2946 13.5334 28.1902C13.5334 28.0873 13.2771 27.9307 12.9525 27.8354C12.633 27.7417 12.2329 27.5352 12.0633 27.3768C11.8937 27.2184 11.6879 26.928 11.6061 26.7316C11.5031 26.4846 11.469 24.8605 11.4953 21.4741L11.5334 16.5739L11.8921 15.8537L12.2506 15.1336L11.8411 14.67C11.6159 14.4149 11.2902 13.9039 11.1171 13.5346C10.8962 13.0629 10.8023 12.6235 10.8014 12.0581C10.8006 11.6154 10.9006 10.9596 11.0235 10.6009C11.1701 10.1734 11.4806 9.71652 11.9247 9.27491C12.3689 8.8333 12.8283 8.52454 13.2583 8.37883C13.6667 8.24056 14.3359 8.15664 15.0315 8.15664C15.6837 8.15664 16.7146 8.27834 17.5078 8.44897C18.5239 8.66758 19.3207 8.74209 20.6667 8.74461C22.0646 8.74713 22.7891 8.67846 23.9098 8.43717C25.0318 8.19575 25.641 8.13808 26.6473 8.17825C27.7511 8.2224 28.0294 8.28139 28.5375 8.57969C28.8653 8.77219 29.3253 9.12855 29.5599 9.3717C29.7945 9.61484 30.1205 10.1121 30.2845 10.4767C30.4939 10.9427 30.5825 11.3955 30.5825 12.0013C30.5825 12.5831 30.4941 13.0592 30.3105 13.4664C30.1609 13.7983 29.8499 14.2834 29.6193 14.5445C29.3887 14.8056 29.2001 15.08 29.2001 15.1544C29.2001 15.2286 29.3495 15.6086 29.5321 15.9986L29.8641 16.7078L29.8654 21.6589C29.8666 26.1139 29.8437 26.649 29.6363 26.9979C29.5095 27.2112 29.1606 27.5038 28.8609 27.6481C28.3391 27.8992 28.0185 27.9104 21.3579 27.9104C14.489 27.9104 14.4001 27.9139 14.4001 28.1756C14.4001 28.4374 14.489 28.4407 21.6067 28.4407C27.5509 28.4407 28.8763 28.408 29.1734 28.2537C29.3714 28.1508 29.6946 27.8973 29.8915 27.6902C30.0886 27.4833 30.3135 27.1459 30.3915 26.9406C30.4827 26.7008 30.5323 24.8062 30.5302 21.6376C30.5271 16.8022 30.5213 16.6936 30.2209 15.9676L29.9146 15.2273L30.2925 14.7772C30.5003 14.5297 30.7895 14.0104 30.9353 13.6233C31.1058 13.1699 31.2001 12.5928 31.2001 12.0013C31.2001 11.3998 31.1057 10.8323 30.9262 10.3555C30.7757 9.95529 30.3827 9.32967 30.0533 8.96522C29.7058 8.58088 29.1366 8.14815 28.6982 7.93484C28.0697 7.62912 27.7282 7.55899 26.6711 7.51855C25.7221 7.48236 25.0623 7.54255 24.0667 7.75626C23.3334 7.91363 22.0134 8.07404 21.1334 8.11262C19.8066 8.17096 19.3058 8.13397 18.2001 7.89613C17.4667 7.73836 16.1767 7.58219 15.3334 7.54904C14.1293 7.50171 13.6714 7.53539 13.2007 7.70601ZM26.5473 8.94348C26.4449 9.00645 26.3981 9.15321 26.4431 9.27014C26.4882 9.38694 26.6134 9.4824 26.7214 9.4824C26.8293 9.4824 26.9583 9.41704 27.0079 9.33709C27.0577 9.25715 27.0162 9.11026 26.9158 9.01043C26.8013 8.89654 26.6642 8.87162 26.5473 8.94348ZM20.0229 9.84698C19.8725 9.97452 19.7389 10.1983 19.7261 10.3441C19.7133 10.49 19.7097 10.7138 19.7181 10.8413C19.7265 10.9688 19.8534 11.1926 20.0001 11.3385C20.1467 11.4843 20.4401 11.6036 20.6519 11.6036C20.8638 11.6036 21.1637 11.4991 21.3182 11.3716C21.4727 11.2441 21.6342 10.9597 21.6767 10.7397C21.7333 10.4483 21.6766 10.2418 21.4675 9.97743C21.2581 9.71268 21.0615 9.61497 20.7385 9.61497C20.4953 9.61497 20.1733 9.71944 20.0229 9.84698ZM16.4589 10.4232C16.4091 10.5031 16.4651 10.6646 16.5834 10.782C16.7442 10.9419 16.8363 10.9577 16.9502 10.8445C17.0338 10.7614 17.0661 10.5999 17.0219 10.4856C16.9778 10.3713 16.8534 10.2779 16.7454 10.2779C16.6375 10.2779 16.5085 10.3432 16.4589 10.4232ZM21.0001 10.6093C21.0001 10.7786 20.8977 10.889 20.717 10.9146C20.5497 10.9383 20.3997 10.8658 20.3499 10.737C20.3037 10.6171 20.3017 10.4613 20.3455 10.3909C20.3894 10.3204 20.5546 10.281 20.7126 10.3034C20.8975 10.3296 21.0001 10.4388 21.0001 10.6093ZM11.9186 11.2512C11.6635 11.4693 11.5557 11.6883 11.5557 11.9877C11.5557 12.2445 11.6674 12.525 11.8371 12.6936C12.0067 12.8624 12.2889 12.9735 12.5471 12.9735C12.8482 12.9735 13.0685 12.8663 13.2878 12.6126C13.4595 12.4142 13.6001 12.1684 13.6001 12.0664C13.6001 11.9646 13.5334 11.7359 13.4521 11.5581C13.3706 11.3805 13.1578 11.1689 12.9791 11.0879C12.8003 11.007 12.5703 10.9407 12.4679 10.9407C12.3654 10.9407 12.1182 11.0805 11.9186 11.2512ZM28.2313 11.2051C27.9493 11.4258 27.8667 11.6035 27.8667 11.9905C27.8667 12.3024 27.9545 12.5654 28.1001 12.6898C28.2285 12.7994 28.4367 12.9254 28.563 12.9699C28.6893 13.0143 28.9686 12.9897 29.1837 12.9152C29.4106 12.8366 29.6394 12.6247 29.7285 12.4109C29.813 12.208 29.8427 11.8863 29.7947 11.6957C29.7466 11.5052 29.6325 11.2875 29.541 11.2121C29.4495 11.1367 29.1994 11.04 28.9853 10.9975C28.7041 10.9415 28.4946 10.9992 28.2313 11.2051ZM12.8574 11.8261C12.9059 11.9519 12.8542 12.1368 12.7383 12.2522C12.5539 12.4354 12.5111 12.4337 12.3115 12.2352C12.1282 12.053 12.1195 11.9789 12.2611 11.8091C12.3555 11.6961 12.509 11.6036 12.6021 11.6036C12.6953 11.6036 12.8102 11.7037 12.8574 11.8261ZM29.1738 11.9527C29.1983 12.1225 29.1234 12.2674 28.9834 12.3207C28.8503 12.3715 28.6689 12.3254 28.5545 12.2117C28.3891 12.0473 28.3855 11.9796 28.5326 11.8034C28.6295 11.6873 28.8043 11.6104 28.9211 11.6324C29.0379 11.6545 29.1515 11.7986 29.1738 11.9527ZM15.0667 12.0013C15.0667 12.1732 15.1557 12.2665 15.3191 12.2665C15.4579 12.2665 15.6038 12.1828 15.6433 12.0806C15.6827 11.9784 15.6791 11.8591 15.6353 11.8155C15.5915 11.7718 15.4457 11.7362 15.3111 11.7362C15.1557 11.7362 15.0667 11.8326 15.0667 12.0013ZM25.7334 12.0013C25.7334 12.1781 25.8223 12.2665 26.0001 12.2665C26.1778 12.2665 26.2667 12.1781 26.2667 12.0013C26.2667 11.8246 26.1778 11.7362 26.0001 11.7362C25.8223 11.7362 25.7334 11.8246 25.7334 12.0013ZM20.4449 13.2697C20.4007 13.384 20.4301 13.5425 20.5101 13.6221C20.615 13.7264 20.7105 13.7212 20.8531 13.6035C20.9619 13.5138 21.0181 13.3552 20.9779 13.2511C20.9377 13.1471 20.8194 13.0619 20.715 13.0619C20.6105 13.0619 20.489 13.1554 20.4449 13.2697ZM14.4001 15.1832C14.4001 15.3599 14.489 15.4483 14.6667 15.4483C14.8445 15.4483 14.9334 15.3599 14.9334 15.1832C14.9334 15.0064 14.8445 14.918 14.6667 14.918C14.489 14.918 14.4001 15.0064 14.4001 15.1832ZM26.4001 15.1832C26.4001 15.4014 26.4691 15.4569 26.7001 15.4244C26.8651 15.4011 27.0001 15.2925 27.0001 15.1832C27.0001 15.0738 26.8651 14.9652 26.7001 14.9419C26.4691 14.9094 26.4001 14.9649 26.4001 15.1832ZM14.2411 17.0933C14.0763 17.1751 13.8539 17.3969 13.747 17.5864C13.5867 17.8703 13.5817 18.0008 13.7186 18.3296C13.8101 18.5489 14.0335 18.7957 14.2154 18.878C14.3971 18.9605 14.6298 19.0279 14.7322 19.0279C14.8347 19.0279 15.0819 18.8881 15.2815 18.7174C15.5335 18.5019 15.6445 18.2795 15.6445 17.9899C15.6445 17.7606 15.5409 17.4591 15.4143 17.32C15.2877 17.1809 15.0394 17.0396 14.8625 17.0059C14.6855 16.9723 14.4059 17.0116 14.2411 17.0933ZM20.4473 17.0093C20.2899 17.0339 20.0611 17.164 19.9387 17.2984C19.8165 17.4328 19.7107 17.7378 19.7039 17.976C19.6949 18.2921 19.7893 18.4928 20.0533 18.7186C20.2522 18.8886 20.4987 19.0279 20.6013 19.0279C20.7037 19.0279 20.9337 18.9616 21.1125 18.8807C21.2911 18.7997 21.5039 18.5881 21.5854 18.4104C21.6667 18.2327 21.7334 18.0087 21.7334 17.9126C21.7334 17.8165 21.6149 17.5879 21.4699 17.4049C21.325 17.2216 21.1001 17.0477 20.9699 17.0181C20.8398 16.9887 20.6046 16.9846 20.4473 17.0093ZM14.9334 17.7684C15.0658 17.9271 15.0658 18.0074 14.9334 18.1661C14.8421 18.2755 14.6829 18.365 14.5795 18.365C14.4762 18.365 14.3569 18.2747 14.3143 18.1644C14.2717 18.0541 14.311 17.8751 14.4015 17.7667C14.4919 17.6582 14.6114 17.5695 14.6667 17.5695C14.7221 17.5695 14.8421 17.659 14.9334 17.7684ZM20.9319 17.7667C21.0225 17.8751 21.0618 18.0541 21.0191 18.1644C20.9766 18.2747 20.8573 18.365 20.7539 18.365C20.6506 18.365 20.4914 18.2755 20.4001 18.1661C20.2677 18.0074 20.2677 17.9271 20.4001 17.7684C20.4914 17.659 20.6114 17.5695 20.6667 17.5695C20.7221 17.5695 20.8415 17.6582 20.9319 17.7667ZM23.2001 17.9531C23.2001 18.0911 23.2857 18.2366 23.3903 18.2767C23.495 18.3166 23.6501 18.2659 23.7351 18.164C23.8202 18.0622 23.851 17.9166 23.8037 17.8405C23.7563 17.7644 23.6013 17.7021 23.4589 17.7021C23.2938 17.7021 23.2001 17.793 23.2001 17.9531ZM18.2667 19.1218C18.1567 19.1621 17.9618 19.286 17.8334 19.3971C17.6901 19.5213 17.6001 19.7879 17.6001 20.0885C17.6001 20.3883 17.6903 20.6565 17.8334 20.7814C17.9618 20.8935 18.1987 21.0251 18.3601 21.0739C18.5325 21.1261 18.8202 21.0769 19.0582 20.9546C19.2807 20.8402 19.5002 20.5985 19.5459 20.4175C19.5917 20.2365 19.5917 19.9404 19.5459 19.7594C19.5002 19.5784 19.2867 19.3398 19.0714 19.2291C18.8561 19.1184 18.6319 19.0326 18.5734 19.0383C18.5147 19.044 18.3767 19.0817 18.2667 19.1218ZM27.199 19.6256C27.0731 19.7765 27.0651 19.8747 27.1701 19.9791C27.2501 20.0586 27.4139 20.0861 27.5343 20.0402C27.6546 19.9942 27.7337 19.857 27.7099 19.7353C27.6862 19.6134 27.6007 19.492 27.5201 19.4654C27.4394 19.4386 27.295 19.5107 27.199 19.6256ZM18.9094 20.0573C18.9357 20.2401 18.8674 20.3871 18.7325 20.4386C18.6091 20.4857 18.4199 20.4302 18.3011 20.3121C18.1242 20.1361 18.1183 20.0674 18.2659 19.8905C18.3629 19.7744 18.5377 19.6975 18.6545 19.7195C18.7713 19.7416 18.8859 19.8936 18.9094 20.0573ZM25.7574 21.1822C25.7809 21.3462 25.8901 21.4805 26.0001 21.4805C26.1101 21.4805 26.2193 21.3462 26.2427 21.1822C26.2754 20.9526 26.2195 20.8839 26.0001 20.8839C25.7806 20.8839 25.7247 20.9526 25.7574 21.1822ZM14.4918 21.6324C14.4413 21.6825 14.4001 21.8373 14.4001 21.9763C14.4001 22.1458 14.477 22.2143 14.6334 22.1845C14.7617 22.1598 14.8667 22.0262 14.8667 21.8875C14.8667 21.7487 14.803 21.614 14.7251 21.5883C14.6471 21.5624 14.5422 21.5823 14.4918 21.6324ZM12.9334 23.2703C12.9334 23.4885 13.0025 23.544 13.2334 23.5116C13.3983 23.4882 13.5334 23.3797 13.5334 23.2703C13.5334 23.1609 13.3983 23.0523 13.2334 23.029C13.0025 22.9965 12.9334 23.0521 12.9334 23.2703ZM25.4261 23.1524C25.2937 23.229 25.131 23.4337 25.0646 23.6074C24.9885 23.8064 24.9963 24.0733 25.0859 24.3288C25.1642 24.5518 25.3378 24.7926 25.4719 24.864C25.6061 24.9353 25.8631 24.9938 26.0431 24.9938C26.2233 24.9938 26.497 24.8894 26.6515 24.7618C26.8061 24.6341 26.9675 24.3498 27.0101 24.1299C27.0666 23.8385 27.0099 23.6319 26.8009 23.3676C26.5939 23.106 26.3961 23.0062 26.0903 23.0091C25.8574 23.0114 25.5585 23.0758 25.4261 23.1524ZM26.3334 23.9994C26.3334 24.1687 26.231 24.2792 26.0503 24.3048C25.883 24.3285 25.733 24.256 25.6833 24.1271C25.637 24.0073 25.635 23.8515 25.6789 23.7811C25.7227 23.7106 25.8879 23.6712 26.0459 23.6936C26.2309 23.7197 26.3334 23.829 26.3334 23.9994ZM20.4507 24.5234C20.4099 24.6293 20.4153 24.7785 20.4627 24.8548C20.5103 24.9312 20.6291 24.9938 20.727 24.9938C20.8249 24.9938 20.9366 24.9116 20.9754 24.8111C21.0142 24.7106 20.9786 24.5614 20.8963 24.4796C20.8141 24.3978 20.6969 24.3309 20.6359 24.3309C20.5749 24.3309 20.4915 24.4175 20.4507 24.5234ZM12.5334 25.3915C12.3705 25.5535 12.2667 25.8334 12.2667 26.111C12.2667 26.444 12.3606 26.6389 12.6181 26.8401C12.8113 26.9913 13.1139 27.115 13.2907 27.115C13.4675 27.115 13.7594 26.9685 13.9394 26.7895C14.1342 26.5959 14.2667 26.3108 14.2667 26.0854C14.2667 25.8771 14.1443 25.576 13.9949 25.4165C13.8163 25.2259 13.5646 25.1263 13.2615 25.1263C12.9778 25.1263 12.6974 25.2284 12.5334 25.3915ZM27.3431 25.4757C27.1911 25.6678 27.0667 25.9093 27.0667 26.0126C27.0667 26.1157 27.1546 26.3691 27.2621 26.5757C27.3721 26.7871 27.6142 26.9905 27.8159 27.0407C28.0131 27.09 28.3413 27.0615 28.5453 26.9775C28.7603 26.8889 28.9734 26.6614 29.0525 26.4358C29.1274 26.2219 29.1522 25.9442 29.1075 25.8186C29.0627 25.6931 28.9361 25.486 28.8258 25.3583C28.7007 25.2136 28.4362 25.1263 28.1225 25.1263C27.7378 25.1263 27.5543 25.2085 27.3431 25.4757ZM13.5738 26.1043C13.5481 26.2833 13.4369 26.3858 13.2686 26.3858C13.1154 26.3858 12.9834 26.2807 12.9554 26.1366C12.9289 25.9995 12.9826 25.8409 13.0749 25.7842C13.1671 25.7276 13.3262 25.7131 13.4283 25.7521C13.5306 25.7911 13.5959 25.9496 13.5738 26.1043ZM28.3861 25.8387C28.4697 25.9389 28.5006 26.1179 28.4547 26.2364C28.409 26.355 28.2561 26.4521 28.115 26.4521C27.9738 26.4521 27.8235 26.3618 27.781 26.2515C27.7383 26.1412 27.7777 25.9622 27.8682 25.8538C27.9586 25.7453 28.0781 25.6566 28.1334 25.6566C28.1887 25.6566 28.3025 25.7386 28.3861 25.8387ZM15.7802 25.9917C15.7323 26.1156 15.7714 26.2609 15.8686 26.3206C15.9642 26.3794 16.1259 26.3958 16.2278 26.3569C16.3298 26.3179 16.3945 26.19 16.3718 26.0724C16.349 25.9548 16.2258 25.8385 16.0981 25.8141C15.9705 25.7896 15.8274 25.8696 15.7802 25.9917ZM21.7922 25.9345C21.7425 26.0145 21.7839 26.1614 21.8843 26.2612C21.9989 26.3751 22.1359 26.4 22.2529 26.3281C22.3553 26.2652 22.4021 26.1184 22.357 26.0015C22.3119 25.8847 22.1867 25.7892 22.0787 25.7892C21.9709 25.7892 21.8418 25.8546 21.7922 25.9345Z" fill="black"/>
<defs>
<linearGradient id="paint0_linear_2028_2286" x1="0" y1="18" x2="176" y2="18" gradientUnits="userSpaceOnUse">
<stop stop-color="#D0A457"/>
<stop offset="0.440026" stop-color="#F7D681"/>
<stop offset="0.735026" stop-color="#FAF7BE"/>
<stop offset="1" stop-color="#DFC77D"/>
</linearGradient>
</defs>
</svg>
