<svg width="74" height="74" viewBox="0 0 74 74" fill="none" xmlns="http://www.w3.org/2000/svg"><g clip-path="url(#a)"><path d="m73.78 36.55-3.27-2.49 2.79-3a.57.57 0 0 0-.16-.9l-3.65-1.87 2.22-3.45a.57.57 0 0 0-.3-.85l-3.93-1.2 1.6-3.79a.57.57 0 0 0-.46-.78l-4.07-.51.91-4a.57.57 0 0 0-.58-.7l-4.1.2.2-4.1a.57.57 0 0 0-.69-.57l-4 .9-.51-4.06a.57.57 0 0 0-.79-.45l-3.78 1.59-1.2-3.92a.57.57 0 0 0-.86-.31L45.71 4.5 43.83.86a.57.57 0 0 0-.89-.16l-3 2.8L37.44.21a.57.57 0 0 0-.9 0L34.07 3.5 31.06.7a.57.57 0 0 0-.89.16L28.3 4.51 24.85 2.3a.57.57 0 0 0-.85.3l-1.21 3.93L19 4.92a.57.57 0 0 0-.79.46l-.51 4.07-4-.91a.57.57 0 0 0-.7.58l.2 4.1-4.1-.2a.57.57 0 0 0-.57.68l.9 4-4.06.52a.57.57 0 0 0-.45.78l1.59 3.78L2.6 24a.57.57 0 0 0-.31.85L4.5 28.3.86 30.16a.57.57 0 0 0-.15.9l2.79 3-3.28 2.49c-.3.22-.3.67 0 .9l3.27 2.48-2.79 3a.57.57 0 0 0 .16.9l3.65 1.87-2.22 3.45c-.2.31-.05.74.3.85l3.93 1.2-1.6 3.8c-.14.34.08.73.46.77l4.07.52-.91 4c-.09.36.2.7.58.69l4.1-.2-.2 4.1c-.03.37.32.66.68.57l4-.9.52 4.07c.05.37.44.6.78.45l3.79-1.6 1.2 3.93c.12.35.54.5.86.3l3.44-2.22 1.88 3.65c.17.33.61.41.89.16l3-2.8 2.49 3.28c.23.3.67.3.9 0l2.48-3.27 3 2.8c.28.25.73.17.9-.16l1.87-3.65 3.45 2.22c.31.2.74.05.85-.3l1.2-3.93 3.8 1.6c.34.14.73-.09.77-.46l.52-4.07 4 .91c.36.08.7-.2.69-.58l-.2-4.1 4.1.2c.37.02.66-.32.58-.69l-.91-4 4.07-.51c.37-.05.6-.44.45-.78l-1.6-3.79 3.93-1.2a.57.57 0 0 0 .3-.85l-2.22-3.45 3.65-1.88a.57.57 0 0 0 .16-.89l-2.78-3.01 3.27-2.48c.3-.23.3-.68 0-.9Z" fill="url(#b)"/><path d="m69.62 45.22 3.57-1.84-2.73-2.95a.67.67 0 0 1 .09-1l3.2-2.43-3.2-2.43a.67.67 0 0 1-.1-1l2.74-2.96-3.57-1.83a.66.66 0 0 1-.26-.97l2.18-3.38-3.85-1.2a.67.67 0 0 1-.42-.9l1.56-3.7-4-.51a.67.67 0 0 1-.57-.82l.9-3.93-4.02.2a.66.66 0 0 1-.71-.7l.2-4.03-3.93.9a.67.67 0 0 1-.82-.58l-.5-3.99-3.71 1.56a.67.67 0 0 1-.91-.42l-1.2-3.85-3.37 2.18a.66.66 0 0 1-.97-.26L43.38.8l-2.95 2.74a.67.67 0 0 1-1-.1L37 .25l-2.43 3.21a.67.67 0 0 1-1 .09L30.62.8l-1.84 3.58a.66.66 0 0 1-.97.26l-3.38-2.18-1.19 3.85a.67.67 0 0 1-.9.42l-3.72-1.56-.5 4a.67.67 0 0 1-.82.57l-3.93-.9.2 4.02c.03.41-.3.73-.7.71l-4.02-.2.89 3.93c.1.4-.17.77-.58.82l-3.99.5 1.56 3.71a.67.67 0 0 1-.42.91l-3.85 1.2 2.18 3.37c.23.35.11.78-.26.97L.8 30.62l2.74 2.95c.28.3.24.75-.09 1L.25 37l3.2 2.43c.33.25.37.7.1 1L.8 43.38l3.58 1.84c.36.19.48.62.26.97l-2.19 3.38 3.85 1.19c.4.12.58.53.42.9l-1.56 3.71 4 .5c.4.06.66.43.57.83l-.9 3.92 4.03-.2c.4-.02.73.3.7.71l-.2 4.02 3.93-.9c.4-.08.77.18.83.59l.5 3.99 3.7-1.56c.39-.16.8.03.92.42l1.19 3.85 3.38-2.19c.34-.22.78-.1.97.26l1.84 3.58 2.95-2.73a.67.67 0 0 1 1 .09l2.43 3.2 2.43-3.2a.67.67 0 0 1 1-.1l2.95 2.74 1.84-3.58a.66.66 0 0 1 .97-.25l3.38 2.18 1.19-3.85c.12-.4.53-.58.9-.42l3.72 1.56.5-4c.05-.4.42-.66.82-.57l3.92.9-.2-4.02a.66.66 0 0 1 .72-.72l4.01.2-.89-3.92c-.1-.4.17-.77.58-.82l3.99-.5-1.56-3.72a.66.66 0 0 1 .42-.9l3.85-1.2-2.18-3.37a.66.66 0 0 1 .25-.97Z" fill="url(#c)"/><g opacity=".5"><g opacity=".5"><path opacity=".5" d="M52.88 37A15.9 15.9 0 0 1 37 52.88 15.9 15.9 0 0 1 21.12 37 15.9 15.9 0 0 1 37 21.12 15.9 15.9 0 0 1 52.88 37ZM37 10.84a26.16 26.16 0 1 0 0 52.32 26.16 26.16 0 0 0 0-52.32Z" fill="#000"/><path opacity=".5" d="M52.93 37.05a15.9 15.9 0 0 1-15.88 15.88 15.9 15.9 0 0 1-15.88-15.88 15.9 15.9 0 0 1 15.88-15.89 15.9 15.9 0 0 1 15.88 15.89ZM37.05 10.89a26.16 26.16 0 1 0 0 52.32 26.16 26.16 0 0 0 0-52.32Z" fill="#171717"/><path opacity=".5" d="M52.98 37.1A15.9 15.9 0 0 1 37.1 52.98 15.9 15.9 0 0 1 21.2 37.1 15.9 15.9 0 0 1 37.1 21.2 15.9 15.9 0 0 1 52.98 37.1ZM37.1 10.93a26.16 26.16 0 1 0 0 52.31 26.16 26.16 0 0 0 0-52.31Z" fill="#2E2E2E"/><path opacity=".5" d="M53.03 37.14a15.9 15.9 0 0 1-15.88 15.89 15.9 15.9 0 0 1-15.89-15.89 15.9 15.9 0 0 1 15.89-15.88 15.9 15.9 0 0 1 15.88 15.88ZM37.15 10.98a26.16 26.16 0 1 0 0 52.32 26.16 26.16 0 0 0 0-52.32Z" fill="#464646"/><path opacity=".5" d="M53.08 37.2a15.9 15.9 0 0 1-15.89 15.87A15.9 15.9 0 0 1 21.31 37.2 15.9 15.9 0 0 1 37.2 21.31a15.9 15.9 0 0 1 15.89 15.88ZM37.19 11.02a26.16 26.16 0 1 0 0 52.32 26.16 26.16 0 0 0 0-52.32Z" fill="#5D5D5D"/><path opacity=".5" d="M53.12 37.24a15.9 15.9 0 0 1-15.88 15.88 15.9 15.9 0 0 1-15.88-15.88 15.9 15.9 0 0 1 15.88-15.88 15.9 15.9 0 0 1 15.88 15.88ZM37.24 11.08a26.16 26.16 0 1 0 0 52.32 26.16 26.16 0 0 0 0-52.32Z" fill="#747474"/><path opacity=".5" d="M53.17 37.29A15.9 15.9 0 0 1 37.3 53.17 15.9 15.9 0 0 1 21.4 37.29 15.9 15.9 0 0 1 37.29 21.4 15.9 15.9 0 0 1 53.17 37.3ZM37.3 11.13a26.16 26.16 0 1 0 0 52.32 26.16 26.16 0 0 0 0-52.32Z" fill="#8B8B8B"/><path opacity=".5" d="M53.22 37.33a15.9 15.9 0 0 1-15.88 15.89 15.9 15.9 0 0 1-15.89-15.89 15.9 15.9 0 0 1 15.89-15.88 15.9 15.9 0 0 1 15.88 15.88ZM37.34 11.18a26.16 26.16 0 1 0 0 52.31 26.16 26.16 0 0 0 0-52.31Z" fill="#A2A2A2"/><path opacity=".5" d="M53.27 37.39a15.9 15.9 0 0 1-15.89 15.88A15.9 15.9 0 0 1 21.5 37.39 15.9 15.9 0 0 1 37.38 21.5 15.9 15.9 0 0 1 53.27 37.4ZM37.38 11.22a26.16 26.16 0 1 0 0 52.32 26.16 26.16 0 0 0 0-52.32Z" fill="#B9B9B9"/><path opacity=".5" d="M53.32 37.43a15.9 15.9 0 0 1-15.89 15.89 15.9 15.9 0 0 1-15.88-15.89 15.9 15.9 0 0 1 15.88-15.88 15.9 15.9 0 0 1 15.89 15.88ZM37.43 11.27a26.16 26.16 0 1 0 0 52.32 26.16 26.16 0 0 0 0-52.32Z" fill="#D1D1D1"/><path opacity=".5" d="M53.37 37.48a15.9 15.9 0 0 1-15.89 15.88A15.9 15.9 0 0 1 21.6 37.48 15.9 15.9 0 0 1 37.48 21.6a15.9 15.9 0 0 1 15.89 15.88ZM37.48 11.32a26.16 26.16 0 1 0 0 52.32 26.16 26.16 0 0 0 0-52.32Z" fill="#E8E8E8"/><path opacity=".5" d="M53.41 37.53A15.9 15.9 0 0 1 37.53 53.4a15.9 15.9 0 0 1-15.88-15.88 15.9 15.9 0 0 1 15.88-15.88 15.9 15.9 0 0 1 15.88 15.88ZM37.53 11.37a26.16 26.16 0 1 0 0 52.32 26.16 26.16 0 0 0 0-52.32Z" fill="#fff"/><path opacity=".5" d="M53.37 37.48a15.9 15.9 0 0 1-15.89 15.88A15.9 15.9 0 0 1 21.6 37.48 15.9 15.9 0 0 1 37.48 21.6a15.9 15.9 0 0 1 15.89 15.88ZM37.48 11.32a26.16 26.16 0 1 0 0 52.32 26.16 26.16 0 0 0 0-52.32Z" fill="#E8E8E8"/><path opacity=".5" d="M53.32 37.43a15.9 15.9 0 0 1-15.89 15.89 15.9 15.9 0 0 1-15.88-15.89 15.9 15.9 0 0 1 15.88-15.88 15.9 15.9 0 0 1 15.89 15.88ZM37.43 11.27a26.16 26.16 0 1 0 0 52.32 26.16 26.16 0 0 0 0-52.32Z" fill="#D1D1D1"/><path opacity=".5" d="M53.27 37.39a15.9 15.9 0 0 1-15.89 15.88A15.9 15.9 0 0 1 21.5 37.39 15.9 15.9 0 0 1 37.38 21.5 15.9 15.9 0 0 1 53.27 37.4ZM37.38 11.22a26.16 26.16 0 1 0 0 52.32 26.16 26.16 0 0 0 0-52.32Z" fill="#B9B9B9"/><path opacity=".5" d="M53.22 37.33a15.9 15.9 0 0 1-15.88 15.89 15.9 15.9 0 0 1-15.89-15.89 15.9 15.9 0 0 1 15.89-15.88 15.9 15.9 0 0 1 15.88 15.88ZM37.34 11.18a26.16 26.16 0 1 0 0 52.31 26.16 26.16 0 0 0 0-52.31Z" fill="#A2A2A2"/><path opacity=".5" d="M53.17 37.29A15.9 15.9 0 0 1 37.3 53.17 15.9 15.9 0 0 1 21.4 37.29 15.9 15.9 0 0 1 37.29 21.4 15.9 15.9 0 0 1 53.17 37.3ZM37.3 11.13a26.16 26.16 0 1 0 0 52.32 26.16 26.16 0 0 0 0-52.32Z" fill="#8B8B8B"/><path opacity=".5" d="M53.12 37.24a15.9 15.9 0 0 1-15.88 15.88 15.9 15.9 0 0 1-15.88-15.88 15.9 15.9 0 0 1 15.88-15.88 15.9 15.9 0 0 1 15.88 15.88ZM37.24 11.08a26.16 26.16 0 1 0 0 52.32 26.16 26.16 0 0 0 0-52.32Z" fill="#747474"/><path opacity=".5" d="M53.08 37.2a15.9 15.9 0 0 1-15.89 15.87A15.9 15.9 0 0 1 21.31 37.2 15.9 15.9 0 0 1 37.2 21.31a15.9 15.9 0 0 1 15.89 15.88ZM37.19 11.02a26.16 26.16 0 1 0 0 52.32 26.16 26.16 0 0 0 0-52.32Z" fill="#5D5D5D"/><path opacity=".5" d="M53.03 37.14a15.9 15.9 0 0 1-15.88 15.89 15.9 15.9 0 0 1-15.89-15.89 15.9 15.9 0 0 1 15.89-15.88 15.9 15.9 0 0 1 15.88 15.88ZM37.15 10.98a26.16 26.16 0 1 0 0 52.32 26.16 26.16 0 0 0 0-52.32Z" fill="#464646"/><path opacity=".5" d="M52.98 37.1A15.9 15.9 0 0 1 37.1 52.98 15.9 15.9 0 0 1 21.2 37.1 15.9 15.9 0 0 1 37.1 21.2 15.9 15.9 0 0 1 52.98 37.1ZM37.1 10.93a26.16 26.16 0 1 0 0 52.31 26.16 26.16 0 0 0 0-52.31Z" fill="#2E2E2E"/><path opacity=".5" d="M52.93 37.05a15.9 15.9 0 0 1-15.88 15.88 15.9 15.9 0 0 1-15.88-15.88 15.9 15.9 0 0 1 15.88-15.89 15.9 15.9 0 0 1 15.88 15.89ZM37.05 10.89a26.16 26.16 0 1 0 0 52.32 26.16 26.16 0 0 0 0-52.32Z" fill="#171717"/><path opacity=".5" d="M52.88 37A15.9 15.9 0 0 1 37 52.88 15.9 15.9 0 0 1 21.12 37 15.9 15.9 0 0 1 37 21.12 15.9 15.9 0 0 1 52.88 37ZM37 10.84a26.16 26.16 0 1 0 0 52.32 26.16 26.16 0 0 0 0-52.32Z" fill="#000"/></g><g opacity=".5"><path opacity=".5" d="M52.88 37A15.9 15.9 0 0 1 37 52.88 15.9 15.9 0 0 1 21.12 37 15.9 15.9 0 0 1 37 21.12 15.9 15.9 0 0 1 52.88 37ZM37 10.84a26.16 26.16 0 1 0 0 52.32 26.16 26.16 0 0 0 0-52.32Z" fill="#000"/><path opacity=".5" d="M52.93 37.05a15.9 15.9 0 0 1-15.88 15.88 15.9 15.9 0 0 1-15.88-15.88 15.9 15.9 0 0 1 15.88-15.89 15.9 15.9 0 0 1 15.88 15.89ZM37.05 10.89a26.16 26.16 0 1 0 0 52.32 26.16 26.16 0 0 0 0-52.32Z" fill="#171717"/><path opacity=".5" d="M52.98 37.1A15.9 15.9 0 0 1 37.1 52.98 15.9 15.9 0 0 1 21.2 37.1 15.9 15.9 0 0 1 37.1 21.2 15.9 15.9 0 0 1 52.98 37.1ZM37.1 10.93a26.16 26.16 0 1 0 0 52.31 26.16 26.16 0 0 0 0-52.31Z" fill="#2E2E2E"/><path opacity=".5" d="M53.03 37.14a15.9 15.9 0 0 1-15.88 15.89 15.9 15.9 0 0 1-15.89-15.89 15.9 15.9 0 0 1 15.89-15.88 15.9 15.9 0 0 1 15.88 15.88ZM37.15 10.98a26.16 26.16 0 1 0 0 52.32 26.16 26.16 0 0 0 0-52.32Z" fill="#464646"/><path opacity=".5" d="M53.08 37.2a15.9 15.9 0 0 1-15.89 15.87A15.9 15.9 0 0 1 21.31 37.2 15.9 15.9 0 0 1 37.2 21.31a15.9 15.9 0 0 1 15.89 15.88ZM37.19 11.02a26.16 26.16 0 1 0 0 52.32 26.16 26.16 0 0 0 0-52.32Z" fill="#5D5D5D"/><path opacity=".5" d="M53.12 37.24a15.9 15.9 0 0 1-15.88 15.88 15.9 15.9 0 0 1-15.88-15.88 15.9 15.9 0 0 1 15.88-15.88 15.9 15.9 0 0 1 15.88 15.88ZM37.24 11.08a26.16 26.16 0 1 0 0 52.32 26.16 26.16 0 0 0 0-52.32Z" fill="#747474"/><path opacity=".5" d="M53.17 37.29A15.9 15.9 0 0 1 37.3 53.17 15.9 15.9 0 0 1 21.4 37.29 15.9 15.9 0 0 1 37.29 21.4 15.9 15.9 0 0 1 53.17 37.3ZM37.3 11.13a26.16 26.16 0 1 0 0 52.32 26.16 26.16 0 0 0 0-52.32Z" fill="#8B8B8B"/><path opacity=".5" d="M53.22 37.33a15.9 15.9 0 0 1-15.88 15.89 15.9 15.9 0 0 1-15.89-15.89 15.9 15.9 0 0 1 15.89-15.88 15.9 15.9 0 0 1 15.88 15.88ZM37.34 11.18a26.16 26.16 0 1 0 0 52.31 26.16 26.16 0 0 0 0-52.31Z" fill="#A2A2A2"/><path opacity=".5" d="M53.27 37.39a15.9 15.9 0 0 1-15.89 15.88A15.9 15.9 0 0 1 21.5 37.39 15.9 15.9 0 0 1 37.38 21.5 15.9 15.9 0 0 1 53.27 37.4ZM37.38 11.22a26.16 26.16 0 1 0 0 52.32 26.16 26.16 0 0 0 0-52.32Z" fill="#B9B9B9"/><path opacity=".5" d="M53.32 37.43a15.9 15.9 0 0 1-15.89 15.89 15.9 15.9 0 0 1-15.88-15.89 15.9 15.9 0 0 1 15.88-15.88 15.9 15.9 0 0 1 15.89 15.88ZM37.43 11.27a26.16 26.16 0 1 0 0 52.32 26.16 26.16 0 0 0 0-52.32Z" fill="#D1D1D1"/><path opacity=".5" d="M53.37 37.48a15.9 15.9 0 0 1-15.89 15.88A15.9 15.9 0 0 1 21.6 37.48 15.9 15.9 0 0 1 37.48 21.6a15.9 15.9 0 0 1 15.89 15.88ZM37.48 11.32a26.16 26.16 0 1 0 0 52.32 26.16 26.16 0 0 0 0-52.32Z" fill="#E8E8E8"/><path opacity=".5" d="M53.41 37.53A15.9 15.9 0 0 1 37.53 53.4a15.9 15.9 0 0 1-15.88-15.88 15.9 15.9 0 0 1 15.88-15.88 15.9 15.9 0 0 1 15.88 15.88ZM37.53 11.37a26.16 26.16 0 1 0 0 52.32 26.16 26.16 0 0 0 0-52.32Z" fill="#fff"/><path opacity=".5" d="M53.37 37.48a15.9 15.9 0 0 1-15.89 15.88A15.9 15.9 0 0 1 21.6 37.48 15.9 15.9 0 0 1 37.48 21.6a15.9 15.9 0 0 1 15.89 15.88ZM37.48 11.32a26.16 26.16 0 1 0 0 52.32 26.16 26.16 0 0 0 0-52.32Z" fill="#E8E8E8"/><path opacity=".5" d="M53.32 37.43a15.9 15.9 0 0 1-15.89 15.89 15.9 15.9 0 0 1-15.88-15.89 15.9 15.9 0 0 1 15.88-15.88 15.9 15.9 0 0 1 15.89 15.88ZM37.43 11.27a26.16 26.16 0 1 0 0 52.32 26.16 26.16 0 0 0 0-52.32Z" fill="#D1D1D1"/><path opacity=".5" d="M53.27 37.39a15.9 15.9 0 0 1-15.89 15.88A15.9 15.9 0 0 1 21.5 37.39 15.9 15.9 0 0 1 37.38 21.5 15.9 15.9 0 0 1 53.27 37.4ZM37.38 11.22a26.16 26.16 0 1 0 0 52.32 26.16 26.16 0 0 0 0-52.32Z" fill="#B9B9B9"/><path opacity=".5" d="M53.22 37.33a15.9 15.9 0 0 1-15.88 15.89 15.9 15.9 0 0 1-15.89-15.89 15.9 15.9 0 0 1 15.89-15.88 15.9 15.9 0 0 1 15.88 15.88ZM37.34 11.18a26.16 26.16 0 1 0 0 52.31 26.16 26.16 0 0 0 0-52.31Z" fill="#A2A2A2"/><path opacity=".5" d="M53.17 37.29A15.9 15.9 0 0 1 37.3 53.17 15.9 15.9 0 0 1 21.4 37.29 15.9 15.9 0 0 1 37.29 21.4 15.9 15.9 0 0 1 53.17 37.3ZM37.3 11.13a26.16 26.16 0 1 0 0 52.32 26.16 26.16 0 0 0 0-52.32Z" fill="#8B8B8B"/><path opacity=".5" d="M53.12 37.24a15.9 15.9 0 0 1-15.88 15.88 15.9 15.9 0 0 1-15.88-15.88 15.9 15.9 0 0 1 15.88-15.88 15.9 15.9 0 0 1 15.88 15.88ZM37.24 11.08a26.16 26.16 0 1 0 0 52.32 26.16 26.16 0 0 0 0-52.32Z" fill="#747474"/><path opacity=".5" d="M53.08 37.2a15.9 15.9 0 0 1-15.89 15.87A15.9 15.9 0 0 1 21.31 37.2 15.9 15.9 0 0 1 37.2 21.31a15.9 15.9 0 0 1 15.89 15.88ZM37.19 11.02a26.16 26.16 0 1 0 0 52.32 26.16 26.16 0 0 0 0-52.32Z" fill="#5D5D5D"/><path opacity=".5" d="M53.03 37.14a15.9 15.9 0 0 1-15.88 15.89 15.9 15.9 0 0 1-15.89-15.89 15.9 15.9 0 0 1 15.89-15.88 15.9 15.9 0 0 1 15.88 15.88ZM37.15 10.98a26.16 26.16 0 1 0 0 52.32 26.16 26.16 0 0 0 0-52.32Z" fill="#464646"/><path opacity=".5" d="M52.98 37.1A15.9 15.9 0 0 1 37.1 52.98 15.9 15.9 0 0 1 21.2 37.1 15.9 15.9 0 0 1 37.1 21.2 15.9 15.9 0 0 1 52.98 37.1ZM37.1 10.93a26.16 26.16 0 1 0 0 52.31 26.16 26.16 0 0 0 0-52.31Z" fill="#2E2E2E"/><path opacity=".5" d="M52.93 37.05a15.9 15.9 0 0 1-15.88 15.88 15.9 15.9 0 0 1-15.88-15.88 15.9 15.9 0 0 1 15.88-15.89 15.9 15.9 0 0 1 15.88 15.89ZM37.05 10.89a26.16 26.16 0 1 0 0 52.32 26.16 26.16 0 0 0 0-52.32Z" fill="#171717"/><path opacity=".5" d="M52.88 37A15.9 15.9 0 0 1 37 52.88 15.9 15.9 0 0 1 21.12 37 15.9 15.9 0 0 1 37 21.12 15.9 15.9 0 0 1 52.88 37ZM37 10.84a26.16 26.16 0 1 0 0 52.32 26.16 26.16 0 0 0 0-52.32Z" fill="#000"/></g></g><path d="M16.02 36.51a1.77 1.77 0 1 0 0 3.54 1.77 1.77 0 0 0 0-3.54Z" fill="url(#d)"/><path d="M57.98 36.51a1.77 1.77 0 1 0 0 3.54 1.77 1.77 0 0 0 0-3.54Z" fill="url(#e)"/><path d="M66.2 35.83a.38.38 0 0 0-.53.02.35.35 0 0 0 .01.5s1.47 1.44 1.86 1.87c.14.15.38.17.53.02a.4.4 0 0 0 .01-.55s-1.47-1.49-1.88-1.86Z" fill="url(#f)"/><path d="M66.22 37.29a.38.38 0 0 0-.53 0 .35.35 0 0 0-.01.5s1.39 1.5 1.76 1.95c.13.16.37.18.53.04a.4.4 0 0 0 .04-.54s-1.4-1.56-1.8-1.95Z" fill="url(#g)"/><path d="M66.17 38.74a.38.38 0 0 0-.53-.03.35.35 0 0 0-.04.5s1.32 1.59 1.67 2.05c.12.16.36.2.52.07a.4.4 0 0 0 .07-.54s-1.32-1.64-1.69-2.05Z" fill="url(#h)"/><path d="M66.05 40.2a.38.38 0 0 0-.53-.06.35.35 0 0 0-.06.5s1.23 1.64 1.56 2.12c.11.17.34.22.52.1a.4.4 0 0 0 .1-.54s-1.24-1.7-1.6-2.13Z" fill="url(#i)"/><path d="M65.85 41.64a.38.38 0 0 0-.52-.08.35.35 0 0 0-.09.5s1.16 1.7 1.45 2.19c.11.18.34.23.52.12a.4.4 0 0 0 .12-.53s-1.15-1.75-1.48-2.2Z" fill="url(#j)"/><path d="M65.59 43.07a.38.38 0 0 0-.52-.1.35.35 0 0 0-.11.49s1.06 1.75 1.34 2.26c.1.18.32.26.5.15a.4.4 0 0 0 .15-.53s-1.06-1.8-1.36-2.27Z" fill="url(#k)"/><path d="M65.25 44.49a.39.39 0 0 0-.5-.14.35.35 0 0 0-.15.5s.98 1.8 1.23 2.32c.09.19.31.27.5.17a.4.4 0 0 0 .17-.52s-.97-1.85-1.25-2.33Z" fill="url(#l)"/><path d="M64.84 45.89a.38.38 0 0 0-.5-.16.35.35 0 0 0-.16.47s.88 1.86 1.1 2.4c.08.19.3.28.5.2a.4.4 0 0 0 .2-.52s-.88-1.9-1.14-2.4Z" fill="url(#m)"/><path d="M64.37 47.27a.38.38 0 0 0-.5-.19.35.35 0 0 0-.18.47s.79 1.9.98 2.44c.07.2.29.3.48.22.2-.07.3-.3.23-.5 0 0-.78-1.94-1.01-2.44Z" fill="url(#n)"/><path d="M63.82 48.61a.38.38 0 0 0-.48-.2.35.35 0 0 0-.21.46s.7 1.93.86 2.48c.06.2.27.32.47.25a.4.4 0 0 0 .25-.49s-.68-1.98-.89-2.5Z" fill="url(#o)"/><path d="M63.2 49.94a.38.38 0 0 0-.47-.24c-.2.06-.3.26-.23.45 0 0 .6 1.97.74 2.53.05.2.25.33.45.27a.4.4 0 0 0 .28-.47s-.58-2.02-.76-2.54Z" fill="url(#p)"/><path d="M62.53 51.23a.38.38 0 0 0-.46-.26c-.2.05-.31.24-.26.44 0 0 .5 2 .62 2.56.04.2.23.34.43.3a.4.4 0 0 0 .3-.47s-.48-2.04-.63-2.57Z" fill="url(#q)"/><path d="M61.78 52.48a.38.38 0 0 0-.45-.28.35.35 0 0 0-.27.43c.07.3.4 2.01.48 2.58.03.21.22.35.43.32a.4.4 0 0 0 .32-.45s-.38-2.06-.5-2.6Z" fill="url(#r)"/><path d="M60.98 53.7a.38.38 0 0 0-.43-.3.35.35 0 0 0-.3.4c.06.31.3 2.04.36 2.61.02.21.2.36.4.34a.4.4 0 0 0 .34-.43s-.27-2.08-.37-2.62Z" fill="url(#s)"/><path d="M60.12 54.87a.38.38 0 0 0-.42-.32c-.2.02-.34.2-.31.4.04.3.2 2.04.22 2.62 0 .2.18.37.4.35a.4.4 0 0 0 .35-.41s-.17-2.1-.24-2.64Z" fill="url(#t)"/><path d="M59.2 56a.38.38 0 0 0-.4-.35.35.35 0 0 0-.33.38c.03.32.1 2.06.09 2.63 0 .21.16.38.37.38a.4.4 0 0 0 .38-.4s-.07-2.1-.11-2.64Z" fill="url(#u)"/><path d="M57.84 56.72c-.2 0-.36.16-.35.36.01.32 0 2.06-.04 2.63-.02.2.14.39.35.4.22 0 .4-.17.4-.38 0 0 .04-2.1.02-2.65 0-.2-.18-.36-.38-.36Z" fill="url(#v)"/><path d="M56.83 57.73c-.2 0-.36.15-.37.35 0 .31-.1 2.06-.17 2.62-.02.2.13.4.34.41.21.02.4-.14.42-.35 0 0 .14-2.09.15-2.65 0-.2-.17-.37-.37-.38Z" fill="url(#w)"/><path d="M55.77 58.7a.35.35 0 0 0-.38.33c-.02.31-.2 2.05-.3 2.6-.04.21.1.4.31.43.21.04.4-.11.44-.33 0 0 .24-2.08.28-2.63a.38.38 0 0 0-.35-.4Z" fill="url(#x)"/><path d="M54.66 59.6a.35.35 0 0 0-.4.32c-.03.31-.3 2.04-.42 2.59-.05.2.08.4.29.44.2.04.41-.1.45-.3 0 0 .35-2.07.41-2.63a.38.38 0 0 0-.33-.42Z" fill="url(#y)"/><path d="M53.52 60.46a.35.35 0 0 0-.42.3s-.4 2.02-.56 2.56c-.05.2.07.4.27.45.2.05.42-.07.47-.28 0 0 .46-2.04.54-2.6.03-.2-.1-.4-.3-.43Z" fill="url(#z)"/><path d="M52.33 61.25a.35.35 0 0 0-.43.28s-.5 2-.69 2.53c-.06.2.05.4.25.47.2.05.43-.05.48-.26 0 0 .56-2.02.67-2.57a.38.38 0 0 0-.28-.45Z" fill="url(#A)"/><path d="M51.1 61.99a.35.35 0 0 0-.44.25s-.6 1.97-.81 2.5c-.08.19.02.4.22.47a.4.4 0 0 0 .5-.23s.65-1.98.79-2.53a.38.38 0 0 0-.26-.46Z" fill="url(#B)"/><path d="M49.84 62.66a.35.35 0 0 0-.45.23s-.7 1.94-.94 2.45c-.08.19 0 .41.2.49.2.08.43 0 .5-.2 0 0 .76-1.95.93-2.5a.38.38 0 0 0-.24-.47Z" fill="url(#C)"/><path d="M48.54 63.27a.36.36 0 0 0-.46.2s-.8 1.9-1.06 2.4c-.1.2-.02.41.17.5.2.1.43.02.52-.17 0 0 .86-1.91 1.05-2.45a.38.38 0 0 0-.22-.48Z" fill="url(#D)"/><path d="M47.22 63.81a.35.35 0 0 0-.47.18s-.9 1.86-1.18 2.35c-.1.18-.04.4.15.5.19.1.43.04.53-.14 0 0 .95-1.87 1.16-2.4a.4.4 0 0 0-.19-.49Z" fill="url(#E)"/><path d="M45.87 64.29a.35.35 0 0 0-.48.15s-.99 1.81-1.3 2.29c-.1.17-.05.4.13.51.18.11.43.05.54-.12 0 0 1.04-1.81 1.28-2.33a.39.39 0 0 0-.17-.5Z" fill="url(#F)"/><path d="M44.5 64.7a.36.36 0 0 0-.49.13s-1.08 1.76-1.4 2.21c-.13.17-.09.4.09.52a.4.4 0 0 0 .54-.1s1.13-1.75 1.4-2.25c.1-.18.03-.4-.14-.51Z" fill="url(#G)"/><path d="M43.11 65.04a.36.36 0 0 0-.5.1s-1.16 1.7-1.51 2.14c-.13.17-.1.4.07.53.17.12.41.1.54-.07 0 0 1.22-1.7 1.51-2.19.11-.17.06-.4-.1-.51Z" fill="url(#H)"/><path d="M41.7 65.3a.36.36 0 0 0-.5.09s-1.24 1.64-1.62 2.06c-.13.16-.11.4.05.53a.4.4 0 0 0 .55-.05s1.3-1.63 1.61-2.1a.38.38 0 0 0-.08-.52Z" fill="url(#I)"/><path d="M40.29 65.5c-.15-.13-.38-.1-.5.06 0 0-1.33 1.58-1.73 1.98a.37.37 0 0 0 .02.53c.16.14.4.13.55-.02 0 0 1.38-1.57 1.72-2.02.12-.17.1-.4-.06-.53Z" fill="url(#J)"/><path d="M38.86 65.63c-.14-.14-.37-.11-.5.03 0 0-1.4 1.51-1.82 1.9a.37.37 0 0 0 0 .52c.14.15.39.16.54.01 0 0 1.45-1.5 1.82-1.93a.38.38 0 0 0-.04-.53Z" fill="url(#K)"/><path d="M37.44 66.21a.38.38 0 0 0 0-.53.35.35 0 0 0-.51.01s-1.48 1.44-1.91 1.8a.37.37 0 0 0-.03.53c.14.15.38.18.54.04 0 0 1.53-1.43 1.91-1.85Z" fill="url(#L)"/><path d="M36 65.67a.35.35 0 0 0-.5-.02s-1.55 1.37-2 1.7a.36.36 0 0 0-.06.53c.14.17.38.2.55.06 0 0 1.6-1.35 2-1.75a.38.38 0 0 0 .01-.52Z" fill="url(#M)"/><path d="M34.57 65.59a.35.35 0 0 0-.5-.04s-1.62 1.29-2.08 1.6a.37.37 0 0 0-.09.52c.13.17.37.22.54.09 0 0 1.66-1.27 2.09-1.65a.38.38 0 0 0 .04-.52Z" fill="url(#N)"/><path d="M33.15 65.43a.35.35 0 0 0-.5-.06s-1.68 1.2-2.16 1.5a.37.37 0 0 0-.1.51c.1.18.35.24.53.12 0 0 1.72-1.19 2.16-1.55a.38.38 0 0 0 .07-.52Z" fill="url(#O)"/><path d="M31.74 65.2a.35.35 0 0 0-.5-.08s-1.73 1.12-2.23 1.38a.36.36 0 0 0-.13.51c.1.19.34.26.53.15 0 0 1.78-1.1 2.23-1.43.17-.12.2-.36.1-.53Z" fill="url(#P)"/><path d="M30.34 64.9a.35.35 0 0 0-.5-.1s-1.78 1.03-2.29 1.27a.37.37 0 0 0-.16.5c.1.19.33.27.52.17 0 0 1.83-1 2.3-1.31a.39.39 0 0 0 .13-.52Z" fill="url(#Q)"/><path d="M28.96 64.54a.35.35 0 0 0-.49-.13s-1.84.94-2.36 1.15a.37.37 0 0 0-.18.5c.09.19.31.28.5.19 0 0 1.89-.92 2.38-1.2.18-.1.24-.33.15-.5Z" fill="url(#R)"/><path d="M27.6 64.1a.35.35 0 0 0-.49-.15s-1.88.84-2.4 1.03c-.2.07-.3.29-.22.49.08.19.3.3.5.22 0 0 1.93-.82 2.43-1.08.18-.1.26-.32.17-.5Z" fill="url(#S)"/><path d="M26.06 64.1c.18-.09.27-.3.2-.5a.35.35 0 0 0-.48-.18s-1.92.75-2.46.91c-.2.07-.3.28-.23.48.07.2.29.31.49.24 0 0 1.96-.72 2.48-.95Z" fill="url(#T)"/><path d="M24.72 63.52c.2-.08.29-.3.22-.48-.06-.2-.27-.28-.46-.22 0 0-1.95.66-2.5.8a.37.37 0 0 0-.26.46c.06.2.27.32.48.27 0 0 2-.62 2.52-.83Z" fill="url(#U)"/><path d="M23.41 62.87c.2-.06.3-.27.25-.47a.36.36 0 0 0-.45-.23s-1.98.55-2.53.66a.37.37 0 0 0-.29.45c.05.2.26.34.47.3 0 0 2.02-.52 2.55-.7Z" fill="url(#V)"/><path d="M22.14 62.16c.2-.05.32-.26.27-.45a.36.36 0 0 0-.44-.26s-2 .45-2.56.54a.37.37 0 0 0-.3.43c.03.2.23.35.44.32 0 0 2.04-.42 2.59-.58Z" fill="url(#W)"/><path d="M20.9 61.39c.2-.05.33-.24.3-.44a.36.36 0 0 0-.42-.28s-2.03.35-2.6.4c-.2.03-.35.22-.32.42.03.21.22.37.43.34a41.1 41.1 0 0 0 2.62-.44Z" fill="url(#X)"/><path d="M19.7 60.56c.21-.04.35-.23.32-.43a.36.36 0 0 0-.4-.3s-2.05.25-2.61.28a.37.37 0 0 0-.35.4c.02.2.2.37.41.36.32-.02 2.08-.21 2.64-.31Z" fill="url(#Y)"/><path d="M18.56 59.67c.2-.03.35-.21.33-.41a.36.36 0 0 0-.39-.33s-2.05.15-2.62.16c-.21 0-.37.17-.37.38.01.2.2.38.4.38.32 0 2.09-.12 2.65-.18Z" fill="url(#Z)"/><path d="M17.45 58.72c.2-.02.36-.2.35-.4a.35.35 0 0 0-.37-.34s-2.05.04-2.62.02c-.21 0-.39.16-.39.37 0 .2.17.39.38.4.32 0 2.1-.01 2.65-.05Z" fill="url(#aa)"/><path d="M16.4 57.72c.2-.01.36-.18.36-.38s-.14-.37-.35-.36c0 0-2.05-.07-2.62-.11a.37.37 0 0 0-.4.34c-.02.21.15.4.36.42.31.03 2.08.1 2.64.09Z" fill="url(#ab)"/><path d="M15.38 56.66c.2 0 .38-.15.4-.35a.35.35 0 0 0-.34-.39s-2.05-.16-2.62-.23a.37.37 0 0 0-.41.32c-.03.21.13.4.33.43.32.05 2.09.2 2.64.22Z" fill="url(#ac)"/><path d="M14.43 55.56c.2.02.38-.13.4-.33a.35.35 0 0 0-.3-.4s-2.04-.27-2.61-.37c-.2-.04-.4.1-.44.3-.03.21.12.41.32.45.32.06 2.08.3 2.63.35Z" fill="url(#ad)"/><path d="M13.53 54.41c.2.03.39-.11.42-.31a.35.35 0 0 0-.29-.41s-2.02-.37-2.58-.5a.36.36 0 0 0-.45.28c-.04.2.1.42.3.47.31.06 2.05.4 2.6.47Z" fill="url(#ae)"/><path d="M12.7 53.22c.19.04.38-.1.43-.3a.35.35 0 0 0-.27-.42s-2-.46-2.56-.62a.37.37 0 0 0-.46.26.4.4 0 0 0 .27.47s2.04.5 2.58.61Z" fill="url(#af)"/><path d="M11.91 51.99c.2.05.4-.08.46-.27a.35.35 0 0 0-.26-.44s-1.97-.56-2.52-.75a.37.37 0 0 0-.47.24.4.4 0 0 0 .25.48s2 .6 2.54.74Z" fill="url(#ag)"/><path d="M11.2 50.72c.2.06.4-.05.46-.25a.35.35 0 0 0-.23-.45s-1.94-.66-2.48-.87a.37.37 0 0 0-.48.21.4.4 0 0 0 .22.5s1.98.7 2.5.86Z" fill="url(#ah)"/><path d="M10.54 49.42c.2.07.4-.04.48-.23a.35.35 0 0 0-.2-.46s-1.92-.75-2.44-1a.37.37 0 0 0-.5.2.4.4 0 0 0 .2.5s1.94.8 2.46.99Z" fill="url(#ai)"/><path d="M9.96 48.08c.18.08.4-.01.48-.2.09-.18 0-.39-.18-.47 0 0-1.87-.85-2.38-1.11a.37.37 0 0 0-.5.16.4.4 0 0 0 .17.52s1.9.9 2.4 1.1Z" fill="url(#aj)"/><path d="M9.44 46.72c.18.09.4 0 .5-.17.09-.18.02-.4-.17-.48 0 0-1.82-.94-2.32-1.23a.36.36 0 0 0-.51.13.4.4 0 0 0 .15.53s1.85.99 2.35 1.22Z" fill="url(#ak)"/><path d="M8.99 45.34c.18.1.4.02.5-.15.1-.18.05-.4-.13-.49 0 0-1.78-1.04-2.26-1.35a.37.37 0 0 0-.52.11.4.4 0 0 0 .13.54s1.79 1.08 2.28 1.34Z" fill="url(#al)"/><path d="M8.6 43.93c.18.1.41.05.52-.12a.35.35 0 0 0-.11-.5s-1.72-1.12-2.19-1.46a.37.37 0 0 0-.52.09.4.4 0 0 0 .1.54s1.73 1.17 2.2 1.45Z" fill="url(#am)"/><path d="M8.3 42.5c.17.12.4.07.52-.09a.35.35 0 0 0-.09-.5s-1.66-1.2-2.1-1.57a.37.37 0 0 0-.53.06.4.4 0 0 0 .07.55S7.84 42.2 8.3 42.5Z" fill="url(#an)"/><path d="M8.06 41.07c.17.12.4.08.53-.07a.35.35 0 0 0-.07-.5s-1.6-1.3-2.03-1.68a.37.37 0 0 0-.53.03.4.4 0 0 0 .04.55s1.62 1.34 2.06 1.67Z" fill="url(#ao)"/><path d="M7.9 39.62c.15.13.39.1.52-.05a.35.35 0 0 0-.03-.5S6.85 37.7 6.44 37.3a.37.37 0 0 0-.53 0 .4.4 0 0 0 .02.55s1.54 1.42 1.97 1.77Z" fill="url(#ap)"/><path d="M7.8 38.17c.16.13.4.12.53-.02a.35.35 0 0 0 0-.5s-1.48-1.45-1.86-1.87a.37.37 0 0 0-.53-.02.4.4 0 0 0-.02.54s1.47 1.5 1.88 1.87Z" fill="url(#aq)"/><path d="M7.78 36.71c.14.14.38.14.53 0a.35.35 0 0 0 .01-.5s-1.39-1.51-1.76-1.95a.37.37 0 0 0-.53-.05.4.4 0 0 0-.04.55s1.4 1.56 1.8 1.95Z" fill="url(#ar)"/><path d="M7.83 35.25c.14.15.37.16.53.03a.35.35 0 0 0 .04-.5s-1.32-1.58-1.67-2.04a.37.37 0 0 0-.52-.07.4.4 0 0 0-.07.54s1.32 1.63 1.69 2.04Z" fill="url(#as)"/><path d="M7.95 33.8c.13.16.36.18.53.06a.35.35 0 0 0 .06-.5s-1.23-1.64-1.56-2.12a.37.37 0 0 0-.52-.1.4.4 0 0 0-.1.54s1.24 1.7 1.6 2.12Z" fill="url(#at)"/><path d="M8.15 32.36c.11.16.35.2.52.08.17-.11.2-.33.09-.5 0 0-1.16-1.7-1.45-2.19a.37.37 0 0 0-.52-.13.4.4 0 0 0-.12.54s1.15 1.75 1.48 2.2Z" fill="url(#au)"/><path d="M8.41 30.92c.11.17.34.22.52.11.17-.1.22-.32.11-.5 0 0-1.06-1.75-1.34-2.25a.37.37 0 0 0-.5-.15.4.4 0 0 0-.15.52s1.06 1.81 1.36 2.27Z" fill="url(#av)"/><path d="M8.75 29.5c.1.18.33.24.5.14.19-.1.25-.31.15-.49 0 0-.98-1.8-1.23-2.32a.37.37 0 0 0-.5-.18.4.4 0 0 0-.17.52s.97 1.86 1.25 2.34Z" fill="url(#aw)"/><path d="M9.16 28.1c.09.19.32.26.5.17s.25-.3.16-.48c0 0-.88-1.85-1.1-2.39a.37.37 0 0 0-.5-.2.4.4 0 0 0-.2.51s.88 1.9 1.14 2.4Z" fill="url(#ax)"/><path d="M9.63 26.73c.09.19.3.27.5.19a.35.35 0 0 0 .18-.47s-.79-1.9-.98-2.44a.37.37 0 0 0-.48-.23.4.4 0 0 0-.23.5s.78 1.95 1.01 2.45Z" fill="url(#ay)"/><path d="M10.18 25.38c.07.19.3.28.48.21.2-.07.29-.27.21-.46 0 0-.63-1.72-.86-2.48a.37.37 0 0 0-.47-.25.4.4 0 0 0-.25.49s.68 1.98.89 2.5Z" fill="url(#az)"/><path d="M10.8 24.06c.06.2.27.3.47.23.2-.06.3-.26.23-.45 0 0-.6-1.97-.74-2.53a.37.37 0 0 0-.45-.27.4.4 0 0 0-.28.48s.58 2.01.76 2.54Z" fill="url(#aA)"/><path d="M11.47 22.77c.06.2.27.3.46.26.2-.05.31-.25.26-.44 0 0-.5-2-.62-2.56a.37.37 0 0 0-.43-.3.4.4 0 0 0-.3.47s.48 2.04.63 2.57Z" fill="url(#aB)"/><path d="M12.22 21.52c.04.2.24.32.44.28.2-.04.32-.23.28-.43-.07-.3-.4-2.02-.48-2.59a.37.37 0 0 0-.43-.31.4.4 0 0 0-.32.45s.38 2.06.5 2.6Z" fill="url(#aC)"/><path d="M13.02 20.3c.04.2.23.33.43.3.2-.03.33-.2.3-.4-.06-.31-.3-2.04-.36-2.61a.37.37 0 0 0-.4-.34.4.4 0 0 0-.34.43s.27 2.08.37 2.62Z" fill="url(#aD)"/><path d="M13.88 19.13c.03.2.22.34.42.32.2-.02.34-.2.31-.4-.04-.3-.2-2.04-.22-2.62 0-.2-.18-.37-.4-.35a.4.4 0 0 0-.35.41s.17 2.09.24 2.64Z" fill="url(#aE)"/><path d="M14.8 18c.02.2.2.35.4.34.2 0 .35-.18.33-.38-.02-.31-.1-2.06-.09-2.63 0-.2-.16-.37-.37-.37a.4.4 0 0 0-.38.4c0-.01.07 2.09.11 2.64Z" fill="url(#aF)"/><path d="M16.16 17.28c.2 0 .36-.16.35-.37-.01-.31 0-2.06.04-2.63a.37.37 0 0 0-.35-.39.39.39 0 0 0-.4.37s-.04 2.1-.02 2.66c0 .2.18.36.38.36Z" fill="url(#aG)"/><path d="M17.17 16.27c.2 0 .36-.15.37-.35 0-.32.1-2.06.17-2.63a.37.37 0 0 0-.34-.4.39.39 0 0 0-.42.34s-.14 2.1-.15 2.65c0 .2.17.37.37.39Z" fill="url(#aH)"/><path d="M18.23 15.3c.2.02.37-.13.38-.33.02-.32.2-2.06.3-2.61.04-.2-.1-.4-.31-.43a.39.39 0 0 0-.44.33s-.25 2.08-.28 2.64c0 .2.15.38.35.4Z" fill="url(#aI)"/><path d="M19.34 14.4c.2.02.37-.12.4-.32.03-.31.3-2.05.42-2.6a.37.37 0 0 0-.29-.43.39.39 0 0 0-.45.3s-.35 2.06-.41 2.62c-.02.2.12.4.33.42Z" fill="url(#aJ)"/><path d="M20.48 13.54c.2.04.38-.1.42-.3 0 0 .4-2.02.56-2.56a.37.37 0 0 0-.27-.45.39.39 0 0 0-.47.28s-.46 2.04-.54 2.6c-.03.2.1.39.3.43Z" fill="url(#aK)"/><path d="M21.67 12.74c.2.05.39-.07.43-.27 0 0 .5-2 .69-2.53a.37.37 0 0 0-.25-.47.39.39 0 0 0-.48.26s-.56 2.01-.67 2.57c-.04.2.09.4.28.44Z" fill="url(#aL)"/><path d="M22.9 12c.2.07.39-.05.44-.24 0 0 .6-1.98.81-2.5a.37.37 0 0 0-.22-.48.39.39 0 0 0-.5.23s-.65 1.99-.79 2.54c-.05.2.07.4.26.46Z" fill="url(#aM)"/><path d="M24.16 11.33c.2.07.39-.03.45-.22 0 0 .7-1.94.94-2.45.08-.2 0-.41-.2-.5a.4.4 0 0 0-.5.21s-.76 1.95-.93 2.5c-.06.19.05.4.24.46Z" fill="url(#aN)"/><path d="M25.46 10.72c.18.08.38-.02.46-.2 0 0 .8-1.9 1.06-2.4.1-.19.02-.4-.17-.5a.4.4 0 0 0-.52.18s-.85 1.9-1.05 2.44c-.07.2.03.4.22.48Z" fill="url(#aO)"/><path d="M26.78 10.18c.18.09.39 0 .47-.18 0 0 .9-1.85 1.18-2.34.1-.18.04-.41-.15-.5a.4.4 0 0 0-.52.14s-.95 1.86-1.17 2.39c-.08.19 0 .4.19.5Z" fill="url(#aP)"/><path d="M28.13 9.7c.17.1.39.02.48-.15 0 0 .99-1.8 1.3-2.28a.37.37 0 0 0-.13-.52.4.4 0 0 0-.53.13s-1.04 1.8-1.29 2.32c-.09.19-.01.41.17.5Z" fill="url(#aQ)"/><path d="M29.5 9.3c.17.1.39.04.49-.13 0 0 1.08-1.76 1.4-2.22a.37.37 0 0 0-.09-.52.4.4 0 0 0-.54.1s-1.13 1.76-1.4 2.26c-.1.18-.03.4.14.5Z" fill="url(#aR)"/><path d="M30.89 8.96c.16.11.38.06.5-.1 0 0 1.16-1.7 1.51-2.15.13-.16.1-.4-.07-.52a.4.4 0 0 0-.55.07s-1.21 1.7-1.5 2.18c-.11.18-.06.4.1.52Z" fill="url(#aS)"/><path d="M32.3 8.7c.15.11.37.07.5-.09 0 0 1.24-1.64 1.62-2.06a.37.37 0 0 0-.05-.53.4.4 0 0 0-.55.04s-1.3 1.64-1.61 2.11c-.12.17-.08.4.08.52Z" fill="url(#aT)"/><path d="M33.71 8.5c.16.12.38.09.5-.06 0 0 1.33-1.58 1.73-1.98a.37.37 0 0 0-.02-.53.4.4 0 0 0-.55.01S34 7.51 33.65 7.97c-.12.16-.1.4.06.52Z" fill="url(#aU)"/><path d="M35.14 8.37c.14.14.37.1.5-.03 0 0 1.4-1.52 1.82-1.9a.37.37 0 0 0 0-.53.39.39 0 0 0-.54 0s-1.45 1.5-1.82 1.93c-.13.16-.11.4.04.53Z" fill="url(#aV)"/><path d="M36.56 7.78a.38.38 0 0 0 0 .53c.15.15.37.13.51 0 0 0 1.48-1.45 1.91-1.8a.37.37 0 0 0 .03-.53c-.14-.16-.38-.19-.54-.04 0 0-1.53 1.42-1.91 1.84Z" fill="url(#aW)"/><path d="M38 8.33c.13.15.36.15.5.01 0 0 1.55-1.37 2-1.7.16-.13.2-.36.06-.53a.39.39 0 0 0-.55-.06s-1.59 1.35-2 1.75a.38.38 0 0 0-.01.53Z" fill="url(#aX)"/><path d="M39.43 8.41c.13.16.35.17.5.04 0 0 1.62-1.29 2.08-1.6a.37.37 0 0 0 .09-.53.39.39 0 0 0-.54-.08S39.9 7.5 39.47 7.88a.38.38 0 0 0-.04.53Z" fill="url(#aY)"/><path d="M40.85 8.56c.12.17.34.2.5.07 0 0 1.68-1.21 2.16-1.5.17-.1.23-.34.1-.52a.39.39 0 0 0-.53-.11s-1.72 1.19-2.16 1.54a.38.38 0 0 0-.07.52Z" fill="url(#aZ)"/><path d="M42.26 8.79c.11.17.33.2.5.09 0 0 1.73-1.12 2.23-1.39.18-.1.24-.33.14-.5a.39.39 0 0 0-.54-.15s-1.77 1.1-2.23 1.43a.39.39 0 0 0-.1.52Z" fill="url(#ba)"/><path d="M43.66 9.09c.1.17.32.22.5.11 0 0 1.78-1.03 2.29-1.27.18-.1.26-.32.16-.5a.39.39 0 0 0-.52-.18s-1.83 1.01-2.3 1.32a.39.39 0 0 0-.13.52Z" fill="url(#bb)"/><path d="M45.04 9.45c.1.18.31.24.49.14 0 0 1.84-.94 2.36-1.16.19-.08.27-.3.18-.49a.39.39 0 0 0-.51-.2s-1.88.92-2.37 1.2a.38.38 0 0 0-.15.51Z" fill="url(#bc)"/><path d="M46.4 9.89c.1.18.3.25.49.16 0 0 1.88-.85 2.4-1.04.2-.07.3-.28.22-.48-.08-.2-.3-.3-.5-.22 0 0-1.93.82-2.43 1.08a.38.38 0 0 0-.17.5Z" fill="url(#bd)"/><path d="M47.94 9.9a.38.38 0 0 0-.2.49c.08.19.29.26.48.19 0 0 1.92-.75 2.46-.92.2-.06.3-.27.23-.47a.4.4 0 0 0-.49-.25s-1.96.72-2.48.96Z" fill="url(#be)"/><path d="M49.28 10.48a.39.39 0 0 0-.22.48c.06.19.27.28.46.21 0 0 1.95-.65 2.5-.79.2-.05.32-.26.26-.46a.4.4 0 0 0-.48-.27s-2 .62-2.52.83Z" fill="url(#bf)"/><path d="M50.59 11.12c-.2.07-.3.28-.25.47.06.2.26.3.45.24 0 0 1.98-.56 2.54-.67.2-.04.33-.24.28-.45a.4.4 0 0 0-.46-.3s-2.03.53-2.56.71Z" fill="url(#bg)"/><path d="M51.86 11.83a.38.38 0 0 0-.27.46c.05.2.24.3.44.26 0 0 2-.46 2.56-.54.2-.03.35-.23.3-.43a.4.4 0 0 0-.44-.32s-2.04.42-2.59.57Z" fill="url(#bh)"/><path d="M53.1 12.6a.39.39 0 0 0-.3.45c.04.2.23.31.42.28 0 0 2.03-.35 2.6-.41.2-.03.35-.2.32-.42a.4.4 0 0 0-.43-.34c-.31.04-2.06.31-2.62.45Z" fill="url(#bi)"/><path d="M54.3 13.44a.38.38 0 0 0-.32.43c.03.2.2.33.4.3 0 0 2.05-.25 2.61-.28.21-.02.37-.2.35-.4a.4.4 0 0 0-.41-.36c-.32.01-2.08.2-2.64.3Z" fill="url(#bj)"/><path d="M55.44 14.33a.38.38 0 0 0-.33.41c.02.2.19.35.39.32 0 0 2.05-.14 2.62-.15.21 0 .37-.17.37-.38a.4.4 0 0 0-.4-.38c-.32 0-2.09.11-2.65.18Z" fill="url(#bk)"/><path d="M56.57 16.02s2.05-.05 2.62-.03c.21.01.39-.15.39-.36a.4.4 0 0 0-.38-.4c-.32-.01-2.09.01-2.65.05-.2.01-.36.2-.35.4 0 .19.17.35.37.34Z" fill="url(#bl)"/><path d="M60.21 17.12c.21.02.4-.13.4-.34a.4.4 0 0 0-.35-.41c-.32-.03-2.1-.1-2.65-.1-.2.01-.37.18-.37.38s.14.37.35.37c0 0 2.05.06 2.62.1Z" fill="url(#bm)"/><path d="M61.18 18.3c.2.03.4-.1.41-.32a.4.4 0 0 0-.33-.43c-.32-.04-2.09-.2-2.64-.22-.2 0-.38.16-.4.36 0 .2.14.37.34.38 0 0 2.05.16 2.62.24Z" fill="url(#bn)"/><path d="M59.57 18.43a.38.38 0 0 0-.4.34c-.03.2.1.38.3.4 0 0 2.04.26 2.61.36.2.04.4-.1.43-.3a.4.4 0 0 0-.31-.45c-.32-.05-2.08-.3-2.63-.35Z" fill="url(#bo)"/><path d="M60.47 19.58a.38.38 0 0 0-.42.32c-.04.2.1.38.29.4 0 0 2.02.37 2.58.5.2.05.41-.07.45-.28a.4.4 0 0 0-.3-.46c-.31-.07-2.05-.4-2.6-.48Z" fill="url(#bp)"/><path d="M61.31 20.77c-.2-.04-.4.1-.44.3-.05.2.07.38.27.42 0 0 2 .47 2.56.62.2.06.4-.05.46-.25a.4.4 0 0 0-.27-.48s-2.04-.5-2.58-.6Z" fill="url(#bq)"/><path d="M62.09 22a.38.38 0 0 0-.45.28c-.06.2.05.39.25.44 0 0 1.98.56 2.52.74.2.07.41-.03.48-.23a.4.4 0 0 0-.25-.49s-2.01-.6-2.55-.73Z" fill="url(#br)"/><path d="M62.8 23.27a.39.39 0 0 0-.46.25c-.07.2.04.4.23.45 0 0 1.94.66 2.48.88.2.07.41-.02.48-.21a.4.4 0 0 0-.22-.5s-1.97-.7-2.5-.87Z" fill="url(#bs)"/><path d="M63.46 24.58a.38.38 0 0 0-.48.22c-.08.2.02.4.2.46 0 0 1.92.76 2.44 1 .2.09.42 0 .5-.19a.4.4 0 0 0-.2-.5s-1.94-.8-2.46-1Z" fill="url(#bt)"/><path d="M64.04 25.91a.38.38 0 0 0-.48.2c-.09.19 0 .4.18.47 0 0 1.87.85 2.38 1.12.19.1.42.03.5-.16a.4.4 0 0 0-.17-.52s-1.9-.9-2.4-1.1Z" fill="url(#bu)"/><path d="M64.56 27.27a.39.39 0 0 0-.5.18c-.1.18-.02.4.17.48 0 0 1.82.94 2.32 1.23.18.1.4.05.5-.13a.4.4 0 0 0-.14-.53s-1.85-1-2.35-1.23Z" fill="url(#bv)"/><path d="M65.01 28.66a.38.38 0 0 0-.5.15c-.1.17-.05.39.13.48 0 0 1.78 1.04 2.26 1.35.18.12.41.07.52-.1a.4.4 0 0 0-.12-.54s-1.8-1.08-2.29-1.34Z" fill="url(#bw)"/><path d="M65.4 30.07a.38.38 0 0 0-.52.12.35.35 0 0 0 .11.5s1.72 1.12 2.19 1.46c.17.12.4.08.52-.09a.4.4 0 0 0-.1-.54s-1.73-1.17-2.2-1.45Z" fill="url(#bx)"/><path d="M65.7 31.49a.39.39 0 0 0-.52.1.35.35 0 0 0 .09.5s1.66 1.2 2.11 1.56c.16.13.4.11.53-.06a.4.4 0 0 0-.07-.54s-1.68-1.25-2.14-1.56Z" fill="url(#by)"/><path d="M65.94 32.93a.38.38 0 0 0-.53.07c-.12.16-.1.38.07.5 0 0 1.6 1.3 2.03 1.67.16.14.4.13.53-.03a.4.4 0 0 0-.04-.54s-1.62-1.34-2.06-1.67Z" fill="url(#bz)"/><path d="M66.1 34.37a.38.38 0 0 0-.52.05.35.35 0 0 0 .03.5s1.54 1.37 1.95 1.78c.15.14.38.14.53 0a.4.4 0 0 0-.02-.56s-1.54-1.41-1.97-1.77Z" fill="url(#bA)"/><path d="M16.02 39.68a1.4 1.4 0 1 0 0-2.8 1.4 1.4 0 0 0 0 2.8Z" fill="#000"/><path d="M16.07 39.73a1.4 1.4 0 1 0 0-2.8 1.4 1.4 0 0 0 0 2.8Z" fill="#171717"/><path d="M17.51 38.42a1.4 1.4 0 1 0-2.8-.09 1.4 1.4 0 0 0 2.8.09Z" fill="#2E2E2E"/><path d="M17.56 38.45a1.4 1.4 0 1 0-2.8-.05 1.4 1.4 0 0 0 2.8.05Z" fill="#464646"/><path d="M17.6 38.5a1.4 1.4 0 1 0-2.79-.04 1.4 1.4 0 0 0 2.8.03Z" fill="#5D5D5D"/><path d="M17.65 38.54a1.4 1.4 0 1 0-2.79-.03 1.4 1.4 0 0 0 2.8.03Z" fill="#747474"/><path d="M17.7 38.58a1.4 1.4 0 1 0-2.79-.02 1.4 1.4 0 0 0 2.8.02Z" fill="#8B8B8B"/><path d="M17.75 38.63a1.4 1.4 0 1 0-2.79-.02 1.4 1.4 0 0 0 2.8.02Z" fill="#A2A2A2"/><path d="M17.8 38.68a1.4 1.4 0 1 0-2.8-.02 1.4 1.4 0 0 0 2.8.02Z" fill="#B9B9B9"/><path d="M17.85 38.72a1.4 1.4 0 1 0-2.8-.01 1.4 1.4 0 0 0 2.8.01Z" fill="#D1D1D1"/><path d="M17.9 38.77a1.4 1.4 0 1 0-2.8-.02 1.4 1.4 0 0 0 2.8.02Z" fill="#E8E8E8"/><path d="M17.95 38.82a1.4 1.4 0 1 0-2.8-.02 1.4 1.4 0 0 0 2.8.02Z" fill="#fff"/><path d="M16.02 39.68a1.4 1.4 0 1 0 0-2.8 1.4 1.4 0 0 0 0 2.8Z" fill="#000"/><path d="M16.07 39.73a1.4 1.4 0 1 0 0-2.8 1.4 1.4 0 0 0 0 2.8Z" fill="#171717"/><path d="M17.51 38.42a1.4 1.4 0 1 0-2.8-.09 1.4 1.4 0 0 0 2.8.09Z" fill="#2E2E2E"/><path d="M17.56 38.45a1.4 1.4 0 1 0-2.8-.05 1.4 1.4 0 0 0 2.8.05Z" fill="#464646"/><path d="M17.6 38.5a1.4 1.4 0 1 0-2.79-.04 1.4 1.4 0 0 0 2.8.03Z" fill="#5D5D5D"/><path d="M17.65 38.54a1.4 1.4 0 1 0-2.79-.03 1.4 1.4 0 0 0 2.8.03Z" fill="#747474"/><path d="M17.7 38.58a1.4 1.4 0 1 0-2.79-.02 1.4 1.4 0 0 0 2.8.02Z" fill="#8B8B8B"/><path d="M17.75 38.63a1.4 1.4 0 1 0-2.79-.02 1.4 1.4 0 0 0 2.8.02Z" fill="#A2A2A2"/><path d="M17.8 38.68a1.4 1.4 0 1 0-2.8-.02 1.4 1.4 0 0 0 2.8.02Z" fill="#B9B9B9"/><path d="M17.85 38.72a1.4 1.4 0 1 0-2.8-.01 1.4 1.4 0 0 0 2.8.01Z" fill="#D1D1D1"/><path d="M17.9 38.77a1.4 1.4 0 1 0-2.8-.02 1.4 1.4 0 0 0 2.8.02Z" fill="#E8E8E8"/><path d="M17.95 38.82a1.4 1.4 0 1 0-2.8-.02 1.4 1.4 0 0 0 2.8.02Z" fill="#fff"/><path d="M57.98 36.88a1.4 1.4 0 1 0 0 2.8 1.4 1.4 0 0 0 0-2.8Z" fill="#000"/><path d="M58.03 36.93a1.4 1.4 0 1 0 0 2.8 1.4 1.4 0 0 0 0-2.8Z" fill="#171717"/><path d="M58.08 36.98a1.4 1.4 0 1 0 0 2.8 1.4 1.4 0 0 0 0-2.8Z" fill="#2E2E2E"/><path d="M58.13 37.03a1.4 1.4 0 1 0 0 2.8 1.4 1.4 0 0 0 0-2.8Z" fill="#464646"/><path d="M58.17 37.08a1.4 1.4 0 1 0 0 2.8 1.4 1.4 0 0 0 0-2.8Z" fill="#5D5D5D"/><path d="M58.22 37.12a1.4 1.4 0 1 0 0 2.8 1.4 1.4 0 0 0 0-2.8Z" fill="#747474"/><path d="M58.27 37.17a1.4 1.4 0 1 0 0 2.8 1.4 1.4 0 0 0 0-2.8Z" fill="#8B8B8B"/><path d="M58.32 37.22a1.4 1.4 0 1 0 0 2.8 1.4 1.4 0 0 0 0-2.8Z" fill="#A2A2A2"/><path d="M58.37 37.27a1.4 1.4 0 1 0 0 2.8 1.4 1.4 0 0 0 0-2.8Z" fill="#B9B9B9"/><path d="M58.42 37.32a1.4 1.4 0 1 0 0 2.8 1.4 1.4 0 0 0 0-2.8Z" fill="#D1D1D1"/><path d="M58.46 37.37a1.4 1.4 0 1 0 0 2.79 1.4 1.4 0 0 0 0-2.8Z" fill="#E8E8E8"/><path d="M58.51 37.41a1.4 1.4 0 1 0 0 2.8 1.4 1.4 0 0 0 0-2.8Z" fill="#fff"/><path d="M57.98 36.88a1.4 1.4 0 1 0 0 2.8 1.4 1.4 0 0 0 0-2.8Z" fill="#000"/><path d="M58.03 36.93a1.4 1.4 0 1 0 0 2.8 1.4 1.4 0 0 0 0-2.8Z" fill="#171717"/><path d="M58.08 36.98a1.4 1.4 0 1 0 0 2.8 1.4 1.4 0 0 0 0-2.8Z" fill="#2E2E2E"/><path d="M58.13 37.03a1.4 1.4 0 1 0 0 2.8 1.4 1.4 0 0 0 0-2.8Z" fill="#464646"/><path d="M58.17 37.08a1.4 1.4 0 1 0 0 2.8 1.4 1.4 0 0 0 0-2.8Z" fill="#5D5D5D"/><path d="M58.22 37.12a1.4 1.4 0 1 0 0 2.8 1.4 1.4 0 0 0 0-2.8Z" fill="#747474"/><path d="M58.27 37.17a1.4 1.4 0 1 0 0 2.8 1.4 1.4 0 0 0 0-2.8Z" fill="#8B8B8B"/><path d="M58.32 37.22a1.4 1.4 0 1 0 0 2.8 1.4 1.4 0 0 0 0-2.8Z" fill="#A2A2A2"/><path d="M58.37 37.27a1.4 1.4 0 1 0 0 2.8 1.4 1.4 0 0 0 0-2.8Z" fill="#B9B9B9"/><path d="M58.42 37.32a1.4 1.4 0 1 0 0 2.8 1.4 1.4 0 0 0 0-2.8Z" fill="#D1D1D1"/><path d="M58.46 37.37a1.4 1.4 0 1 0 0 2.79 1.4 1.4 0 0 0 0-2.8Z" fill="#E8E8E8"/><path d="M58.51 37.41a1.4 1.4 0 1 0 0 2.8 1.4 1.4 0 0 0 0-2.8Z" fill="#fff"/><path d="M37 11.21A25.82 25.82 0 0 0 11.22 37 25.82 25.82 0 0 0 37 62.78 25.82 25.82 0 0 0 62.8 37 25.82 25.82 0 0 0 37 11.2ZM16.02 40.05a1.77 1.77 0 1 1 0-3.54 1.77 1.77 0 0 1 0 3.54ZM37 53.25a16.26 16.26 0 1 1 0-32.5 16.26 16.26 0 0 1 0 32.5Zm20.98-13.2a1.77 1.77 0 1 1 0-3.54 1.77 1.77 0 0 1 0 3.54Z" fill="url(#bB)"/><path d="m25.08 19.37.26-.17-.5-.25.24.42Z" fill="url(#bC)"/><path d="M20.8 53.53c.47.45 1.06.44 1.55-.06l.35-.36a21.1 21.1 0 0 1-1.52-1.47l-.34.35c-.5.5-.5 1.08-.04 1.54Z" fill="url(#bD)"/><path d="m26.7 56.55.13-.62c-.33-.17-.66-.35-.98-.54l-.46.4 1.32.76Z" fill="url(#bE)"/><path d="M20.2 21.18a1 1 0 0 0-.3.79c.03.36.36.73.82 1.17.47-.53.96-1.04 1.48-1.52-.64-.6-.91-.76-1.25-.77a1 1 0 0 0-.76.33Z" fill="url(#bF)"/><path d="m49 19.9.77.59.46-1.43-1.23.85Z" fill="url(#bG)"/><path d="m18.54 26.1.04-.06-.15-.08.1.14Z" fill="url(#bH)"/><path d="m17.13 28.83.03-.06h-.14l.11.06Z" fill="url(#bI)"/><path d="M16.85 47.77c-.09.27-.05.54.11.82.33.58.93.7 1.56.34l.18-.1-.54-.94.16-.09c-.18-.3-.34-.6-.5-.92-.65.39-.87.6-.97.89Z" fill="url(#bJ)"/><path d="M37 10.84a26.16 26.16 0 1 0 0 52.32 26.16 26.16 0 0 0 0-52.32Zm19.63 35.38-1.2 2.09 1.29.73 1.4-2.45.93.53-2 3.48-2.81-1.6c-.34.5-.7.98-1.08 1.44l.47.47-1.68 1.71L53 53.66l1.98-2.02.76.75-2.81 2.87-2.26-2.22c-.72.64-1.48 1.23-2.28 1.76l1.57 2.6-1.02.61-1.56-2.58c-.8.47-1.63.9-2.5 1.26l.83 2.97-1.03.29-2.59-2.31-.52.13.78 2.82-1.15.31-.8-2.9a22 22 0 0 1-1.71.25l1.02 2.95-1.24-.02-.34-1.09-2.17-.03-.39 1.07-1.24-.02 1.08-2.8c-.84-.05-1.66-.15-2.46-.3-.1.04-.22.06-.4.08l.64 2.9-1.33-.36-.53-2.66-.82-.22-.63 2.35-1.15-.3.72-2.71c-.55-.2-1.09-.42-1.61-.66l-.5 2.88-1.08-.62.23-1.12-1.88-1.08-.86.76-1.08-.62 2.2-1.86c-.43-.28-.84-.59-1.25-.9l-.46.46c-.87.89-2.17.87-3.1-.04-.93-.92-.97-2.22-.1-3.1l.43-.45c-.29-.33-.56-.68-.82-1.04l-.16.1c-.8.46-1.31.58-1.9.45a2.3 2.3 0 0 1-1.46-1.12 2.27 2.27 0 0 1-.25-1.77c.1-.38.34-.75.61-.96.16-.12.45-.33.89-.6a21.04 21.04 0 0 1-1.71-6.2 1.4 1.4 0 0 1-.14-2.59c.01-2.48.45-4.86 1.25-7.07L14.2 28.7l.53-1.05 2.92.04.3-.57-1.8-2.31.53-1.05 2.55 1.27c.23-.33.48-.65.72-.97-.89-.84-1.16-1.27-1.18-1.94-.03-.61.2-1.18.64-1.66.45-.48 1-.73 1.62-.74.61-.02 1.16.25 1.88.93l.18.18c.33-.27.66-.53 1-.78l-1.5-2.5.91-.55 3.04 1.49c.17-.1.34-.18.52-.27l-1.49-2.46 1.02-.62 1.55 2.57c.44-.2.89-.37 1.35-.54l-.8-2.87 3.87-1.08.28 1.03-2.72.76.38 1.37 2.32-.64.15.51c.9-.15 1.82-.26 2.75-.3l-1.6-3 1.3-.02 1.19 2.44 1.07-2.48 1.3-.02-1.5 3.08c1.76.07 3.47.35 5.1.83l1.17-3 2.28.88c1.07.42 1.52 1.3 1.15 2.25-.2.54-.6.85-1.17.93.16.18.22.28.29.42.58.3 1.16.63 1.7.98l2.9-1.92.75.56-.99 3.35c.4.35.77.7 1.14 1.08l.2-.17.2-.16c.93-.78 1.39-1 2.06-.93.61.05 1.15.34 1.57.84a2.19 2.19 0 0 1 .53 1.75l-1.1-.1c.03-.47-.02-.7-.25-.97a.97.97 0 0 0-.73-.38c-.45-.02-.94.38-1.39.75l-.25.21-.04.03c.84.95 1.59 1.98 2.24 3.07l3.05-1.44.5 1.08-2.4 1.13 3.32.81.62 1.31-3.06-.8-.57.84a21.14 21.14 0 0 1 1.55 7.71h.13a1.4 1.4 0 1 1-.28 2.76 21.08 21.08 0 0 1-1.72 6.2l.64.37Z" fill="url(#bK)"/><path d="m45.57 15.62-1.1-.42-.5 1.3 1.09.43c.45.17.83.03.99-.37.15-.4-.03-.76-.48-.94Z" fill="url(#bL)"/><path d="m37.83 59.08-.24-.76-.94.02h-.08l-.26.72 1.52.02Z" fill="url(#bM)"/><path d="m43.76 57.12-.35.12.51.46-.16-.58Z" fill="url(#bN)"/><path d="m17.95 27.12-.29.57.74.01-.45-.58Z" fill="url(#bO)"/><path d="m32.26 55.53-1.08-.3-.42 1.56 1.09.3c.5.12.92-.1 1.04-.56.12-.47-.13-.87-.63-1Z" fill="url(#bP)"/><path d="m27.16 54.25-1.3 1.14c.31.19.64.37.97.54l.33-1.68Z" fill="url(#bQ)"/><path d="m48.3 20.39 1.21.9.26-.8c-.25-.2-.5-.4-.77-.59l-.7.49Z" fill="url(#bR)"/><path d="m20.72 23.14.17.16c.54.5 1.05 1.03 1.5 1.02.3-.01.56-.11.77-.34.22-.23.32-.5.3-.78-.04-.37-.23-.62-1.13-1.47l-.13-.11c-.52.48-1 .99-1.48 1.52Z" fill="url(#bS)"/><path d="m41.57 57.77.52-.13-.74-.66.22.79Z" fill="url(#bT)"/><path d="m27.06 18.22-.52.27.96.47-.44-.74Z" fill="url(#bU)"/><path d="M56.58 38.28c0-.73.56-1.32 1.27-1.38a21.1 21.1 0 0 0-1.54-7.72l-1.83 2.7-.6-1.26 1.85-2.6-1.19-.31-1.66.78-.5-1.08 2.47-1.16a21.23 21.23 0 0 0-2.24-3.07c-.71.6-.93.85-.98 1.2-.04.28.03.54.24.8.23.27.44.36.9.41l-.1 1.11a2.18 2.18 0 0 1-1.61-.84c-.42-.51-.6-1.1-.54-1.71.07-.78.6-1.27 1.28-1.85-.36-.37-.74-.73-1.13-1.07l-.84 2.87-1-.73.35-1.08L47.43 21l-.94.65-1-.74 2.53-1.68c-.56-.35-1.13-.67-1.72-.98l.03.06c.14.36.12.72-.03 1.12-.39 1-1.3 1.37-2.38.95l-2.37-.92 1.04-2.69a21.11 21.11 0 0 0-5.1-.82l-.28.55.05 2.5-1.18.02-.05-2.5-.3-.57c-.94.04-1.86.14-2.76.3l.14.5-2.31.65.4 1.43 2.72-.76.28 1.02-3.86 1.09-.84-3.01c-.46.16-.91.34-1.35.54l1.6 2.66-.91.55-3.5-1.72-.26.17 1.69 2.8-1.03.6-1.64-2.72c-.34.25-.67.5-1 .77l.13.12c.63.6 1.3 1.17 1.35 2.11a2.2 2.2 0 0 1-.64 1.66c-.45.48-1 .73-1.62.74-.92.02-1.63-.7-2.12-1.17l-.24-.22c-.25.32-.49.64-.72.97l2.9 1.46-.53 1.06-3.03-1.51-.04.06 1.44 1.94-.36.72-2.46.01-.02.06 3.06 1.54-.53 1.06-2.97-1.49c-.8 2.21-1.24 4.59-1.25 7.07.17-.08.37-.13.57-.13a1.4 1.4 0 1 1-.43 2.73c.26 2.18.84 4.26 1.7 6.2l.32-.19.21-.12c1.05-.61 1.54-.75 2.2-.58a2.2 2.2 0 0 1 1.41 1.12c.2.33.31.64.35.94.05.32.02.53-.1 1.04l-1.1-.3c.09-.36.11-.5.09-.7-.02-.15-.08-.31-.16-.46a1 1 0 0 0-.68-.51.88.88 0 0 0-.54.05c-.25.1-.61.28-1.09.55l-.14.09-.24.14.5.92.71-.4 1.14 1.96-.6.34c.27.36.54.7.82 1.04l2.38-2.42.85.83-2.43 2.48c.48.52.99 1 1.52 1.47l2.42-2.47.84.83-2.35 2.4c.41.32.83.62 1.26.9l2.76-2.32.8.46-.6 3.52c.53.25 1.07.47 1.62.67l.85-3.19 2.3.62c1.13.3 1.72 1.26 1.44 2.31a1.63 1.63 0 0 1-1.1 1.19c.8.14 1.63.24 2.46.28l1.25-3.26.93.02 1.1 3.18c.58-.05 1.15-.14 1.72-.24l-.83-2.98 1.02-.28 2.81 2.5.36-.13-.84-3.02 1.15-.31.8 2.9c.87-.36 1.7-.78 2.5-1.26l-1.04-1.73-1.37.83-.55-.91 3.75-2.26.55.9-1.36.83 1.03 1.72c.8-.54 1.56-1.13 2.28-1.76l-2.1-2.06 2.81-2.87.76.74-1.98 2.02 1.02 1 1.69-1.71.29.28c.38-.47.74-.95 1.07-1.45l-2.48-1.42 2-3.49.92.53-1.4 2.45 1.24.71 1.2-2.09.27.16a21.08 21.08 0 0 0 1.72-6.2 1.4 1.4 0 0 1-1.12-1.36ZM37 52.88A15.9 15.9 0 0 1 21.12 37 15.9 15.9 0 0 1 37 21.12 15.9 15.9 0 0 1 52.88 37 15.9 15.9 0 0 1 37 52.88Z" fill="url(#bV)"/><path d="m37.59 58.32-.47-1.47-.55 1.5h.08l.94-.03Z" fill="url(#bW)"/><path d="M44.2 19.35c.45.18.85.02 1.01-.41.17-.43-.01-.8-.47-.99l-1.16-.44-.54 1.4 1.16.44Z" fill="url(#bX)"/><path d="M37 11.21A25.82 25.82 0 0 0 11.22 37 25.82 25.82 0 0 0 37 62.78 25.82 25.82 0 0 0 62.8 37 25.82 25.82 0 0 0 37 11.2ZM58.4 25.9 56 27.02l3.32.81.61 1.31-3.05-.8-2.4 3.54-.6-1.26 1.85-2.6-1.19-.31-1.66.78-.5-1.08 5.51-2.6.5 1.08Zm-5.14 11.1a16.26 16.26 0 1 1-32.52 0 16.26 16.26 0 0 1 32.52 0ZM52.2 21.99c.94-.78 1.4-1 2.06-.93.61.05 1.15.34 1.57.84a2.19 2.19 0 0 1 .53 1.75l-1.1-.1c.04-.47-.02-.7-.25-.97a.97.97 0 0 0-.73-.38c-.45-.02-.93.38-1.38.75l-.25.21c-.75.62-.97.88-1.02 1.23-.05.28.03.54.24.79.23.28.44.37.9.42l-.1 1.1a2.17 2.17 0 0 1-1.61-.84c-.42-.5-.61-1.1-.55-1.7.09-.85.7-1.37 1.5-2.02l.19-.15Zm-.55-4.1-1.83 6.22-1-.73.35-1.08-1.74-1.3-.94.66-1-.74 5.4-3.59.76.55Zm-7.9-4.1 2.29.88c1.07.42 1.52 1.3 1.15 2.25-.21.54-.6.85-1.17.93.17.21.24.3.31.47.15.36.13.72-.03 1.12-.39 1-1.3 1.37-2.37.96l-2.38-.93 2.2-5.68Zm-8.32-.85 1.18 2.44 1.08-2.48 1.3-.02-1.78 3.63.05 2.5-1.18.03-.05-2.5-1.9-3.57 1.3-.03Zm-2.87.3.29 1.02-2.73.76.39 1.37 2.32-.64.28 1.02-2.32.65.4 1.43 2.73-.76.28 1.02-3.87 1.08-1.64-5.87 3.87-1.09ZM23.51 17l4 1.96-1.93-3.2 1.02-.62 3.15 5.23-.91.55-4-1.97 1.93 3.21-1.03.62-3.14-5.23.9-.55Zm-4.09 3.46c.45-.48 1-.73 1.62-.74.6-.02 1.15.25 1.87.93l.31.3c.64.6 1.31 1.17 1.36 2.1a2.2 2.2 0 0 1-.64 1.66c-.46.48-1.01.73-1.62.75-.92.01-1.63-.71-2.12-1.18l-.25-.23c-.88-.83-1.15-1.26-1.18-1.93-.02-.61.2-1.18.65-1.66Zm-4.68 7.19 3.66.05-2.24-2.9.53-1.04 5.45 2.73-.53 1.06-3.18-1.59 1.55 2.08-.36.72-2.6.01 3.18 1.6-.53 1.06-5.46-2.73.53-1.05Zm-.12 10.63a1.4 1.4 0 1 1 2.8 0 1.4 1.4 0 0 1-2.8 0Zm2.89 11.96a2.3 2.3 0 0 1-1.46-1.11 2.27 2.27 0 0 1-.25-1.77c.1-.38.34-.75.61-.96.2-.15.59-.43 1.2-.78l.2-.12c1.06-.61 1.55-.75 2.2-.58a2.2 2.2 0 0 1 1.42 1.12c.2.33.3.64.35.94.04.32.02.53-.1 1.04l-1.1-.3c.09-.36.11-.5.09-.7-.02-.15-.08-.31-.17-.46a1 1 0 0 0-.67-.51.88.88 0 0 0-.54.05c-.25.1-.61.28-1.09.55l-.15.09c-.83.48-1.09.7-1.2 1.03-.09.27-.05.54.11.82.34.58.94.7 1.56.34l.19-.1-.54-.94.86-.5 1.13 1.97-.75.44c-.8.46-1.31.58-1.9.44Zm2.55 4.05c-.93-.92-.98-2.22-.1-3.1l2.8-2.87.85.84-2.78 2.83c-.48.5-.5 1.08-.03 1.54.46.45 1.06.44 1.54-.06l2.78-2.83.85.82-2.81 2.87c-.87.89-2.17.87-3.1-.04Zm7.28 5.02-1.08-.62.22-1.12-1.88-1.08-.85.76-1.08-.62 4.96-4.19.81.47-1.1 6.4Zm6.7-2.48c-.13.48-.4.84-.81 1.06-.2.11-.34.16-.68.2l.64 2.9-1.33-.36-.53-2.66-.82-.22-.63 2.35-1.15-.3 1.57-5.9 2.31.62c1.13.3 1.71 1.26 1.43 2.31Zm4.43 4.35-.34-1.09-2.17-.03-.39 1.07-1.24-.02 2.32-6.07.94.02 2.12 6.14-1.24-.02Zm6.2-1.24-3.32-2.96 1 3.6-1.15.32-1.63-5.88 1.03-.28 3.32 2.96-1-3.6 1.15-.32 1.63 5.88-1.02.28Zm4.27-1.93-2.6-4.31-1.37.82-.55-.91 3.75-2.26.55.91-1.36.82 2.6 4.32-1.02.61Zm3.99-2.76-4.36-4.27 2.82-2.87.75.75-1.98 2.02 1.03 1 1.68-1.72.76.74-1.69 1.72L53 53.66l1.98-2.02.76.74-2.81 2.87Zm4.12-4.65-5.3-3.03 2-3.49.92.53-1.4 2.45 1.24.71 1.2-2.09.92.53-1.2 2.1 1.3.73 1.4-2.46.92.53-2 3.5Zm.93-10.92a1.4 1.4 0 1 1 0-2.8 1.4 1.4 0 0 1 0 2.8Z" fill="url(#bY)"/><path d="m26.7 56.55.46-2.3-1.77 1.54 1.32.76Z" fill="url(#bZ)"/><path d="m36.31 59.06 1.52.02-.71-2.23-.8 2.21Z" fill="url(#ca)"/><path d="M20.89 23.3c.54.5 1.05 1.03 1.5 1.02.3-.01.56-.12.78-.34.2-.23.3-.5.28-.78-.03-.37-.22-.62-1.12-1.47-.73-.69-1.02-.87-1.37-.88-.3 0-.55.1-.76.33a1 1 0 0 0-.3.79c.03.4.44.81.99 1.33Z" fill="url(#cb)"/><path d="M50.23 19.06 48.3 20.4l1.22.9.72-2.23Z" fill="url(#cc)"/><path d="m32.26 55.53-1.08-.3-.42 1.56 1.09.3c.5.12.92-.1 1.04-.56.12-.47-.13-.87-.63-1Z" fill="url(#cd)"/><path d="M46.05 16.56c.15-.4-.03-.76-.48-.94l-1.09-.42-.51 1.3 1.09.43c.45.17.83.04.99-.37Z" fill="url(#ce)"/><path d="M45.21 18.94c.17-.43-.01-.8-.47-.99l-1.16-.44-.54 1.4 1.16.44c.45.18.85.02 1.01-.41Z" fill="url(#cf)"/><path d="M16.02 39.68a1.4 1.4 0 1 1 0-2.8 1.4 1.4 0 0 1 0 2.8Zm0-3.17a1.77 1.77 0 1 0 0 3.54 1.77 1.77 0 0 0 0-3.54Z" fill="url(#cg)"/><path d="M57.98 39.68a1.4 1.4 0 1 1 0-2.8 1.4 1.4 0 0 1 0 2.8Zm0-3.17a1.77 1.77 0 1 0 0 3.54 1.77 1.77 0 0 0 0-3.54Z" fill="url(#ch)"/><path d="M33.07 42.88H31v5.73h2.07c.63 0 1.14-.18 1.51-.55.26-.25.47-.66.52-1 .04-.3.06-.74.06-1.34v-.5c0-.88-.16-1.38-.58-1.8a2.07 2.07 0 0 0-1.51-.54Zm.73 4.38c-.18.23-.47.35-.83.35h-.85v-3.73h.85c.36 0 .65.12.83.35.19.25.24.55.24 1.4 0 1.07-.05 1.38-.24 1.63Z" fill="url(#ci)"/><path d="m37.54 42.88-2.08 5.73h1.17l.34-1.01h2.04l.34 1.01h1.16l-2.09-5.73h-.88Zm-.26 3.77.73-2.08.7 2.08h-1.43Z" fill="url(#cj)"/><path d="m42.25 45.19-1.08-2.31h-1.21l1.72 3.38v2.35h1.11v-2.35l1.73-3.38H43.3l-1.05 2.31Z" fill="url(#ck)"/><path d="M29.88 30.77h1.6c.4 0 .74-.07 1-.21.27-.15.47-.36.6-.63s.2-.6.2-.97c0-.28-.07-.55-.19-.79s-.3-.43-.55-.57a1.8 1.8 0 0 0-.94-.23 1.85 1.85 0 0 0-1.38.62c-.16.2-.24.43-.24.71h-3.3c0-.8.22-1.5.67-2.07a4.28 4.28 0 0 1 1.77-1.33 6.96 6.96 0 0 1 5.03 0 3.72 3.72 0 0 1 2.42 3.6c0 .48-.12.94-.35 1.37-.22.43-.54.81-.95 1.14-.41.32-.9.58-1.45.77-.54.18-1.14.27-1.8.27h-2.14v-1.68Zm0 2.45v-1.64h2.15c.7 0 1.35.08 1.94.25.58.15 1.09.39 1.51.7.43.31.75.7.98 1.16.23.46.34.98.34 1.57a3.77 3.77 0 0 1-1.52 3.1 5.3 5.3 0 0 1-1.7.82 7.69 7.69 0 0 1-3.87.04 5.4 5.4 0 0 1-1.62-.74 3.94 3.94 0 0 1-1.18-1.3 3.82 3.82 0 0 1-.44-1.88h3.3c0 .3.08.58.24.82a1.97 1.97 0 0 0 1.58.8c.4 0 .75-.08 1.03-.23a1.64 1.64 0 0 0 .88-1.5c0-.48-.08-.86-.24-1.15-.16-.28-.4-.5-.7-.62-.3-.13-.66-.2-1.08-.2h-1.6Zm18.07-2.37v2.6a8.8 8.8 0 0 1-.36 2.66A4.98 4.98 0 0 1 46.58 38c-.44.5-.96.86-1.57 1.1a5.78 5.78 0 0 1-3.64.14c-.5-.16-.97-.4-1.38-.7-.4-.32-.75-.72-1.04-1.2a5.77 5.77 0 0 1-.67-1.68 9.48 9.48 0 0 1-.24-2.2v-2.6c0-1.03.12-1.92.35-2.67.24-.75.59-1.38 1.03-1.87.44-.5.97-.86 1.57-1.1.6-.25 1.27-.37 2-.37.59 0 1.13.08 1.63.24a4.12 4.12 0 0 1 2.43 1.88c.29.48.51 1.04.67 1.7.16.64.23 1.37.23 2.19Zm-3.29 3v-3.42c0-.46-.02-.85-.08-1.2a3.45 3.45 0 0 0-.21-.85 1.7 1.7 0 0 0-.34-.57 1.2 1.2 0 0 0-.47-.32c-.17-.07-.36-.1-.57-.1a1.33 1.33 0 0 0-1.22.67 2.9 2.9 0 0 0-.33.93c-.07.4-.1.87-.1 1.44v3.42c0 .46.02.86.06 1.2.05.35.12.64.22.88.1.23.21.42.35.57.13.15.29.25.47.32a1.65 1.65 0 0 0 1.26-.06c.2-.1.37-.28.51-.51.15-.24.26-.56.34-.95.07-.4.11-.88.11-1.45Z" fill="#333"/></g><defs><linearGradient id="b" x1="10.94" y1="10.93" x2="63.06" y2="63.06" gradientUnits="userSpaceOnUse"><stop stop-color="#FFFF80"/><stop offset=".1" stop-color="#FCF97B"/><stop offset=".22" stop-color="#F3E96C"/><stop offset=".37" stop-color="#E4CE53"/><stop offset=".52" stop-color="#D0A830"/><stop offset=".68" stop-color="#B67805"/><stop offset=".7" stop-color="#B37300"/><stop offset=".74" stop-color="#B67905"/><stop offset=".8" stop-color="#C08914"/><stop offset=".87" stop-color="#D0A42D"/><stop offset=".94" stop-color="#E7CA4E"/><stop offset="1" stop-color="#FFF273"/></linearGradient><linearGradient id="c" x1="11.11" y1="11.11" x2="62.89" y2="62.89" gradientUnits="userSpaceOnUse"><stop stop-color="#FFF979"/><stop offset=".35" stop-color="#FFBF40"/><stop offset=".35" stop-color="#FFC545"/><stop offset=".36" stop-color="#FFD051"/><stop offset=".37" stop-color="#FFD757"/><stop offset=".4" stop-color="#FFD959"/><stop offset=".47" stop-color="#F9D050"/><stop offset=".58" stop-color="#E7B838"/><stop offset=".72" stop-color="#CB9010"/><stop offset=".77" stop-color="#BF8000"/><stop offset=".8" stop-color="#D29717"/><stop offset=".84" stop-color="#E6AE2F"/><stop offset=".89" stop-color="#F4BF40"/><stop offset=".94" stop-color="#FCC94A"/><stop offset="1" stop-color="#FFCC4D"/></linearGradient><linearGradient id="d" x1="-.02" y1="22.24" x2="51.76" y2="74.02" gradientUnits="userSpaceOnUse"><stop stop-color="#FFF979"/><stop offset=".35" stop-color="#FFBF40"/><stop offset=".35" stop-color="#FFC545"/><stop offset=".36" stop-color="#FFD051"/><stop offset=".37" stop-color="#FFD757"/><stop offset=".4" stop-color="#FFD959"/><stop offset=".47" stop-color="#F9D050"/><stop offset=".58" stop-color="#E7B838"/><stop offset=".72" stop-color="#CB9010"/><stop offset=".77" stop-color="#BF8000"/><stop offset=".8" stop-color="#D29717"/><stop offset=".84" stop-color="#E6AE2F"/><stop offset=".89" stop-color="#F4BF40"/><stop offset=".94" stop-color="#FCC94A"/><stop offset="1" stop-color="#FFCC4D"/></linearGradient><linearGradient id="e" x1="20.96" y1="1.26" x2="72.74" y2="53.04" gradientUnits="userSpaceOnUse"><stop stop-color="#FFF979"/><stop offset=".35" stop-color="#FFBF40"/><stop offset=".35" stop-color="#FFC545"/><stop offset=".36" stop-color="#FFD051"/><stop offset=".37" stop-color="#FFD757"/><stop offset=".4" stop-color="#FFD959"/><stop offset=".47" stop-color="#F9D050"/><stop offset=".58" stop-color="#E7B838"/><stop offset=".72" stop-color="#CB9010"/><stop offset=".77" stop-color="#BF8000"/><stop offset=".8" stop-color="#D29717"/><stop offset=".84" stop-color="#E6AE2F"/><stop offset=".89" stop-color="#F4BF40"/><stop offset=".94" stop-color="#FCC94A"/><stop offset="1" stop-color="#FFCC4D"/></linearGradient><linearGradient id="f" x1="65.69" y1="35.83" x2="68.08" y2="38.23" gradientUnits="userSpaceOnUse"><stop stop-color="#FFFF80"/><stop offset=".6" stop-color="#BF8000"/><stop offset="1" stop-color="#FFCC4D"/></linearGradient><linearGradient id="g" x1="65.64" y1="37.33" x2="68.03" y2="39.72" gradientUnits="userSpaceOnUse"><stop stop-color="#FFFF80"/><stop offset=".6" stop-color="#BF8000"/><stop offset="1" stop-color="#FFCC4D"/></linearGradient><linearGradient id="h" x1="65.53" y1="38.82" x2="67.92" y2="41.2" gradientUnits="userSpaceOnUse"><stop stop-color="#FFFF80"/><stop offset=".6" stop-color="#BF8000"/><stop offset="1" stop-color="#FFCC4D"/></linearGradient><linearGradient id="i" x1="65.35" y1="40.3" x2="67.73" y2="42.67" gradientUnits="userSpaceOnUse"><stop stop-color="#FFFF80"/><stop offset=".6" stop-color="#BF8000"/><stop offset="1" stop-color="#FFCC4D"/></linearGradient><linearGradient id="j" x1="65.1" y1="41.78" x2="67.46" y2="44.13" gradientUnits="userSpaceOnUse"><stop stop-color="#FFFF80"/><stop offset=".6" stop-color="#BF8000"/><stop offset="1" stop-color="#FFCC4D"/></linearGradient><linearGradient id="k" x1="64.78" y1="43.24" x2="67.12" y2="45.58" gradientUnits="userSpaceOnUse"><stop stop-color="#FFFF80"/><stop offset=".6" stop-color="#BF8000"/><stop offset="1" stop-color="#FFCC4D"/></linearGradient><linearGradient id="l" x1="64.39" y1="44.69" x2="66.7" y2="47" gradientUnits="userSpaceOnUse"><stop stop-color="#FFFF80"/><stop offset=".6" stop-color="#BF8000"/><stop offset="1" stop-color="#FFCC4D"/></linearGradient><linearGradient id="m" x1="63.93" y1="46.11" x2="66.21" y2="48.39" gradientUnits="userSpaceOnUse"><stop stop-color="#FFFF80"/><stop offset=".6" stop-color="#BF8000"/><stop offset="1" stop-color="#FFCC4D"/></linearGradient><linearGradient id="n" x1="63.4" y1="47.51" x2="65.65" y2="49.76" gradientUnits="userSpaceOnUse"><stop stop-color="#FFFF80"/><stop offset=".6" stop-color="#BF8000"/><stop offset="1" stop-color="#FFCC4D"/></linearGradient><linearGradient id="o" x1="62.8" y1="48.89" x2="65.01" y2="51.1" gradientUnits="userSpaceOnUse"><stop stop-color="#FFFF80"/><stop offset=".6" stop-color="#BF8000"/><stop offset="1" stop-color="#FFCC4D"/></linearGradient><linearGradient id="p" x1="62.14" y1="50.24" x2="64.31" y2="52.4" gradientUnits="userSpaceOnUse"><stop stop-color="#FFFF80"/><stop offset=".6" stop-color="#BF8000"/><stop offset="1" stop-color="#FFCC4D"/></linearGradient><linearGradient id="q" x1="61.41" y1="51.55" x2="63.54" y2="53.67" gradientUnits="userSpaceOnUse"><stop stop-color="#FFFF80"/><stop offset=".6" stop-color="#BF8000"/><stop offset="1" stop-color="#FFCC4D"/></linearGradient><linearGradient id="r" x1="60.63" y1="52.82" x2="62.7" y2="54.9" gradientUnits="userSpaceOnUse"><stop stop-color="#FFFF80"/><stop offset=".6" stop-color="#BF8000"/><stop offset="1" stop-color="#FFCC4D"/></linearGradient><linearGradient id="s" x1="59.78" y1="54.06" x2="61.8" y2="56.08" gradientUnits="userSpaceOnUse"><stop stop-color="#FFFF80"/><stop offset=".6" stop-color="#BF8000"/><stop offset="1" stop-color="#FFCC4D"/></linearGradient><linearGradient id="t" x1="58.88" y1="55.25" x2="60.84" y2="57.21" gradientUnits="userSpaceOnUse"><stop stop-color="#FFFF80"/><stop offset=".6" stop-color="#BF8000"/><stop offset="1" stop-color="#FFCC4D"/></linearGradient><linearGradient id="u" x1="57.92" y1="56.4" x2="59.82" y2="58.3" gradientUnits="userSpaceOnUse"><stop stop-color="#FFFF80"/><stop offset=".6" stop-color="#BF8000"/><stop offset="1" stop-color="#FFCC4D"/></linearGradient><linearGradient id="v" x1="56.91" y1="57.49" x2="58.75" y2="59.33" gradientUnits="userSpaceOnUse"><stop stop-color="#FFFF80"/><stop offset=".6" stop-color="#BF8000"/><stop offset="1" stop-color="#FFCC4D"/></linearGradient><linearGradient id="w" x1="55.86" y1="58.54" x2="57.63" y2="60.31" gradientUnits="userSpaceOnUse"><stop stop-color="#FFFF80"/><stop offset=".6" stop-color="#BF8000"/><stop offset="1" stop-color="#FFCC4D"/></linearGradient><linearGradient id="x" x1="54.75" y1="59.53" x2="56.45" y2="61.23" gradientUnits="userSpaceOnUse"><stop stop-color="#FFFF80"/><stop offset=".6" stop-color="#BF8000"/><stop offset="1" stop-color="#FFCC4D"/></linearGradient><linearGradient id="y" x1="53.6" y1="60.47" x2="55.22" y2="62.1" gradientUnits="userSpaceOnUse"><stop stop-color="#FFFF80"/><stop offset=".6" stop-color="#BF8000"/><stop offset="1" stop-color="#FFCC4D"/></linearGradient><linearGradient id="z" x1="52.41" y1="61.35" x2="53.95" y2="62.9" gradientUnits="userSpaceOnUse"><stop stop-color="#FFFF80"/><stop offset=".6" stop-color="#BF8000"/><stop offset="1" stop-color="#FFCC4D"/></linearGradient><linearGradient id="A" x1="51.18" y1="62.17" x2="52.65" y2="63.63" gradientUnits="userSpaceOnUse"><stop stop-color="#FFFF80"/><stop offset=".6" stop-color="#BF8000"/><stop offset="1" stop-color="#FFCC4D"/></linearGradient><linearGradient id="B" x1="49.91" y1="62.92" x2="51.3" y2="64.31" gradientUnits="userSpaceOnUse"><stop stop-color="#FFFF80"/><stop offset=".6" stop-color="#BF8000"/><stop offset="1" stop-color="#FFCC4D"/></linearGradient><linearGradient id="C" x1="48.61" y1="63.61" x2="49.91" y2="64.91" gradientUnits="userSpaceOnUse"><stop stop-color="#FFFF80"/><stop offset=".6" stop-color="#BF8000"/><stop offset="1" stop-color="#FFCC4D"/></linearGradient><linearGradient id="D" x1="47.28" y1="64.23" x2="48.5" y2="65.44" gradientUnits="userSpaceOnUse"><stop stop-color="#FFFF80"/><stop offset=".6" stop-color="#BF8000"/><stop offset="1" stop-color="#FFCC4D"/></linearGradient><linearGradient id="E" x1="45.93" y1="64.78" x2="47.05" y2="65.91" gradientUnits="userSpaceOnUse"><stop stop-color="#FFFF80"/><stop offset=".6" stop-color="#BF8000"/><stop offset="1" stop-color="#FFCC4D"/></linearGradient><linearGradient id="F" x1="44.55" y1="65.27" x2="45.58" y2="66.3" gradientUnits="userSpaceOnUse"><stop stop-color="#FFFF80"/><stop offset=".6" stop-color="#BF8000"/><stop offset="1" stop-color="#FFCC4D"/></linearGradient><linearGradient id="G" x1="43.15" y1="65.68" x2="44.09" y2="66.62" gradientUnits="userSpaceOnUse"><stop stop-color="#FFFF80"/><stop offset=".6" stop-color="#BF8000"/><stop offset="1" stop-color="#FFCC4D"/></linearGradient><linearGradient id="H" x1="41.73" y1="66.01" x2="42.59" y2="66.87" gradientUnits="userSpaceOnUse"><stop stop-color="#FFFF80"/><stop offset=".6" stop-color="#BF8000"/><stop offset="1" stop-color="#FFCC4D"/></linearGradient><linearGradient id="I" x1="40.31" y1="66.28" x2="41.07" y2="67.04" gradientUnits="userSpaceOnUse"><stop stop-color="#FFFF80"/><stop offset=".6" stop-color="#BF8000"/><stop offset="1" stop-color="#FFCC4D"/></linearGradient><linearGradient id="J" x1="38.87" y1="66.47" x2="39.54" y2="67.14" gradientUnits="userSpaceOnUse"><stop stop-color="#FFFF80"/><stop offset=".6" stop-color="#BF8000"/><stop offset="1" stop-color="#FFCC4D"/></linearGradient><linearGradient id="K" x1="37.43" y1="66.59" x2="38.01" y2="67.16" gradientUnits="userSpaceOnUse"><stop stop-color="#FFFF80"/><stop offset=".6" stop-color="#BF8000"/><stop offset="1" stop-color="#FFCC4D"/></linearGradient><linearGradient id="L" x1="35.93" y1="66.58" x2="36.51" y2="67.15" gradientUnits="userSpaceOnUse"><stop stop-color="#FFFF80"/><stop offset=".6" stop-color="#BF8000"/><stop offset="1" stop-color="#FFCC4D"/></linearGradient><linearGradient id="M" x1="34.4" y1="66.46" x2="35.06" y2="67.12" gradientUnits="userSpaceOnUse"><stop stop-color="#FFFF80"/><stop offset=".6" stop-color="#BF8000"/><stop offset="1" stop-color="#FFCC4D"/></linearGradient><linearGradient id="N" x1="32.87" y1="66.26" x2="33.63" y2="67.02" gradientUnits="userSpaceOnUse"><stop stop-color="#FFFF80"/><stop offset=".6" stop-color="#BF8000"/><stop offset="1" stop-color="#FFCC4D"/></linearGradient><linearGradient id="O" x1="31.35" y1="65.99" x2="32.2" y2="66.84" gradientUnits="userSpaceOnUse"><stop stop-color="#FFFF80"/><stop offset=".6" stop-color="#BF8000"/><stop offset="1" stop-color="#FFCC4D"/></linearGradient><linearGradient id="P" x1="29.84" y1="65.65" x2="30.78" y2="66.59" gradientUnits="userSpaceOnUse"><stop stop-color="#FFFF80"/><stop offset=".6" stop-color="#BF8000"/><stop offset="1" stop-color="#FFCC4D"/></linearGradient><linearGradient id="Q" x1="28.36" y1="65.24" x2="29.39" y2="66.27" gradientUnits="userSpaceOnUse"><stop stop-color="#FFFF80"/><stop offset=".6" stop-color="#BF8000"/><stop offset="1" stop-color="#FFCC4D"/></linearGradient><linearGradient id="R" x1="26.89" y1="64.75" x2="28.01" y2="65.87" gradientUnits="userSpaceOnUse"><stop stop-color="#FFFF80"/><stop offset=".6" stop-color="#BF8000"/><stop offset="1" stop-color="#FFCC4D"/></linearGradient><linearGradient id="S" x1="25.44" y1="64.2" x2="26.65" y2="65.4" gradientUnits="userSpaceOnUse"><stop stop-color="#FFFF80"/><stop offset=".6" stop-color="#BF8000"/><stop offset="1" stop-color="#FFCC4D"/></linearGradient><linearGradient id="T" x1="24.03" y1="63.57" x2="25.32" y2="64.87" gradientUnits="userSpaceOnUse"><stop stop-color="#FFFF80"/><stop offset=".6" stop-color="#BF8000"/><stop offset="1" stop-color="#FFCC4D"/></linearGradient><linearGradient id="U" x1="22.64" y1="62.88" x2="24.02" y2="64.26" gradientUnits="userSpaceOnUse"><stop stop-color="#FFFF80"/><stop offset=".6" stop-color="#BF8000"/><stop offset="1" stop-color="#FFCC4D"/></linearGradient><linearGradient id="V" x1="21.3" y1="62.12" x2="22.76" y2="63.59" gradientUnits="userSpaceOnUse"><stop stop-color="#FFFF80"/><stop offset=".6" stop-color="#BF8000"/><stop offset="1" stop-color="#FFCC4D"/></linearGradient><linearGradient id="W" x1="19.99" y1="61.31" x2="21.53" y2="62.85" gradientUnits="userSpaceOnUse"><stop stop-color="#FFFF80"/><stop offset=".6" stop-color="#BF8000"/><stop offset="1" stop-color="#FFCC4D"/></linearGradient><linearGradient id="X" x1="18.72" y1="60.43" x2="20.34" y2="62.04" gradientUnits="userSpaceOnUse"><stop stop-color="#FFFF80"/><stop offset=".6" stop-color="#BF8000"/><stop offset="1" stop-color="#FFCC4D"/></linearGradient><linearGradient id="Y" x1="17.5" y1="59.49" x2="19.19" y2="61.18" gradientUnits="userSpaceOnUse"><stop stop-color="#FFFF80"/><stop offset=".6" stop-color="#BF8000"/><stop offset="1" stop-color="#FFCC4D"/></linearGradient><linearGradient id="Z" x1="16.32" y1="58.49" x2="18.08" y2="60.25" gradientUnits="userSpaceOnUse"><stop stop-color="#FFFF80"/><stop offset=".6" stop-color="#BF8000"/><stop offset="1" stop-color="#FFCC4D"/></linearGradient><linearGradient id="aa" x1="15.2" y1="57.44" x2="17.03" y2="59.27" gradientUnits="userSpaceOnUse"><stop stop-color="#FFFF80"/><stop offset=".6" stop-color="#BF8000"/><stop offset="1" stop-color="#FFCC4D"/></linearGradient><linearGradient id="ab" x1="14.13" y1="56.34" x2="16.02" y2="58.24" gradientUnits="userSpaceOnUse"><stop stop-color="#FFFF80"/><stop offset=".6" stop-color="#BF8000"/><stop offset="1" stop-color="#FFCC4D"/></linearGradient><linearGradient id="ac" x1="13.11" y1="55.19" x2="15.06" y2="57.15" gradientUnits="userSpaceOnUse"><stop stop-color="#FFFF80"/><stop offset=".6" stop-color="#BF8000"/><stop offset="1" stop-color="#FFCC4D"/></linearGradient><linearGradient id="ad" x1="12.15" y1="54" x2="14.16" y2="56.01" gradientUnits="userSpaceOnUse"><stop stop-color="#FFFF80"/><stop offset=".6" stop-color="#BF8000"/><stop offset="1" stop-color="#FFCC4D"/></linearGradient><linearGradient id="ae" x1="11.26" y1="52.76" x2="13.32" y2="54.83" gradientUnits="userSpaceOnUse"><stop stop-color="#FFFF80"/><stop offset=".6" stop-color="#BF8000"/><stop offset="1" stop-color="#FFCC4D"/></linearGradient><linearGradient id="af" x1="10.42" y1="51.49" x2="12.54" y2="53.6" gradientUnits="userSpaceOnUse"><stop stop-color="#FFFF80"/><stop offset=".6" stop-color="#BF8000"/><stop offset="1" stop-color="#FFCC4D"/></linearGradient><linearGradient id="ag" x1="9.65" y1="50.17" x2="11.82" y2="52.34" gradientUnits="userSpaceOnUse"><stop stop-color="#FFFF80"/><stop offset=".6" stop-color="#BF8000"/><stop offset="1" stop-color="#FFCC4D"/></linearGradient><linearGradient id="ah" x1="8.95" y1="48.82" x2="11.16" y2="51.03" gradientUnits="userSpaceOnUse"><stop stop-color="#FFFF80"/><stop offset=".6" stop-color="#BF8000"/><stop offset="1" stop-color="#FFCC4D"/></linearGradient><linearGradient id="ai" x1="8.32" y1="47.45" x2="10.57" y2="49.69" gradientUnits="userSpaceOnUse"><stop stop-color="#FFFF80"/><stop offset=".6" stop-color="#BF8000"/><stop offset="1" stop-color="#FFCC4D"/></linearGradient><linearGradient id="aj" x1="7.76" y1="46.04" x2="10.04" y2="48.32" gradientUnits="userSpaceOnUse"><stop stop-color="#FFFF80"/><stop offset=".6" stop-color="#BF8000"/><stop offset="1" stop-color="#FFCC4D"/></linearGradient><linearGradient id="ak" x1="7.27" y1="44.62" x2="9.58" y2="46.93" gradientUnits="userSpaceOnUse"><stop stop-color="#FFFF80"/><stop offset=".6" stop-color="#BF8000"/><stop offset="1" stop-color="#FFCC4D"/></linearGradient><linearGradient id="al" x1="6.86" y1="43.17" x2="9.19" y2="45.51" gradientUnits="userSpaceOnUse"><stop stop-color="#FFFF80"/><stop offset=".6" stop-color="#BF8000"/><stop offset="1" stop-color="#FFCC4D"/></linearGradient><linearGradient id="am" x1="6.52" y1="41.71" x2="8.88" y2="44.06" gradientUnits="userSpaceOnUse"><stop stop-color="#FFFF80"/><stop offset=".6" stop-color="#BF8000"/><stop offset="1" stop-color="#FFCC4D"/></linearGradient><linearGradient id="an" x1="6.26" y1="40.23" x2="8.63" y2="42.61" gradientUnits="userSpaceOnUse"><stop stop-color="#FFFF80"/><stop offset=".6" stop-color="#BF8000"/><stop offset="1" stop-color="#FFCC4D"/></linearGradient><linearGradient id="ao" x1="6.07" y1="38.75" x2="8.45" y2="41.13" gradientUnits="userSpaceOnUse"><stop stop-color="#FFFF80"/><stop offset=".6" stop-color="#BF8000"/><stop offset="1" stop-color="#FFCC4D"/></linearGradient><linearGradient id="ap" x1="5.96" y1="37.26" x2="8.35" y2="39.65" gradientUnits="userSpaceOnUse"><stop stop-color="#FFFF80"/><stop offset=".6" stop-color="#BF8000"/><stop offset="1" stop-color="#FFCC4D"/></linearGradient><linearGradient id="aq" x1="5.92" y1="35.77" x2="8.32" y2="38.16" gradientUnits="userSpaceOnUse"><stop stop-color="#FFFF80"/><stop offset=".6" stop-color="#BF8000"/><stop offset="1" stop-color="#FFCC4D"/></linearGradient><linearGradient id="ar" x1="5.97" y1="34.28" x2="8.36" y2="36.67" gradientUnits="userSpaceOnUse"><stop stop-color="#FFFF80"/><stop offset=".6" stop-color="#BF8000"/><stop offset="1" stop-color="#FFCC4D"/></linearGradient><linearGradient id="as" x1="6.08" y1="32.79" x2="8.47" y2="35.18" gradientUnits="userSpaceOnUse"><stop stop-color="#FFFF80"/><stop offset=".6" stop-color="#BF8000"/><stop offset="1" stop-color="#FFCC4D"/></linearGradient><linearGradient id="at" x1="6.27" y1="31.32" x2="8.65" y2="33.7" gradientUnits="userSpaceOnUse"><stop stop-color="#FFFF80"/><stop offset=".6" stop-color="#BF8000"/><stop offset="1" stop-color="#FFCC4D"/></linearGradient><linearGradient id="au" x1="6.54" y1="29.86" x2="8.9" y2="32.22" gradientUnits="userSpaceOnUse"><stop stop-color="#FFFF80"/><stop offset=".6" stop-color="#BF8000"/><stop offset="1" stop-color="#FFCC4D"/></linearGradient><linearGradient id="av" x1="6.88" y1="28.42" x2="9.22" y2="30.76" gradientUnits="userSpaceOnUse"><stop stop-color="#FFFF80"/><stop offset=".6" stop-color="#BF8000"/><stop offset="1" stop-color="#FFCC4D"/></linearGradient><linearGradient id="aw" x1="7.3" y1="27" x2="9.61" y2="29.31" gradientUnits="userSpaceOnUse"><stop stop-color="#FFFF80"/><stop offset=".6" stop-color="#BF8000"/><stop offset="1" stop-color="#FFCC4D"/></linearGradient><linearGradient id="ax" x1="7.79" y1="25.6" x2="10.07" y2="27.88" gradientUnits="userSpaceOnUse"><stop stop-color="#FFFF80"/><stop offset=".6" stop-color="#BF8000"/><stop offset="1" stop-color="#FFCC4D"/></linearGradient><linearGradient id="ay" x1="8.36" y1="24.23" x2="10.6" y2="26.48" gradientUnits="userSpaceOnUse"><stop stop-color="#FFFF80"/><stop offset=".6" stop-color="#BF8000"/><stop offset="1" stop-color="#FFCC4D"/></linearGradient><linearGradient id="az" x1="8.99" y1="22.9" x2="11.2" y2="25.11" gradientUnits="userSpaceOnUse"><stop stop-color="#FFFF80"/><stop offset=".6" stop-color="#BF8000"/><stop offset="1" stop-color="#FFCC4D"/></linearGradient><linearGradient id="aA" x1="9.69" y1="21.59" x2="11.86" y2="23.76" gradientUnits="userSpaceOnUse"><stop stop-color="#FFFF80"/><stop offset=".6" stop-color="#BF8000"/><stop offset="1" stop-color="#FFCC4D"/></linearGradient><linearGradient id="aB" x1="10.46" y1="20.33" x2="12.59" y2="22.45" gradientUnits="userSpaceOnUse"><stop stop-color="#FFFF80"/><stop offset=".6" stop-color="#BF8000"/><stop offset="1" stop-color="#FFCC4D"/></linearGradient><linearGradient id="aC" x1="11.3" y1="19.1" x2="13.37" y2="21.17" gradientUnits="userSpaceOnUse"><stop stop-color="#FFFF80"/><stop offset=".6" stop-color="#BF8000"/><stop offset="1" stop-color="#FFCC4D"/></linearGradient><linearGradient id="aD" x1="12.2" y1="17.92" x2="14.22" y2="19.94" gradientUnits="userSpaceOnUse"><stop stop-color="#FFFF80"/><stop offset=".6" stop-color="#BF8000"/><stop offset="1" stop-color="#FFCC4D"/></linearGradient><linearGradient id="aE" x1="13.16" y1="16.78" x2="15.12" y2="18.75" gradientUnits="userSpaceOnUse"><stop stop-color="#FFFF80"/><stop offset=".6" stop-color="#BF8000"/><stop offset="1" stop-color="#FFCC4D"/></linearGradient><linearGradient id="aF" x1="14.18" y1="15.7" x2="16.08" y2="17.6" gradientUnits="userSpaceOnUse"><stop stop-color="#FFFF80"/><stop offset=".6" stop-color="#BF8000"/><stop offset="1" stop-color="#FFCC4D"/></linearGradient><linearGradient id="aG" x1="15.25" y1="14.66" x2="17.09" y2="16.5" gradientUnits="userSpaceOnUse"><stop stop-color="#FFFF80"/><stop offset=".6" stop-color="#BF8000"/><stop offset="1" stop-color="#FFCC4D"/></linearGradient><linearGradient id="aH" x1="16.38" y1="13.68" x2="18.15" y2="15.45" gradientUnits="userSpaceOnUse"><stop stop-color="#FFFF80"/><stop offset=".6" stop-color="#BF8000"/><stop offset="1" stop-color="#FFCC4D"/></linearGradient><linearGradient id="aI" x1="17.55" y1="12.76" x2="19.25" y2="14.46" gradientUnits="userSpaceOnUse"><stop stop-color="#FFFF80"/><stop offset=".6" stop-color="#BF8000"/><stop offset="1" stop-color="#FFCC4D"/></linearGradient><linearGradient id="aJ" x1="18.78" y1="11.9" x2="20.4" y2="13.52" gradientUnits="userSpaceOnUse"><stop stop-color="#FFFF80"/><stop offset=".6" stop-color="#BF8000"/><stop offset="1" stop-color="#FFCC4D"/></linearGradient><linearGradient id="aK" x1="20.05" y1="11.1" x2="21.59" y2="12.65" gradientUnits="userSpaceOnUse"><stop stop-color="#FFFF80"/><stop offset=".6" stop-color="#BF8000"/><stop offset="1" stop-color="#FFCC4D"/></linearGradient><linearGradient id="aL" x1="21.36" y1="10.36" x2="22.82" y2="11.83" gradientUnits="userSpaceOnUse"><stop stop-color="#FFFF80"/><stop offset=".6" stop-color="#BF8000"/><stop offset="1" stop-color="#FFCC4D"/></linearGradient><linearGradient id="aM" x1="22.7" y1="9.69" x2="24.09" y2="11.08" gradientUnits="userSpaceOnUse"><stop stop-color="#FFFF80"/><stop offset=".6" stop-color="#BF8000"/><stop offset="1" stop-color="#FFCC4D"/></linearGradient><linearGradient id="aN" x1="24.09" y1="9.09" x2="25.39" y2="10.39" gradientUnits="userSpaceOnUse"><stop stop-color="#FFFF80"/><stop offset=".6" stop-color="#BF8000"/><stop offset="1" stop-color="#FFCC4D"/></linearGradient><linearGradient id="aO" x1="25.51" y1="8.55" x2="26.72" y2="9.76" gradientUnits="userSpaceOnUse"><stop stop-color="#FFFF80"/><stop offset=".6" stop-color="#BF8000"/><stop offset="1" stop-color="#FFCC4D"/></linearGradient><linearGradient id="aP" x1="26.95" y1="8.09" x2="28.07" y2="9.21" gradientUnits="userSpaceOnUse"><stop stop-color="#FFFF80"/><stop offset=".6" stop-color="#BF8000"/><stop offset="1" stop-color="#FFCC4D"/></linearGradient><linearGradient id="aQ" x1="28.42" y1="7.7" x2="29.45" y2="8.73" gradientUnits="userSpaceOnUse"><stop stop-color="#FFFF80"/><stop offset=".6" stop-color="#BF8000"/><stop offset="1" stop-color="#FFCC4D"/></linearGradient><linearGradient id="aR" x1="29.91" y1="7.38" x2="30.85" y2="8.32" gradientUnits="userSpaceOnUse"><stop stop-color="#FFFF80"/><stop offset=".6" stop-color="#BF8000"/><stop offset="1" stop-color="#FFCC4D"/></linearGradient><linearGradient id="aS" x1="31.41" y1="7.13" x2="32.27" y2="7.98" gradientUnits="userSpaceOnUse"><stop stop-color="#FFFF80"/><stop offset=".6" stop-color="#BF8000"/><stop offset="1" stop-color="#FFCC4D"/></linearGradient><linearGradient id="aT" x1="32.93" y1="6.96" x2="33.69" y2="7.72" gradientUnits="userSpaceOnUse"><stop stop-color="#FFFF80"/><stop offset=".6" stop-color="#BF8000"/><stop offset="1" stop-color="#FFCC4D"/></linearGradient><linearGradient id="aU" x1="34.46" y1="6.86" x2="35.13" y2="7.53" gradientUnits="userSpaceOnUse"><stop stop-color="#FFFF80"/><stop offset=".6" stop-color="#BF8000"/><stop offset="1" stop-color="#FFCC4D"/></linearGradient><linearGradient id="aV" x1="35.99" y1="6.83" x2="36.57" y2="7.41" gradientUnits="userSpaceOnUse"><stop stop-color="#FFFF80"/><stop offset=".6" stop-color="#BF8000"/><stop offset="1" stop-color="#FFCC4D"/></linearGradient><linearGradient id="aW" x1="37.49" y1="6.84" x2="38.07" y2="7.42" gradientUnits="userSpaceOnUse"><stop stop-color="#FFFF80"/><stop offset=".6" stop-color="#BF8000"/><stop offset="1" stop-color="#FFCC4D"/></linearGradient><linearGradient id="aX" x1="38.94" y1="6.88" x2="39.6" y2="7.54" gradientUnits="userSpaceOnUse"><stop stop-color="#FFFF80"/><stop offset=".6" stop-color="#BF8000"/><stop offset="1" stop-color="#FFCC4D"/></linearGradient><linearGradient id="aY" x1="40.37" y1="6.98" x2="41.13" y2="7.73" gradientUnits="userSpaceOnUse"><stop stop-color="#FFFF80"/><stop offset=".6" stop-color="#BF8000"/><stop offset="1" stop-color="#FFCC4D"/></linearGradient><linearGradient id="aZ" x1="41.8" y1="7.16" x2="42.65" y2="8" gradientUnits="userSpaceOnUse"><stop stop-color="#FFFF80"/><stop offset=".6" stop-color="#BF8000"/><stop offset="1" stop-color="#FFCC4D"/></linearGradient><linearGradient id="ba" x1="43.22" y1="7.41" x2="44.16" y2="8.34" gradientUnits="userSpaceOnUse"><stop stop-color="#FFFF80"/><stop offset=".6" stop-color="#BF8000"/><stop offset="1" stop-color="#FFCC4D"/></linearGradient><linearGradient id="bb" x1="44.61" y1="7.73" x2="45.64" y2="8.76" gradientUnits="userSpaceOnUse"><stop stop-color="#FFFF80"/><stop offset=".6" stop-color="#BF8000"/><stop offset="1" stop-color="#FFCC4D"/></linearGradient><linearGradient id="bc" x1="45.99" y1="8.13" x2="47.11" y2="9.24" gradientUnits="userSpaceOnUse"><stop stop-color="#FFFF80"/><stop offset=".6" stop-color="#BF8000"/><stop offset="1" stop-color="#FFCC4D"/></linearGradient><linearGradient id="bd" x1="47.35" y1="8.59" x2="48.56" y2="9.8" gradientUnits="userSpaceOnUse"><stop stop-color="#FFFF80"/><stop offset=".6" stop-color="#BF8000"/><stop offset="1" stop-color="#FFCC4D"/></linearGradient><linearGradient id="be" x1="48.68" y1="9.13" x2="49.97" y2="10.42" gradientUnits="userSpaceOnUse"><stop stop-color="#FFFF80"/><stop offset=".6" stop-color="#BF8000"/><stop offset="1" stop-color="#FFCC4D"/></linearGradient><linearGradient id="bf" x1="49.98" y1="9.74" x2="51.35" y2="11.12" gradientUnits="userSpaceOnUse"><stop stop-color="#FFFF80"/><stop offset=".6" stop-color="#BF8000"/><stop offset="1" stop-color="#FFCC4D"/></linearGradient><linearGradient id="bg" x1="51.24" y1="10.41" x2="52.7" y2="11.87" gradientUnits="userSpaceOnUse"><stop stop-color="#FFFF80"/><stop offset=".6" stop-color="#BF8000"/><stop offset="1" stop-color="#FFCC4D"/></linearGradient><linearGradient id="bh" x1="52.47" y1="11.15" x2="54.01" y2="12.69" gradientUnits="userSpaceOnUse"><stop stop-color="#FFFF80"/><stop offset=".6" stop-color="#BF8000"/><stop offset="1" stop-color="#FFCC4D"/></linearGradient><linearGradient id="bi" x1="53.66" y1="11.95" x2="55.28" y2="13.57" gradientUnits="userSpaceOnUse"><stop stop-color="#FFFF80"/><stop offset=".6" stop-color="#BF8000"/><stop offset="1" stop-color="#FFCC4D"/></linearGradient><linearGradient id="bj" x1="54.81" y1="12.82" x2="56.5" y2="14.51" gradientUnits="userSpaceOnUse"><stop stop-color="#FFFF80"/><stop offset=".6" stop-color="#BF8000"/><stop offset="1" stop-color="#FFCC4D"/></linearGradient><linearGradient id="bk" x1="55.92" y1="13.74" x2="57.68" y2="15.5" gradientUnits="userSpaceOnUse"><stop stop-color="#FFFF80"/><stop offset=".6" stop-color="#BF8000"/><stop offset="1" stop-color="#FFCC4D"/></linearGradient><linearGradient id="bl" x1="56.98" y1="14.72" x2="58.8" y2="16.55" gradientUnits="userSpaceOnUse"><stop stop-color="#FFFF80"/><stop offset=".6" stop-color="#BF8000"/><stop offset="1" stop-color="#FFCC4D"/></linearGradient><linearGradient id="bm" x1="57.98" y1="15.76" x2="59.87" y2="17.65" gradientUnits="userSpaceOnUse"><stop stop-color="#FFFF80"/><stop offset=".6" stop-color="#BF8000"/><stop offset="1" stop-color="#FFCC4D"/></linearGradient><linearGradient id="bn" x1="58.94" y1="16.85" x2="60.89" y2="18.8" gradientUnits="userSpaceOnUse"><stop stop-color="#FFFF80"/><stop offset=".6" stop-color="#BF8000"/><stop offset="1" stop-color="#FFCC4D"/></linearGradient><linearGradient id="bo" x1="59.84" y1="17.98" x2="61.85" y2="20" gradientUnits="userSpaceOnUse"><stop stop-color="#FFFF80"/><stop offset=".6" stop-color="#BF8000"/><stop offset="1" stop-color="#FFCC4D"/></linearGradient><linearGradient id="bp" x1="60.68" y1="19.17" x2="62.74" y2="21.23" gradientUnits="userSpaceOnUse"><stop stop-color="#FFFF80"/><stop offset=".6" stop-color="#BF8000"/><stop offset="1" stop-color="#FFCC4D"/></linearGradient><linearGradient id="bq" x1="61.46" y1="20.39" x2="63.58" y2="22.51" gradientUnits="userSpaceOnUse"><stop stop-color="#FFFF80"/><stop offset=".6" stop-color="#BF8000"/><stop offset="1" stop-color="#FFCC4D"/></linearGradient><linearGradient id="br" x1="62.18" y1="21.66" x2="64.35" y2="23.82" gradientUnits="userSpaceOnUse"><stop stop-color="#FFFF80"/><stop offset=".6" stop-color="#BF8000"/><stop offset="1" stop-color="#FFCC4D"/></linearGradient><linearGradient id="bs" x1="62.84" y1="22.96" x2="65.05" y2="25.17" gradientUnits="userSpaceOnUse"><stop stop-color="#FFFF80"/><stop offset=".6" stop-color="#BF8000"/><stop offset="1" stop-color="#FFCC4D"/></linearGradient><linearGradient id="bt" x1="63.43" y1="24.3" x2="65.68" y2="26.55" gradientUnits="userSpaceOnUse"><stop stop-color="#FFFF80"/><stop offset=".6" stop-color="#BF8000"/><stop offset="1" stop-color="#FFCC4D"/></linearGradient><linearGradient id="bu" x1="63.96" y1="25.67" x2="66.24" y2="27.95" gradientUnits="userSpaceOnUse"><stop stop-color="#FFFF80"/><stop offset=".6" stop-color="#BF8000"/><stop offset="1" stop-color="#FFCC4D"/></linearGradient><linearGradient id="bv" x1="64.42" y1="27.07" x2="66.73" y2="29.38" gradientUnits="userSpaceOnUse"><stop stop-color="#FFFF80"/><stop offset=".6" stop-color="#BF8000"/><stop offset="1" stop-color="#FFCC4D"/></linearGradient><linearGradient id="bw" x1="64.81" y1="28.49" x2="67.14" y2="30.83" gradientUnits="userSpaceOnUse"><stop stop-color="#FFFF80"/><stop offset=".6" stop-color="#BF8000"/><stop offset="1" stop-color="#FFCC4D"/></linearGradient><linearGradient id="bx" x1="65.12" y1="29.93" x2="67.48" y2="32.29" gradientUnits="userSpaceOnUse"><stop stop-color="#FFFF80"/><stop offset=".6" stop-color="#BF8000"/><stop offset="1" stop-color="#FFCC4D"/></linearGradient><linearGradient id="by" x1="65.37" y1="31.39" x2="67.75" y2="33.76" gradientUnits="userSpaceOnUse"><stop stop-color="#FFFF80"/><stop offset=".6" stop-color="#BF8000"/><stop offset="1" stop-color="#FFCC4D"/></linearGradient><linearGradient id="bz" x1="65.55" y1="32.86" x2="67.93" y2="35.25" gradientUnits="userSpaceOnUse"><stop stop-color="#FFFF80"/><stop offset=".6" stop-color="#BF8000"/><stop offset="1" stop-color="#FFCC4D"/></linearGradient><linearGradient id="bA" x1="65.65" y1="34.34" x2="68.04" y2="36.73" gradientUnits="userSpaceOnUse"><stop stop-color="#FFFF80"/><stop offset=".6" stop-color="#BF8000"/><stop offset="1" stop-color="#FFCC4D"/></linearGradient><linearGradient id="bB" x1="18.78" y1="18.77" x2="55.22" y2="55.22" gradientUnits="userSpaceOnUse"><stop stop-color="#FAFAFA"/><stop offset="1" stop-color="#EBEBEB"/></linearGradient><linearGradient id="bC" x1="21.46" y1="15.54" x2="58.47" y2="52.54" gradientUnits="userSpaceOnUse"><stop stop-color="#595959"/><stop offset="1" stop-color="#2B2B2B"/></linearGradient><linearGradient id="bD" x1="2.72" y1="34.28" x2="39.71" y2="71.28" gradientUnits="userSpaceOnUse"><stop stop-color="#595959"/><stop offset="1" stop-color="#2B2B2B"/></linearGradient><linearGradient id="bE" x1="3.62" y1="33.38" x2="40.62" y2="70.37" gradientUnits="userSpaceOnUse"><stop stop-color="#595959"/><stop offset="1" stop-color="#2B2B2B"/></linearGradient><linearGradient id="bF" x1="18.04" y1="18.96" x2="55.04" y2="55.96" gradientUnits="userSpaceOnUse"><stop stop-color="#595959"/><stop offset="1" stop-color="#2B2B2B"/></linearGradient><linearGradient id="bG" x1="33.56" y1="3.43" x2="70.57" y2="40.43" gradientUnits="userSpaceOnUse"><stop stop-color="#595959"/><stop offset="1" stop-color="#2B2B2B"/></linearGradient><linearGradient id="bH" x1="14.74" y1="22.26" x2="51.75" y2="59.27" gradientUnits="userSpaceOnUse"><stop stop-color="#595959"/><stop offset="1" stop-color="#2B2B2B"/></linearGradient><linearGradient id="bI" x1="12.66" y1="24.34" x2="49.65" y2="61.34" gradientUnits="userSpaceOnUse"><stop stop-color="#595959"/><stop offset="1" stop-color="#2B2B2B"/></linearGradient><linearGradient id="bJ" x1="3.31" y1="33.69" x2="40.3" y2="70.68" gradientUnits="userSpaceOnUse"><stop stop-color="#595959"/><stop offset="1" stop-color="#2B2B2B"/></linearGradient><linearGradient id="bK" x1="18.5" y1="18.5" x2="55.5" y2="55.5" gradientUnits="userSpaceOnUse"><stop stop-color="#737373"/><stop offset=".09" stop-color="#6A6A6A"/><stop offset=".24" stop-color="#525252"/><stop offset=".43" stop-color="#2A2A2A"/><stop offset=".6"/><stop offset=".7" stop-color="#090909"/><stop offset=".86" stop-color="#212121"/><stop offset="1" stop-color="#3B3B3B"/></linearGradient><linearGradient id="bL" x1="32.89" y1="4.11" x2="69.88" y2="41.11" gradientUnits="userSpaceOnUse"><stop stop-color="#595959"/><stop offset="1" stop-color="#2B2B2B"/></linearGradient><linearGradient id="bM" x1="7.63" y1="29.37" x2="44.62" y2="66.37" gradientUnits="userSpaceOnUse"><stop stop-color="#595959"/><stop offset="1" stop-color="#2B2B2B"/></linearGradient><linearGradient id="bN" x1="11.71" y1="25.31" x2="48.7" y2="62.29" gradientUnits="userSpaceOnUse"><stop stop-color="#595959"/><stop offset="1" stop-color="#2B2B2B"/></linearGradient><linearGradient id="bO" x1="47.09" y1="56.69" x2="17.1" y2="26.7" gradientUnits="userSpaceOnUse"><stop stop-color="#595959"/><stop offset="1" stop-color="#2B2B2B"/></linearGradient><linearGradient id="bP" x1="39.62" y1="64.16" x2="9.62" y2="34.17" gradientUnits="userSpaceOnUse"><stop stop-color="#595959"/><stop offset="1" stop-color="#2B2B2B"/></linearGradient><linearGradient id="bQ" x1="37.73" y1="66.04" x2="7.75" y2="36.06" gradientUnits="userSpaceOnUse"><stop stop-color="#595959"/><stop offset="1" stop-color="#2B2B2B"/></linearGradient><linearGradient id="bR" x1="66.19" y1="37.59" x2="36.2" y2="7.6" gradientUnits="userSpaceOnUse"><stop stop-color="#595959"/><stop offset="1" stop-color="#2B2B2B"/></linearGradient><linearGradient id="bS" x1="51.44" y1="52.34" x2="21.45" y2="22.35" gradientUnits="userSpaceOnUse"><stop stop-color="#595959"/><stop offset="1" stop-color="#2B2B2B"/></linearGradient><linearGradient id="bT" x1="43.95" y1="59.83" x2="13.96" y2="29.83" gradientUnits="userSpaceOnUse"><stop stop-color="#595959"/><stop offset="1" stop-color="#2B2B2B"/></linearGradient><linearGradient id="bU" x1="56.12" y1="47.68" x2="26.12" y2="17.67" gradientUnits="userSpaceOnUse"><stop stop-color="#595959"/><stop offset="1" stop-color="#2B2B2B"/></linearGradient><linearGradient id="bV" x1="51.61" y1="52.1" x2="21.72" y2="22.21" gradientUnits="userSpaceOnUse"><stop stop-color="#737373"/><stop offset=".09" stop-color="#6A6A6A"/><stop offset=".24" stop-color="#525252"/><stop offset=".43" stop-color="#2A2A2A"/><stop offset=".6"/><stop offset=".7" stop-color="#090909"/><stop offset=".86" stop-color="#212121"/><stop offset="1" stop-color="#3B3B3B"/></linearGradient><linearGradient id="bW" x1="41.52" y1="62.27" x2="11.52" y2="32.27" gradientUnits="userSpaceOnUse"><stop stop-color="#595959"/><stop offset="1" stop-color="#2B2B2B"/></linearGradient><linearGradient id="bX" x1="64.66" y1="39.13" x2="34.66" y2="9.13" gradientUnits="userSpaceOnUse"><stop stop-color="#595959"/><stop offset="1" stop-color="#2B2B2B"/></linearGradient><linearGradient id="bY" x1="18.78" y1="18.77" x2="55.22" y2="55.22" gradientUnits="userSpaceOnUse"><stop stop-color="#4A4A4A"/><stop offset="1" stop-color="#1C1C1C"/></linearGradient><linearGradient id="bZ" x1="4.41" y1="33.16" x2="40.83" y2="69.57" gradientUnits="userSpaceOnUse"><stop stop-color="#4A4A4A"/><stop offset="1" stop-color="#1C1C1C"/></linearGradient><linearGradient id="ca" x1="8.17" y1="29.41" x2="44.58" y2="65.82" gradientUnits="userSpaceOnUse"><stop stop-color="#4A4A4A"/><stop offset="1" stop-color="#1C1C1C"/></linearGradient><linearGradient id="cb" x1="18.33" y1="19.24" x2="54.75" y2="55.65" gradientUnits="userSpaceOnUse"><stop stop-color="#4A4A4A"/><stop offset="1" stop-color="#1C1C1C"/></linearGradient><linearGradient id="cc" x1="33.55" y1="4.02" x2="69.97" y2="40.43" gradientUnits="userSpaceOnUse"><stop stop-color="#4A4A4A"/><stop offset="1" stop-color="#1C1C1C"/></linearGradient><linearGradient id="cd" x1="6.51" y1="31.06" x2="42.92" y2="67.47" gradientUnits="userSpaceOnUse"><stop stop-color="#4A4A4A"/><stop offset="1" stop-color="#1C1C1C"/></linearGradient><linearGradient id="ce" x1="33.17" y1="4.4" x2="69.59" y2="40.82" gradientUnits="userSpaceOnUse"><stop stop-color="#4A4A4A"/><stop offset="1" stop-color="#1C1C1C"/></linearGradient><linearGradient id="cf" x1="31.55" y1="6.02" x2="67.97" y2="42.44" gradientUnits="userSpaceOnUse"><stop stop-color="#4A4A4A"/><stop offset="1" stop-color="#1C1C1C"/></linearGradient><linearGradient id="cg" x1="17.27" y1="39.53" x2="14.77" y2="37.03" gradientUnits="userSpaceOnUse"><stop stop-color="#595959"/><stop offset=".11" stop-color="#505050"/><stop offset=".29" stop-color="#383838"/><stop offset=".52" stop-color="#101010"/><stop offset=".6"/><stop offset=".7" stop-color="#090909"/><stop offset=".86" stop-color="#212121"/><stop offset="1" stop-color="#3B3B3B"/></linearGradient><linearGradient id="ch" x1="59.23" y1="39.53" x2="56.73" y2="37.03" gradientUnits="userSpaceOnUse"><stop stop-color="#595959"/><stop offset=".11" stop-color="#505050"/><stop offset=".29" stop-color="#383838"/><stop offset=".52" stop-color="#101010"/><stop offset=".6"/><stop offset=".7" stop-color="#090909"/><stop offset=".86" stop-color="#212121"/><stop offset="1" stop-color="#3B3B3B"/></linearGradient><linearGradient id="ci" x1="12.46" y1="25.69" x2="48.91" y2="62.14" gradientUnits="userSpaceOnUse"><stop stop-color="#4A4A4A"/><stop offset="1" stop-color="#1C1C1C"/></linearGradient><linearGradient id="cj" x1="14.67" y1="23.48" x2="51.12" y2="59.93" gradientUnits="userSpaceOnUse"><stop stop-color="#4A4A4A"/><stop offset="1" stop-color="#1C1C1C"/></linearGradient><linearGradient id="ck" x1="17.75" y1="20.4" x2="54.2" y2="56.85" gradientUnits="userSpaceOnUse"><stop stop-color="#4A4A4A"/><stop offset="1" stop-color="#1C1C1C"/></linearGradient><clipPath id="a"><path fill="#fff" d="M0 0h74v74H0z"/></clipPath></defs></svg>