<svg xmlns="http://www.w3.org/2000/svg" fill="none" viewBox="0 0 183 45"><path fill="#fff" d="m0 34.13 1.34.16c1.3.17 2.63.16 3.94-.03 1.95-.23 3.85-.82 5.58-1.74a16.52 16.52 0 0 0 8.8-17.55c-.05-.24 0-.3.25-.21 1.89.65 3.64 1.64 5.16 2.93a15.45 15.45 0 0 1 5.4 10.67 15.3 15.3 0 0 1-4.75 12.21 15.55 15.55 0 0 1-6.69 3.78 15.75 15.75 0 0 1-13.57-2.54 15.5 15.5 0 0 1-5.43-7.5 1.04 1.04 0 0 1-.03-.18zm67.42-4.22c0 2.71-.8 5.36-2.28 7.64A15.22 15.22 0 0 1 59.08 43a17.6 17.6 0 0 1-19.65-2.34 15.28 15.28 0 0 1-3.65-4.89 13.8 13.8 0 0 1-1.29-6.06c0-2.08.44-4.13 1.32-6.03a15.1 15.1 0 0 1 3.62-4.86 15.7 15.7 0 0 1 5.3-3.2 18.35 18.35 0 0 1 12.44 0l.65.28.64.28V4.46l8.96.03zm-12.78-6.37a7.48 7.48 0 0 0-7.38 0 8.04 8.04 0 0 0-2.78 2.62 6.82 6.82 0 0 0 1.22 8.67 7.53 7.53 0 0 0 10.53 0 6.9 6.9 0 0 0 2.25-5.12 6.35 6.35 0 0 0-1.03-3.55 8.04 8.04 0 0 0-2.8-2.62zm38.09-7.92c1.88.74 3.6 1.81 5.08 3.17a14.83 14.83 0 0 1 4.74 10.87v.39l-.03.16-.05.48h-3.48v.05H79.7c.2 1.53.92 2.95 2.04 4.03a7.05 7.05 0 0 0 7.8 1.56 6.95 6.95 0 0 0 2.3-1.56l.06-.05.09-.12.08-.08.06-.08 4.83 6.83a16.55 16.55 0 0 1-4.22 2.53 16.39 16.39 0 0 1-13.72-.86 14.98 14.98 0 0 1-6.74-19.28c.81-1.83 2-3.48 3.48-4.84a16.18 16.18 0 0 1 11.03-4.31c2.04-.02 4.06.36 5.95 1.11zm-.45 9.59a8.04 8.04 0 0 0-1.97-1.72 7.08 7.08 0 0 0-7.08 0 8.04 8.04 0 0 0-1.97 1.72zm28.61-2.17a3.47 3.47 0 0 0-1.83-.52h-.5c-2.28.08-3.43 1.67-3.43 4.72v16.84h-8.98V27.24c0-8.09 4.13-12.34 12.4-12.76h.51c.62.03 1.22.08 1.83.17zm7.96-10.78c-.81.02-1.62-.2-2.33-.61a4.68 4.68 0 0 1-2.34-4.06 4.4 4.4 0 0 1 .62-2.33 5 5 0 0 1 1.72-1.7 4.4 4.4 0 0 1 2.33-.61 4.5 4.5 0 0 1 4.05 2.3 4.78 4.78 0 0 1 0 4.7 4.8 4.8 0 0 1-4.04 2.31zm4.64 3.4v28.48h-8.96V15.67zm4.03-11.02 8.96-.02v39.4l-8.96.12zm36.55 38.61c-.7.3-1.15.47-1.32.53a17.63 17.63 0 0 1-14.34-.84 15.68 15.68 0 0 1-6.08-5.44 14.05 14.05 0 0 1-2.27-7.82 14.35 14.35 0 0 1 4.94-10.9 17.78 17.78 0 0 1 17.74-3.16 15.96 15.96 0 0 1 8.94 8 14.3 14.3 0 0 1 1.32 6.07l-.03 14.48-8.9-.09zm-7.55-20.7a7.18 7.18 0 0 0-3.68.94 8.03 8.03 0 0 0-2.78 2.61 6.76 6.76 0 0 0 1.22 8.67 7.6 7.6 0 0 0 10.53 0 6.83 6.83 0 0 0 1.21-8.67 8 8 0 0 0-2.78-2.61 7.5 7.5 0 0 0-3.72-.95z"/><path fill="#fff" fill-rule="evenodd" d="m7.17 14.24 1.08 3.29h3.49l-2.84 2 1.1 3.3-2.82-2.04-2.81 2.04 1.08-3.29-2.82-2.02H6.1zM17.9 0l1.07 3.29 3.49-.01-2.83 2.03 1.09 3.28-2.82-2.04-2.82 2.04 1.09-3.28-2.83-2.03h3.49z" clip-rule="evenodd"/></svg>
