<svg class="comments__header-icon" width="20" height="20" viewBox="0 0 512 512" fill="none" xmlns="http://www.w3.org/2000/svg">
   <path d="M472.574 66H39.4262C17.7148 66 0 83.5352 0 105.026V406.974C0 428.465 17.7148 446 39.4262 446H472.574C494.285 446 512 428.465 512 406.974V105.026C512 83.5352 494.285 66 472.574 66ZM466.849 94.8689L258.7 271.076L50.5519 94.8689H466.849ZM482.835 406.974C482.835 412.533 478.191 417.131 472.574 417.131H39.4262C33.8093 417.131 29.1646 412.533 29.1646 406.974V114.756L249.195 301.014C249.303 301.121 249.519 301.228 249.627 301.335C249.735 301.442 249.951 301.549 250.059 301.656C250.383 301.869 250.599 302.083 250.923 302.19C251.031 302.297 251.139 302.297 251.247 302.404C251.679 302.618 252.111 302.832 252.543 303.046C252.651 303.046 252.759 303.152 252.868 303.152C253.192 303.259 253.516 303.473 253.948 303.58C254.056 303.58 254.272 303.687 254.38 303.687C254.704 303.794 255.028 303.901 255.352 303.901C255.46 303.901 255.676 304.008 255.784 304.008C256.108 304.115 256.54 304.115 256.864 304.222C256.972 304.222 257.08 304.222 257.188 304.222C257.62 304.222 258.16 304.329 258.592 304.329C259.024 304.329 259.565 304.329 259.997 304.222C260.105 304.222 260.213 304.222 260.321 304.222C260.645 304.222 261.077 304.115 261.401 304.008C261.509 304.008 261.725 303.901 261.833 303.901C262.157 303.794 262.481 303.687 262.805 303.687C262.913 303.687 263.129 303.58 263.237 303.58C263.561 303.473 263.885 303.366 264.317 303.152C264.425 303.152 264.533 303.046 264.641 303.046C265.073 302.832 265.505 302.618 265.938 302.404C266.046 302.297 266.154 302.297 266.262 302.19C266.586 301.976 266.802 301.869 267.126 301.656C267.234 301.549 267.45 301.442 267.558 301.335C267.666 301.228 267.882 301.121 267.99 301.014L482.835 119.354V406.974Z"
    fill="#9FAEB5"></path>
</svg>