<svg class="comments__header-icon" width="20" height="20" viewBox="0 0 512 512" fill="none" xmlns="http://www.w3.org/2000/svg">
   <path d="M384.001 336C375.381 335.997 366.85 337.741 358.923 341.126C350.996 344.512 343.838 349.47 337.881 355.7L189.881 272.43C192.748 261.664 192.748 250.336 189.881 239.57L337.881 156.3C348.658 167.473 363.139 174.334 378.612 175.597C394.084 176.859 409.486 172.437 421.933 163.159C434.379 153.881 443.015 140.383 446.224 125.194C449.432 110.006 446.993 94.1682 439.362 80.6489C431.732 67.1297 419.434 56.8563 404.773 51.7534C390.112 46.6505 374.093 47.0682 359.718 52.9283C345.342 58.7883 333.597 69.6887 326.681 83.5872C319.766 97.4858 318.155 113.429 322.151 128.43L174.151 211.7C165.31 202.482 153.914 196.12 141.428 193.433C128.942 190.745 115.938 191.855 104.088 196.619C92.2379 201.383 82.0842 209.584 74.9332 220.166C67.7822 230.748 63.9609 243.228 63.9609 256C63.9609 268.772 67.7822 281.251 74.9332 291.834C82.0842 302.416 92.2379 310.616 104.088 315.381C115.938 320.145 128.942 321.254 141.428 318.567C153.914 315.879 165.31 309.517 174.151 300.3L322.151 383.57C318.719 396.488 319.419 410.157 324.151 422.658C328.884 435.159 337.411 445.865 348.537 453.272C359.664 460.68 372.83 464.418 386.189 463.963C399.548 463.507 412.429 458.88 423.024 450.73C433.619 442.581 441.397 431.319 445.266 418.525C449.135 405.731 448.901 392.046 444.597 379.391C440.293 366.736 432.134 355.747 421.267 347.965C410.399 340.183 397.368 335.999 384.001 336Z" fill="#9FAEB5"/>
</svg>