<?xml version="1.0" encoding="utf-8"?>
<!-- Generator: Adobe Illustrator 21.1.0, SVG Export Plug-In . SVG Version: 6.00 Build 0)  -->
<svg version="1.1" id="Слой_1" xmlns="http://www.w3.org/2000/svg" xmlns:xlink="http://www.w3.org/1999/xlink" x="0px" y="0px"
	 viewBox="0 0 20 20" style="enable-background:new 0 0 20 20;" xml:space="preserve">
<style type="text/css">
	.st0{fill:#FF4500;}
	.st1{fill:#FFFFFF;}
</style>
<g>
	<circle class="st0" cx="10" cy="10" r="10"/>
	<path class="st1" d="M16.7,10c0-0.8-0.7-1.4-1.5-1.4c-0.4,0-0.7,0.2-1,0.4c-1.1-0.8-2.5-1.2-3.8-1.2L11,4.7l2.1,0.4
		C13.2,5.6,13.7,6,14.2,6c0.5-0.1,0.9-0.6,0.9-1.1S14.6,3.9,14,4c-0.3,0-0.6,0.2-0.8,0.5L10.8,4c-0.2,0-0.3,0.1-0.4,0.2c0,0,0,0,0,0
		L9.7,7.7C8.3,7.7,7,8.2,5.8,8.9C5.2,8.4,4.3,8.4,3.7,9c-0.6,0.6-0.5,1.5,0.1,2.1c0.1,0.1,0.2,0.2,0.4,0.3c0,0.1,0,0.3,0,0.4
		c0,2.2,2.6,4.1,5.8,4.1s5.8-1.8,5.8-4.1c0-0.1,0-0.3,0-0.4C16.4,11.1,16.7,10.6,16.7,10z M6.7,11c0-0.6,0.4-1,1-1s1,0.4,1,1
		s-0.4,1-1,1S6.7,11.6,6.7,11z M12.5,13.8c-0.7,0.5-1.6,0.8-2.5,0.8c-0.9,0-1.8-0.2-2.5-0.8c-0.1-0.1-0.1-0.3,0-0.4
		c0.1-0.1,0.2-0.1,0.3,0C8.5,13.8,9.3,14,10,14c0.7,0,1.5-0.2,2.1-0.6c0.1-0.1,0.3-0.1,0.4,0S12.6,13.7,12.5,13.8L12.5,13.8
		L12.5,13.8z M12.3,12c-0.6,0-1-0.4-1-1s0.4-1,1-1s1,0.4,1,1C13.3,11.6,12.9,12.1,12.3,12C12.3,12.1,12.3,12.1,12.3,12L12.3,12z"/>
</g>
<path class="st0" d="M14.9,6.3l-2.5-0.5c-1.1-0.2-1.9-1.3-1.6-2.4l0,0c0.2-1.1,1.3-1.9,2.4-1.6l2.5,0.5c1.1,0.2,1.9,1.3,1.6,2.4v0
	C17.1,5.8,16,6.5,14.9,6.3z"/>
<circle class="st1" cx="8.2" cy="3.6" r="1"/>
<path class="st1" d="M10.7,4.5L9.1,4.1C8.9,4,8.8,3.9,8.9,3.7v0c0-0.2,0.2-0.3,0.4-0.2l1.7,0.4c0.2,0,0.3,0.2,0.2,0.4v0
	C11,4.4,10.9,4.5,10.7,4.5z"/>
<path class="st1" d="M10.6,5.2L10.6,5.2c-0.1,0-0.2-0.2-0.2-0.3l0.2-0.7c0-0.1,0.2-0.2,0.3-0.2l0,0c0.1,0,0.2,0.2,0.2,0.3L10.9,5
	C10.9,5.1,10.8,5.2,10.6,5.2z"/>
</svg>
