<svg width="369.9" height="105" xmlns="http://www.w3.org/2000/svg"><path fill="#2671B9" d="M85.8 30.6h-.4c-.2-.6-.5-1.1-.7-1.7C81.8 20.9 78.9 13 76 5c-.4-1.1-.9-1.4-2-1.4H59.2c-1.1 0-1.5.3-1.5 1.5v40.1c0 1.1.4 1.4 1.5 1.4 2.5-.1 5.1-.1 7.6 0 1.5.1 1.9-.3 1.9-1.8-.1-9.1 0-18.1 0-27.2V16h.4c.2.5.5 1 .7 1.5 3.4 9.2 6.8 18.4 10.2 27.7.4 1.1.9 1.6 2.1 1.5 2.3-.1 4.6-.1 6.9 0 1.2 0 1.7-.3 2.1-1.5 3.3-9.2 6.8-18.5 10.2-27.7.2-.5.5-1 .7-1.5.1 0 .2.1.4.1V45c0 1.3.4 1.7 1.7 1.6 2.6-.1 5.2-.1 7.7 0 1.2 0 1.6-.4 1.6-1.6V5.2c0-1.2-.4-1.6-1.6-1.6-4.8 0-9.6.1-14.5 0-1.2 0-1.7.4-2.1 1.5-1.8 5.3-3.8 10.5-5.7 15.8-1.3 3.2-2.5 6.4-3.7 9.7zM348.9 29.5c-.1 0-.3.1-.4.1-.4-.5-.8-1-1.1-1.5L331.8 4.7c-.5-.7-1-1.2-2-1.2H318c-1 0-1.4.3-1.4 1.4v40.2c0 1 .4 1.4 1.4 1.3 2.7-.1 5.5-.1 8.2 0 1.3 0 1.7-.3 1.7-1.6-.1-7.9 0-15.8 0-23.7v-1.7c.1 0 .3-.1.4-.1l1.2 1.5c5.4 8.1 10.7 16.1 16.1 24.3.6 1 1.3 1.4 2.5 1.3 3.5-.1 7-.1 10.5 0 1.1 0 1.5-.2 1.5-1.5V5c0-1.3-.5-1.6-1.6-1.5-2.4.1-4.8 0-7.2 0-2.2 0-2.2 0-2.2 2.1v21.8c-.1.8-.1 1.4-.2 2.1zM122.4 25.1V45M243.2 80.8v19.9c0 1 .2 1.5 1.4 1.5h33.5c1 0 1.4-.4 1.4-1.4 0-2.1-.1-4.2 0-6.3 0-1.3-.4-1.7-1.7-1.7-4 .1-8.1 0-12.1 0h-9.2c-2 0-2 0-2-1.9 0-1.2.1-2.4 0-3.7-.2-1.5.5-1.9 1.9-1.9 7 .1 13.9 0 20.9.1 1.2 0 1.6-.4 1.6-1.6-.1-1.8 0-3.7 0-5.6 0-2.3 0-2.3-2.3-2.3H256c-1.1 0-1.6-.3-1.5-1.5.1-1.4.1-2.7 0-4.1-.1-1.3.3-1.8 1.7-1.7 7.3.1 14.5 0 21.8 0 1.1 0 1.6-.3 1.5-1.5-.1-2-.1-4.1 0-6.1.1-1.4-.3-1.9-1.8-1.8-10.9.1-21.8.1-32.8 0-1.4 0-1.7.5-1.7 1.8.1 6.6 0 13.2 0 19.8zM68.9 76v-4.1c0-3.1 0-3.1 3-3.1h20.3c1.2 0 1.6-.3 1.6-1.6-.1-2.1-.1-4.3 0-6.4 0-1.2-.4-1.5-1.5-1.5-1.4.1-2.7 0-4.1 0H59.3c-1.2 0-1.7.3-1.6 1.6.1 1.2 0 2.3 0 3.5v36.1c0 1.1.1 1.7 1.4 1.7h33.3c1 0 1.4-.3 1.4-1.3-.1-2.1-.1-4.3 0-6.4 0-1.2-.4-1.6-1.6-1.6-3.5.1-6.9 0-10.4 0H70.4c-1.2 0-1.7-.4-1.6-1.6.1-1.3.1-2.6 0-3.9-.1-1.5.4-1.9 1.9-1.9 7 .1 13.9 0 20.9.1 1.2 0 1.7-.3 1.6-1.5-.1-2.1-.1-4.3 0-6.4 0-1.1-.3-1.5-1.5-1.5-4.6.1-9.3 0-13.9 0-2.8-.2-5.7-.2-8.9-.2zM366 59.3h-1.7c-7.3 0-14.6-.1-21.9.1-2.5.1-5.1.5-7.4 1.5-8.8 3.5-9.7 14.9-4.9 20.3 2.5 2.9 5.8 4.1 9.4 4.2 3.8.2 7.6 0 11.4.1.8 0 1.6.1 2.3.3 1.6.5 2.6 1.9 2.5 3.5-.1 1.6-1.3 3-3 3.3-.9.1-1.7.2-2.6.2h-19.9c-1.3 0-1.8.4-1.7 1.8.1 2 .1 4.1 0 6.1 0 1 .3 1.5 1.4 1.5 8-.1 16 0 24-.1 3 0 5.8-1.1 8.2-3.1 4.4-3.7 5.5-8.4 4.4-13.8-.7-3.8-2.9-6.5-6.6-7.7-2.4-.8-4.9-1.2-7.4-1.3-3.4-.2-6.9 0-10.4-.1-2.9-.1-4.7-2.7-3.5-5.1.8-1.6 2.3-2.1 4.1-2.1h17.5c.5 0 1.3-.2 1.5-.5 1.6-3.1 2.9-5.9 4.3-9.1zM323.5 59.3h-1.6c-7.3 0-14.6-.1-21.9 0-2 0-4.1.3-6 .9-10.9 3.4-11.1 16.1-5.9 21.3 2.5 2.5 5.6 3.7 9.1 3.8 3.7.2 7.5 0 11.3.1.7 0 1.4.1 2 .2 2.1.5 3 1.8 2.9 3.9-.1 1.7-1.3 2.9-3.3 3.1-.8.1-1.6.1-2.5.1H288c-1.3 0-1.8.4-1.7 1.7.1 2 .1 4.1 0 6.1 0 1.1.3 1.6 1.5 1.6 7.7-.1 15.5 0 23.2-.1 2 0 4.2-.6 6-1.4 6.2-2.7 8.3-8.7 7.3-14.9-.7-4.3-3.2-7.2-7.2-8.6-2.1-.7-4.5-1-6.7-1.1-3.5-.2-6.9 0-10.4-.1-2.3 0-3.8-1.4-3.9-3.5 0-2.1 1.4-3.5 3.7-3.7H318c.6 0 1.4-.2 1.6-.6 1.2-2.8 2.4-5.7 3.9-8.8zM122.3 72.7c-.3-.6-.5-1-.8-1.4-3.1-3.6-6.2-7.3-9.4-10.9-.4-.5-1-1.1-1.6-1.1-4.5-.1-9-.1-13.9-.1.9 1 1.5 1.8 2.2 2.5 5.1 5.8 10.2 11.5 15.4 17.2 1.1 1.2 1 1.9 0 3-3.6 3.9-7.1 7.9-10.6 11.9-2.3 2.6-4.7 5.3-7.1 8 .3.1.4.2.6.2h12.4c.6 0 1.3-.4 1.7-.9 2.1-2.3 4.1-4.7 6.1-7.1 1.6-1.9 3.2-3.7 5.1-5.9.5.7.7 1.1 1.1 1.5 3.2 3.8 6.5 7.5 9.7 11.3.7.8 1.4 1.1 2.4 1.1H147c.4 0 .8-.1 1.5-.1-.6-.7-1-1.2-1.4-1.6-5.5-6.3-11.1-12.6-16.7-18.8-.8-.9-.9-1.5 0-2.5 5.3-5.9 10.6-11.8 15.9-17.8.5-.6 1-1.1 1.6-1.9h-13.3c-.4 0-1 .4-1.3.8-2.4 2.7-4.7 5.4-7.1 8.2-1.2 1.3-2.3 2.7-3.9 4.4zM260.1 37c-2.5 0-4.8.1-7 0-5.7-.2-9.3-2.9-10.5-7.9-.6-2.7-.7-5.4 0-8.1 1-3.9 3.4-6.4 7.4-7.2 1.6-.3 3.3-.4 4.9-.5 3.3-.1 6.5 0 9.8 0 .8 0 1.5 0 1.4-1.1 0-2.5 0-5-.1-7.5 0-.4-.6-1-1-1-5.9.1-11.8-.2-17.7.5-7.1.8-12.3 4.9-14.9 11.8-1.7 4.5-2 9.2-1.2 13.9 1 6.2 4 11.2 9.8 14.3 4.4 2.3 9.1 2.5 13.9 2.4.3 0 .7-.2.8-.5 1.5-3 2.9-5.9 4.4-9.1zM213.3 24.9v20c0 1.1.3 1.6 1.5 1.5 2.7-.1 5.5-.1 8.2 0 1.1 0 1.4-.4 1.4-1.5V5c0-1.2-.5-1.6-1.6-1.6-2.5.1-5 0-7.5 0-2 0-2 0-2 1.9v19.6z"/><path fill="#2671B9" d="M85.8 30.6c1.2-3.2 2.4-6.5 3.5-9.7 1.9-5.3 3.8-10.5 5.7-15.8.4-1.1.9-1.5 2.1-1.5 4.8.1 9.6.1 14.5 0 1.2 0 1.6.4 1.6 1.6V45c0 1.2-.3 1.6-1.6 1.6-2.6-.1-5.2-.1-7.7 0-1.3 0-1.7-.3-1.7-1.6.1-9.1 0-18.1 0-27.2v-1.7c-.1 0-.2-.1-.4-.1-.3.5-.6 1-.7 1.5-3.4 9.2-6.8 18.4-10.2 27.7-.4 1.1-.9 1.5-2.1 1.5-2.3-.1-4.6-.1-6.9 0-1.2.1-1.7-.4-2.1-1.5C76.5 36 73 26.7 69.6 17.5c-.2-.5-.5-1-.7-1.5h-.4v28.8c0 1.5-.5 1.9-1.9 1.8-2.5-.1-5.1-.1-7.6 0-1 0-1.5-.2-1.5-1.4V5.1c0-1.2.4-1.5 1.5-1.5h14.8c1.1 0 1.6.4 2 1.4 2.8 8 5.8 15.9 8.7 23.9.2.6.5 1.1.7 1.7h.6zM348.9 29.5c0-.7.1-1.3.1-2V5.7c0-2.1 0-2.1 2.2-2.1h7.2c1.1 0 1.6.3 1.6 1.5V45c0 1.2-.4 1.5-1.5 1.5-3.5-.1-7-.1-10.5 0-1.2 0-1.9-.4-2.5-1.3-5.3-8.1-10.7-16.2-16.1-24.3l-1.2-1.5c-.1 0-.3.1-.4.1v25.4c0 1.3-.4 1.7-1.7 1.6-2.7-.1-5.5-.1-8.2 0-1 0-1.4-.3-1.4-1.3V5c0-1 .4-1.4 1.4-1.4h11.8c1 0 1.5.5 2 1.2l15.6 23.4c.3.5.7 1 1.1 1.5.2-.1.4-.2.5-.2zM195.1 31c4.8 5.3 9.4 10.3 14.1 15.4-.3.1-.5.1-.7.1-3.9 0-7.9.1-11.8 0-.7 0-1.5-.6-2-1.1-3.9-4.3-7.6-8.7-11.4-13.1-.7-.8-4-1.4-4.9-.8-.3.2-.5.9-.5 1.4 0 4-.1 8 0 12 0 1.4-.4 1.8-1.7 1.7-2.7-.1-5.4-.1-8 0-1 0-1.5-.3-1.5-1.4v-40c0-1.2.4-1.5 1.5-1.5 8.5.1 17 0 25.4.2 6.8.1 12.2 5 13.2 11.6 1 6.7-3.2 13.1-9.8 15-.6 0-1 .2-1.9.5zm-10.2-8.9H190.8c2.9-.2 4.7-1.9 4.8-4.3.1-2.6-1.6-4.5-4.5-4.7-4-.2-8-.2-12-.2-.9 0-1.3.4-1.3 1.3v6.6c0 1 .4 1.4 1.4 1.3h5.7zM207.9 87.3c0 .6-.1 1.3-.1 2v11.3c0 1.2-.4 1.6-1.6 1.6-2.7-.1-5.4-.1-8 0-1.1 0-1.5-.3-1.5-1.4v-40c0-1.1.4-1.4 1.4-1.4 8.1 0 16.2-.1 24.3.1 6.2.1 11.6 3 13.6 9 2.4 7.3-.7 15.1-8.8 17.7l-2.1.7c4.7 5.1 9.2 10.1 14 15.3-.8.1-1.3.1-1.8.1h-10.2c-1.2 0-2-.4-2.7-1.3-3.5-4.1-7-8.1-10.5-12.2-1.7-1.9-2.6-2.1-6-1.5zm6.9-18.7v.1h-5.6c-1 0-1.5.3-1.4 1.3v6.6c0 .9.4 1.3 1.3 1.3 4-.1 8.1 0 12.1-.2 2.4-.1 4-1.6 4.2-3.7.2-2.7-.9-4.6-3.5-5-2.4-.3-4.8-.3-7.1-.4zM122.4 25.1V5.4c0-1.3.3-1.8 1.7-1.8h33c1.3 0 1.7.4 1.6 1.7-.1 1.8 0 3.7 0 5.6 0 2.1 0 2.1-2.2 2.1h-20.8c-2.2 0-2.2 0-2.2 2.2 0 1.2.1 2.4 0 3.7-.1 1.2.4 1.6 1.6 1.6h21.6c1 0 1.4.3 1.3 1.4-.1 2.1-.1 4.3 0 6.4.1 1.3-.5 1.6-1.6 1.6h-20.6c-2.3 0-2.3 0-2.3 2.3 0 1.1.1 2.2 0 3.2-.1 1.4.3 1.9 1.9 1.9 7.1-.1 14.2 0 21.3 0 2 0 2 0 2 2v6.1c0 .9-.3 1.3-1.3 1.3h-33.8c-1.2 0-1.3-.6-1.3-1.5.2-6.8.1-13.5.1-20.1zM243.2 80.8V61.1c0-1.3.3-1.8 1.7-1.8 10.9.1 21.8.1 32.8 0 1.5 0 1.9.5 1.8 1.8-.1 2-.1 4.1 0 6.1 0 1.2-.4 1.5-1.5 1.5h-21.8c-1.4 0-1.8.4-1.7 1.7.1 1.4.1 2.7 0 4.1-.1 1.2.4 1.5 1.5 1.5h20.6c2.3 0 2.3 0 2.3 2.3 0 1.9-.1 3.7 0 5.6.1 1.2-.4 1.6-1.6 1.6-7 0-13.9 0-20.9-.1-1.4 0-2.1.3-1.9 1.9.1 1.2 0 2.4 0 3.7 0 1.9 0 1.9 2 1.9H277.8c1.3 0 1.7.4 1.7 1.7-.1 2.1 0 4.2 0 6.3 0 1-.3 1.4-1.4 1.4h-33.5c-1.2 0-1.4-.5-1.4-1.5.1-6.8 0-13.4 0-20zM68.9 76h22.9c1.2 0 1.5.4 1.5 1.5-.1 2.1-.1 4.3 0 6.4.1 1.3-.5 1.5-1.6 1.5-7 0-13.9 0-20.9-.1-1.5 0-2 .4-1.9 1.9.1 1.3.1 2.6 0 3.9-.1 1.2.4 1.6 1.6 1.6h21.8c1.2 0 1.7.3 1.6 1.6-.1 2.1-.1 4.3 0 6.4 0 1-.4 1.3-1.4 1.3H59.2c-1.4 0-1.4-.7-1.4-1.7V64.2c0-1.2.1-2.3 0-3.5-.1-1.2.4-1.6 1.6-1.6h28.9c1.4 0 2.7.1 4.1 0 1.1-.1 1.6.3 1.5 1.5-.1 2.1-.1 4.3 0 6.4 0 1.2-.4 1.6-1.6 1.6H72c-3 0-3 0-3 3.1-.1 1.4-.1 2.7-.1 4.3zM54.9 46.5H43.2c-.4 0-1-.6-1.2-1-1-2.1-1.9-4.3-2.7-6.5-.4-.9-.9-1.2-1.9-1.2H19.7c-1 0-1.5.3-1.9 1.2-.9 2.2-1.7 4.3-2.7 6.5-.2.5-.8 1.1-1.2 1.1-3.7.1-7.5 0-11.5 0 .3-.8.6-1.4.8-2C9.1 31.3 15 18.2 20.7 5c.5-1.1 1.1-1.5 2.3-1.5 3.9.1 7.8 0 11.7 0 .9 0 1.4.2 1.8 1.1 6 13.7 12.1 27.3 18.1 41 .1.2.1.4.3.9zm-20-18c-2.1-5-4.1-9.8-6.1-14.5h-.5c-2 4.8-4 9.6-6.1 14.6 4.3-.1 8.3-.1 12.7-.1zM313.9 46.5h-11.8c-.4 0-.8-.6-1-1-1-2.2-1.9-4.4-2.8-6.6-.3-.8-.8-1.2-1.8-1.2h-17.8c-1 0-1.5.4-1.8 1.3-.8 2.1-1.7 4.1-2.5 6.2-.4.9-.9 1.4-1.9 1.3-3.5-.1-7 0-10.7 0 .2-.6.3-1 .4-1.3C268 32 273.9 18.8 279.7 5.5c.6-1.4 1.4-2 2.9-1.9 3.7.1 7.5.1 11.3 0 .9 0 1.5.3 1.9 1.2 5.9 13.5 11.9 27 17.8 40.5 0 .3.1.7.3 1.2zm-20-18.1c-2.1-5-4.1-9.8-6.1-14.5h-.5c-2 4.8-4 9.5-6.1 14.5h12.7zM366 59.3c-1.5 3.2-2.7 6-4.1 8.9-.2.3-1 .5-1.5.5h-17.5c-1.7 0-3.2.5-4.1 2.1-1.2 2.4.6 5.1 3.5 5.1 3.5.1 6.9-.1 10.4.1 2.5.2 5 .6 7.4 1.3 3.6 1.2 5.8 4 6.6 7.7 1.1 5.4 0 10.2-4.4 13.8-2.3 2-5.2 3-8.2 3.1-8 .1-16 .1-24 .1-1.1 0-1.4-.4-1.4-1.5.1-2 .1-4.1 0-6.1-.1-1.4.4-1.8 1.7-1.8 6.6.1 13.3 0 19.9 0 .9 0 1.8 0 2.6-.2 1.7-.3 2.9-1.7 3-3.3.1-1.6-.9-3-2.5-3.5-.7-.2-1.5-.3-2.3-.3-3.8 0-7.6.1-11.4-.1-3.6-.2-6.9-1.4-9.4-4.2-4.9-5.5-4-16.8 4.9-20.3 2.3-.9 4.9-1.4 7.4-1.5 7.3-.2 14.6-.1 21.9-.1.3.2.7.2 1.5.2zM323.5 59.3c-1.4 3.1-2.7 6-4.1 8.8-.2.4-1.1.6-1.6.6h-18.2c-2.3.2-3.7 1.7-3.7 3.7s1.6 3.5 3.9 3.5c3.5 0 6.9-.1 10.4.1 2.3.1 4.6.4 6.7 1.1 4.1 1.3 6.5 4.3 7.2 8.6 1 6.2-1.1 12.2-7.3 14.9-1.9.8-4 1.4-6 1.4-7.7.2-15.5.1-23.2.1-1.2 0-1.5-.4-1.5-1.6.1-2 .1-4.1 0-6.1-.1-1.3.5-1.7 1.7-1.7h19.6c.8 0 1.7-.1 2.5-.1 2-.2 3.2-1.3 3.3-3.1.2-2.1-.8-3.4-2.9-3.9-.7-.2-1.3-.2-2-.2-3.8 0-7.5.1-11.3-.1-3.4-.2-6.5-1.3-9.1-3.8-5.2-5.2-4.9-17.9 5.9-21.3 1.9-.6 4-.9 6-.9 7.3-.1 14.6 0 21.9 0h1.8zM122.3 72.7c1.5-1.8 2.7-3.1 3.9-4.4 2.4-2.7 4.7-5.5 7.1-8.2.3-.4.9-.8 1.3-.8 4.3-.1 8.7 0 13.3 0-.7.8-1.1 1.4-1.6 1.9-5.3 5.9-10.5 11.9-15.9 17.8-.9 1-.8 1.6 0 2.5 5.6 6.3 11.1 12.5 16.7 18.8.4.5.8.9 1.4 1.6-.7.1-1.1.1-1.5.1h-11.4c-1 0-1.7-.3-2.4-1.1-3.2-3.8-6.5-7.5-9.7-11.3-.3-.4-.6-.9-1.1-1.5-1.9 2.2-3.5 4-5.1 5.9-2 2.4-4 4.8-6.1 7.1-.4.5-1.1.9-1.7.9-4.1.1-8.3 0-12.4 0-.1 0-.3-.1-.6-.2 2.4-2.7 4.8-5.4 7.1-8 3.5-4 7-8 10.6-11.9 1-1.1 1.1-1.8 0-3-5.2-5.7-10.3-11.5-15.4-17.2-.7-.7-1.3-1.5-2.2-2.5 4.8 0 9.4 0 13.9.1.5 0 1.2.7 1.6 1.1 3.1 3.6 6.2 7.2 9.4 10.9.3.4.5.8.8 1.4zM164.7 59.3c4 0 8.1-.1 12.1 0 5.7.2 10.5 2.4 13 7.8 3.7 8 .4 18.8-10.7 20.6-1 .2-1.9.2-2.9.3-4.2 0-8.4.1-12.6 0-1.3 0-1.7.3-1.7 1.6.1 3.7 0 7.3 0 11 0 1.1-.3 1.6-1.5 1.5-2.8-.1-5.6-.1-8.3 0-1.1 0-1.4-.4-1.4-1.4v-40c0-1.1.4-1.4 1.4-1.4h12.6zm4.5 19.3h5.7c3.1 0 5.1-1.8 5.2-4.6.1-2.9-1.8-5.2-4.8-5.3-4-.1-8.1 0-12.1-.1-.8 0-1.1.3-1.1 1.1v7.6c0 .9.3 1.2 1.2 1.2 1.9.1 3.9.1 5.9.1zM260.1 37c-1.5 3.2-2.9 6.1-4.3 8.9-.1.2-.5.5-.8.5-4.8.2-9.5-.1-13.9-2.4-5.8-3-8.8-8-9.8-14.3-.8-4.7-.5-9.4 1.2-13.9C235.1 9 240.3 4.9 247.4 4c5.8-.7 11.8-.4 17.7-.5.3 0 1 .7 1 1 .1 2.5 0 5 .1 7.5 0 1.1-.6 1.1-1.4 1.1-3.3 0-6.5-.1-9.8 0-1.6 0-3.3.1-4.9.5-4 .8-6.4 3.3-7.4 7.2-.7 2.7-.7 5.4 0 8.1 1.2 5 4.9 7.8 10.5 7.9 2.1.3 4.3.2 6.9.2zM213.3 24.9V5.5c0-1.9 0-1.9 2-1.9h7.5c1.2 0 1.6.3 1.6 1.6v39.9c0 1-.3 1.5-1.4 1.5-2.7-.1-5.5-.1-8.2 0-1.2 0-1.5-.4-1.5-1.5.1-6.8 0-13.5 0-20.2z"/></svg>