<svg width="151" height="24" viewBox="0 0 151 24" fill="none" xmlns="http://www.w3.org/2000/svg">
    <path d="M17.2552 7.47934L24.4841 8.53282C24.6422 8.55594 24.7906 8.62267 24.9126 8.72546C25.0346 8.82826 25.1253 8.96302 25.1746 9.11453C25.2238 9.26603 25.2295 9.42824 25.1911 9.58282C25.1527 9.7374 25.0717 9.87818 24.9572 9.98927L19.7214 15.068C19.622 15.1646 19.5476 15.2838 19.5045 15.4154C19.4615 15.547 19.4512 15.687 19.4744 15.8235L20.7035 23.0026C20.7303 23.1596 20.7126 23.321 20.6522 23.4685C20.5918 23.616 20.4912 23.7437 20.3618 23.8372C20.2324 23.9307 20.0793 23.9862 19.9199 23.9975C19.7605 24.0088 19.6011 23.9754 19.4598 23.9011L12.9975 20.5064C12.8746 20.442 12.7379 20.4084 12.5991 20.4084C12.4602 20.4084 12.3235 20.442 12.2006 20.5064L5.73126 23.8896C5.58974 23.9642 5.43004 23.9979 5.27031 23.9866C5.11058 23.9753 4.95723 23.9196 4.82767 23.8258C4.69812 23.732 4.59756 23.6038 4.53743 23.4559C4.47729 23.3079 4.45999 23.1461 4.48749 22.9888L5.73037 15.8115C5.7539 15.6752 5.74388 15.5351 5.70118 15.4035C5.65847 15.2718 5.58434 15.1524 5.48517 15.0556L0.257805 9.96801C0.143548 9.85669 0.0628071 9.71572 0.0247077 9.56104C-0.0133917 9.40637 -0.00733025 9.24415 0.0422071 9.09273C0.0917444 8.9413 0.182782 8.80671 0.305031 8.70417C0.427279 8.60163 0.575863 8.53522 0.733989 8.51245L7.96426 7.47004C8.10161 7.4502 8.23207 7.39739 8.34442 7.31617C8.45677 7.23494 8.54765 7.12773 8.60924 7.00374L11.8479 0.475614C11.9187 0.332853 12.0281 0.212666 12.1638 0.12863C12.2994 0.0445945 12.456 6.10352e-05 12.6157 6.10352e-05C12.7755 6.10352e-05 12.932 0.0445945 13.0677 0.12863C13.2034 0.212666 13.3128 0.332853 13.3835 0.475614L16.6111 7.00906C16.6721 7.13368 16.7626 7.24161 16.8748 7.32355C16.9871 7.40549 17.1176 7.45895 17.2552 7.47934Z" fill="#FDCF00"/>
    <path d="M49.2158 7.47931L56.4456 8.53279C56.6037 8.55584 56.7522 8.62252 56.8743 8.72529C56.9963 8.82806 57.0871 8.96282 57.1364 9.11433C57.1856 9.26585 57.1914 9.42808 57.153 9.58269C57.1146 9.7373 57.0336 9.87812 56.9192 9.98924L51.682 15.068C51.5824 15.1645 51.5079 15.2837 51.4649 15.4153C51.4219 15.5469 51.4116 15.687 51.435 15.8235L52.6637 23.0025C52.6907 23.1596 52.673 23.3211 52.6127 23.4687C52.5524 23.6163 52.4518 23.7441 52.3223 23.8376C52.1928 23.9312 52.0397 23.9867 51.8802 23.9979C51.7207 24.0091 51.5613 23.9755 51.4199 23.901L44.9564 20.5063C44.8335 20.442 44.6969 20.4084 44.5581 20.4084C44.4194 20.4084 44.2827 20.442 44.1599 20.5063L37.6906 23.8895C37.549 23.9642 37.3893 23.9978 37.2296 23.9866C37.0699 23.9753 36.9165 23.9196 36.787 23.8258C36.6574 23.7319 36.5569 23.6038 36.4967 23.4558C36.4366 23.3079 36.4193 23.1461 36.4468 22.9888L37.6879 15.812C37.7115 15.6755 37.7014 15.5355 37.6587 15.4038C37.6159 15.2721 37.5416 15.1528 37.4422 15.056L32.2184 9.96798C32.1042 9.85669 32.0234 9.71576 31.9853 9.56111C31.9472 9.40647 31.9532 9.24428 32.0027 9.09286C32.0522 8.94145 32.1432 8.80686 32.2654 8.70429C32.3876 8.60172 32.5361 8.53526 32.6942 8.51242L39.9249 7.47001C40.0622 7.45017 40.1927 7.39736 40.305 7.31614C40.4174 7.23491 40.5083 7.1277 40.5699 7.00371L43.8085 0.475584C43.8793 0.332823 43.9887 0.212635 44.1244 0.1286C44.2601 0.044564 44.4166 3.05176e-05 44.5763 3.05176e-05C44.7361 3.05176e-05 44.8926 0.044564 45.0283 0.1286C45.164 0.212635 45.2734 0.332823 45.3441 0.475584L48.5717 7.00903C48.6327 7.13369 48.7232 7.24167 48.8354 7.32361C48.9476 7.40556 49.0782 7.459 49.2158 7.47931Z" fill="#FDCF00"/>
    <path d="M80.6901 7.47939L87.9186 8.53287C88.0766 8.55599 88.225 8.62272 88.347 8.72552C88.469 8.82831 88.5598 8.96308 88.609 9.11458C88.6582 9.26609 88.6639 9.42829 88.6255 9.58287C88.5871 9.73745 88.5061 9.87823 88.3916 9.98932L83.1558 15.0681C83.0564 15.1647 82.982 15.2839 82.939 15.4155C82.8961 15.5471 82.8859 15.6871 82.9093 15.8235L84.1366 23.0026C84.1634 23.1597 84.1457 23.3211 84.0853 23.4686C84.0249 23.6161 83.9243 23.7438 83.7949 23.8373C83.6655 23.9307 83.5124 23.9863 83.353 23.9976C83.1936 24.0088 83.0342 23.9754 82.8929 23.9011L76.4297 20.5064C76.3068 20.4421 76.1701 20.4084 76.0313 20.4084C75.8925 20.4084 75.7557 20.4421 75.6328 20.5064L69.167 23.8892C69.0255 23.9639 68.8658 23.9975 68.7061 23.9862C68.5463 23.9749 68.393 23.9192 68.2634 23.8254C68.1339 23.7316 68.0333 23.6034 67.9732 23.4555C67.9131 23.3075 67.8958 23.1457 67.9233 22.9885L69.167 15.8116C69.1905 15.6752 69.1804 15.5351 69.1376 15.4035C69.0948 15.2718 69.0206 15.1525 68.9214 15.0557L63.6927 9.96807C63.5784 9.85677 63.4977 9.71584 63.4596 9.56119C63.4214 9.40655 63.4275 9.24436 63.4769 9.09295C63.5264 8.94153 63.6174 8.80694 63.7396 8.70437C63.8618 8.6018 64.0103 8.53534 64.1684 8.5125L71.3987 7.47009C71.536 7.45025 71.6665 7.39744 71.7789 7.31622C71.8912 7.23499 71.9821 7.12778 72.0437 7.00379L75.2828 0.475663C75.3535 0.332883 75.4628 0.212667 75.5985 0.128608C75.7341 0.0445493 75.8907 0 76.0504 0C76.2101 0 76.3666 0.0445493 76.5023 0.128608C76.6379 0.212667 76.7473 0.332883 76.818 0.475663L80.0455 7.00911C80.1066 7.13374 80.1972 7.24167 80.3095 7.3236C80.4218 7.40553 80.5524 7.459 80.6901 7.47939Z" fill="#FDCF00"/>
    <path d="M111.418 7.47931L118.647 8.53279C118.805 8.55591 118.953 8.62264 119.075 8.72544C119.198 8.82823 119.288 8.963 119.337 9.1145C119.387 9.266 119.392 9.42821 119.354 9.58279C119.316 9.73737 119.235 9.87815 119.12 9.98924L113.884 15.068C113.785 15.1646 113.71 15.2838 113.667 15.4154C113.624 15.547 113.614 15.687 113.637 15.8235L114.866 23.0025C114.893 23.1596 114.875 23.321 114.815 23.4685C114.755 23.616 114.654 23.7437 114.525 23.8372C114.395 23.9307 114.242 23.9862 114.083 23.9975C113.923 24.0088 113.764 23.9754 113.623 23.901L107.16 20.5063C107.037 20.442 106.9 20.4084 106.761 20.4084C106.622 20.4084 106.486 20.442 106.363 20.5063L99.8933 23.8895C99.7518 23.9636 99.5924 23.9967 99.433 23.9852C99.2737 23.9736 99.1207 23.9178 98.9915 23.824C98.8624 23.7303 98.7621 23.6024 98.702 23.4548C98.6419 23.3072 98.6245 23.1458 98.6517 22.9888L99.8928 15.812C99.9164 15.6756 99.9063 15.5356 99.8636 15.4039C99.8209 15.2722 99.7468 15.1529 99.6476 15.056L94.4212 9.96798C94.3067 9.85676 94.2258 9.71582 94.1876 9.56113C94.1494 9.40644 94.1554 9.24417 94.2049 9.09269C94.2544 8.94121 94.3455 8.80658 94.4678 8.70403C94.5901 8.60147 94.7387 8.5351 94.8969 8.51242L102.127 7.47001C102.265 7.45017 102.395 7.39736 102.507 7.31614C102.62 7.23491 102.711 7.1277 102.772 7.00371L106.011 0.475584C106.082 0.332823 106.191 0.212635 106.327 0.1286C106.462 0.044564 106.619 3.05176e-05 106.779 3.05176e-05C106.938 3.05176e-05 107.095 0.044564 107.231 0.1286C107.366 0.212635 107.476 0.332823 107.546 0.475584L110.774 7.00903C110.835 7.13365 110.926 7.24158 111.038 7.32352C111.15 7.40546 111.28 7.45892 111.418 7.47931Z" fill="#FDCF00"/>
    <path d="M143.021 7.47939L150.25 8.53287C150.408 8.55599 150.556 8.62272 150.678 8.72552C150.8 8.82831 150.891 8.96308 150.94 9.11458C150.989 9.26609 150.995 9.42829 150.957 9.58287C150.918 9.73745 150.837 9.87823 150.723 9.98932L145.486 15.0681C145.387 15.1647 145.313 15.2839 145.27 15.4155C145.227 15.5471 145.217 15.6871 145.24 15.8235L146.469 23.0026C146.495 23.1597 146.478 23.3211 146.417 23.4686C146.357 23.6161 146.256 23.7438 146.127 23.8373C145.997 23.9307 145.844 23.9863 145.685 23.9976C145.526 24.0088 145.366 23.9754 145.225 23.9011L138.762 20.5064C138.639 20.4421 138.502 20.4084 138.363 20.4084C138.224 20.4084 138.088 20.4421 137.965 20.5064L131.495 23.8896C131.354 23.9636 131.195 23.9966 131.035 23.985C130.876 23.9733 130.723 23.9175 130.594 23.8238C130.465 23.7301 130.365 23.6022 130.305 23.4547C130.245 23.3071 130.227 23.1458 130.254 22.9889L131.495 15.812C131.519 15.6756 131.509 15.5356 131.466 15.4039C131.423 15.2722 131.349 15.1529 131.25 15.0561L126.024 9.96807C125.91 9.85677 125.829 9.71584 125.791 9.56119C125.753 9.40655 125.759 9.24436 125.808 9.09295C125.858 8.94153 125.949 8.80694 126.071 8.70437C126.193 8.6018 126.341 8.53534 126.5 8.5125L133.73 7.47009C133.867 7.45025 133.998 7.39744 134.11 7.31622C134.222 7.23499 134.313 7.12778 134.375 7.00379L137.614 0.475663C137.685 0.332883 137.794 0.212667 137.93 0.128608C138.065 0.0445493 138.222 0 138.381 0C138.541 0 138.698 0.0445493 138.833 0.128608C138.969 0.212667 139.078 0.332883 139.149 0.475663L142.377 7.01177C142.438 7.13584 142.529 7.24321 142.641 7.32466C142.754 7.40611 142.884 7.4592 143.021 7.47939Z" fill="#E5E5E5"/>
    <path d="M126.018 9.12152C126.069 8.97007 126.159 8.83524 126.281 8.73154C126.404 8.62662 126.555 8.55898 126.716 8.53654L133.938 7.50907C134.076 7.48837 134.208 7.43432 134.32 7.35157C134.433 7.27033 134.523 7.16199 134.583 7.03658L137.838 0.48176C137.907 0.338816 138.017 0.21901 138.153 0.136764C138.286 0.048298 138.443 0.00132841 138.603 0.00177315V20.4087C138.467 20.4073 138.332 20.4409 138.213 20.5062L131.755 23.8961C131.613 23.9727 131.452 24.0066 131.29 23.9936C131.131 23.9835 130.978 23.9289 130.848 23.8361C130.723 23.7405 130.624 23.6138 130.563 23.4686C130.497 23.3203 130.479 23.1553 130.511 22.9962L131.733 15.8188C131.767 15.6859 131.767 15.5468 131.733 15.4139C131.689 15.281 131.614 15.1604 131.515 15.0614L126.266 9.984C126.152 9.87345 126.071 9.73312 126.033 9.57901C125.988 9.43041 125.983 9.27273 126.018 9.12152Z" fill="#FDCF00"/>
</svg>
