<?xml version="1.0" encoding="utf-8"?>
<!-- Svg Vector Icons : http://www.onlinewebfonts.com/icon -->
<!DOCTYPE svg PUBLIC "-//W3C//DTD SVG 1.1//EN" "http://www.w3.org/Graphics/SVG/1.1/DTD/svg11.dtd">
<svg version="1.1" xmlns="http://www.w3.org/2000/svg" xmlns:xlink="http://www.w3.org/1999/xlink" x="0px" y="0px" viewBox="0 0 256 256" enable-background="new 0 0 256 256" xml:space="preserve">
<metadata> Svg Vector Icons : http://www.onlinewebfonts.com/icon </metadata>
<g><g><path fill="#000000" d="M21.9,71.6c0,0,21.5-33.5,55.5-51.4c34-17.9,75.9-12.8,103.3,4.6c27.5,17.4,36.7,32.1,36.7,32.1l23.7-13.6c0,0,4.9-2.5,4.9,3.3v85.4c0,0,0,7.6-5.7,4.9c-4.8-2.3-56.8-32.1-73.1-41.5c-9-4-1.1-7.3-1.1-7.3l22.8-13.2c0,0-13-16.5-32.1-25.2c-20.4-10.7-39.5-11.9-62.9-3c-15.2,5.8-33.2,20.7-46.1,42.7L21.9,71.6L21.9,71.6z"/><path fill="#000000" d="M234.1,184.4c0,0-21.5,33.5-55.5,51.4c-34,17.9-75.9,12.8-103.3-4.6c-27.5-17.4-36.7-32.1-36.7-32.1l-23.7,13.6c0,0-4.9,2.5-4.9-3.3V124c0,0,0-7.6,5.7-4.9c4.8,2.3,56.8,32.1,73.1,41.5c9,4,1.1,7.3,1.1,7.3l-22.8,13.2c0,0,13,16.5,32.1,25.2c20.4,10.7,39.5,12,62.9,3.1c15.2-5.8,33.2-20.7,46.1-42.7L234.1,184.4L234.1,184.4z"/></g></g>
</svg>